<?xml version="1.0" encoding="utf-8" ?>
<svg baseProfile="full" height="200mm" version="1.1" viewBox="0,0,200,200" width="200mm" xmlns="http://www.w3.org/2000/svg" xmlns:ev="http://www.w3.org/2001/xml-events" xmlns:xlink="http://www.w3.org/1999/xlink"><defs /><rect fill="#1a1a1a" height="200" width="200" x="0" y="0" /><text alignment-baseline="middle" fill="#e1ed5e" style="dominant-baseline: central; font-size:9.0px; font-family:Arial;" text-anchor="middle" x="100.0" y="100.0">2024</text><line stroke="#e1ed5e" stroke-width="0.3" x1="100.0" x2="100.0" y1="15.0" y2="10.0" /><path d="M 100.0 14.0 a86.0,86.0 0 0,1 42.35913384403234,11.155469271406648" fill="none" id="id37" stroke="none" /><text fill="#e1ed5e" style="font-size:6.75px; font-family:Arial;" text-anchor="middle"><textPath startOffset="22.145653131862478" xlink:href="#id37">January</textPath></text><path d="M 102.87502721639298 79.19773525538626 l 2.260481043138476 -16.355714770777926 a37.51118348906073,37.51118348906073 0 0,0 0.6371094004519808,0.09363314179929745 l -2.5409155491981386 16.314500555679743" fill="#ffcd13" stroke="none" /><path d="M 103.23170211078529 79.25015418208739 l 1.1782309728482838 -7.565088051556285 a28.656290580508205,28.656290580508205 0 0,0 0.4854136780254835,0.07987463599752533 l -1.307922153926838 7.5437474170630905" fill="#ff5708" stroke="none" /><path d="M 104.64783097203109 79.52079915486377 l 2.0050947847855674 -8.834817586581595 a30.059492639444315,30.059492639444315 0 0,0 0.502233782955886,0.11852580526589664 l -2.1564607214813383 8.79909563766947" fill="#ff6a09" stroke="none" /><path d="M 104.9986988182912 79.60360301121754 l 3.819813903805565 -15.586144242217586 a37.04739451122576,37.04739451122576 0 0,0 0.6163887400958503,0.15668360736294729 l -4.086807937126809 15.51827540301937" fill="#ffc712" stroke="none" /><path d="M 105.69591212413111 79.78721728523813 l 4.515710133066261 -16.02466220218248 a37.64876682219837,37.64876682219837 0 0,0 0.6205592229373145,0.18063574567003401 l -4.7901293683851796 15.94478276220993" fill="#ffcf13" stroke="none" /><path d="M 106.72888874123014 80.10723608172694 l 5.353945433108558 -15.827988339226751 a37.708978022829584,37.708978022829584 0 0,0 0.6114137789930825,0.21268145063145288 l -5.624864984146659 15.733748456026708" fill="#ffd013" stroke="none" /><path d="M 107.06938296918511 80.22567764915836 l 5.769290221687277 -16.13773154976682 a38.13800131971041,38.13800131971041 0 0,0 0.6145863514675863,0.22568462116688842 l -6.045465724808988 16.03631607959121" fill="#ffd513" stroke="none" /><path d="M 108.07796709384702 80.6158196554323 l 5.737192646022027 -13.767173798804851 a35.914773007460354,35.914773007460354 0 0,0 0.5670513815471268,0.2420405158230426 l -5.972679102739584 13.666658633322406" fill="#ffb811" stroke="none" /><path d="M 109.3889696526874 81.21577127319529 l 2.6564868098998264 -5.31475312976598 a26.94167678366377,26.94167678366377 0 0,0 0.41191614364884277,0.21032731796582352 l -2.747330175262248 5.268367860127323" fill="#ff3e05" stroke="none" /><path d="M 109.71004243097381 81.37971332152246 l 1.0335920859550478 -1.9820491090437438 a23.235359315817036,23.235359315817036 0 0,0 0.35208339064337785,0.18746457434175395 l -1.0674642923849853 1.9640140669794166" fill="#ff0901" stroke="none" /><line stroke="#e1ed5e" stroke-width="0.3" x1="143.13028292997686" x2="145.6673583964461" y1="26.7553504044142" y2="22.446841604673864" /><path d="M 143.63769802327073 25.89364864446614 a86.0,86.0 0 0,1 29.32050498858742,28.57503671076993" fill="none" id="id38" stroke="none" /><text fill="#e1ed5e" style="font-size:6.75px; font-family:Arial;" text-anchor="middle"><textPath startOffset="20.669276256404974" xlink:href="#id38">February</textPath></text><path d="M 113.59037401385872 83.9905735841838 l 10.575765829077843 -12.458225554268775 a37.34179325632674,37.34179325632674 0 0,0 0.48512416489422755,0.4190386992925117 l -10.78806947373493 12.274842722511544" fill="#ffcb12" stroke="none" /><path d="M 113.86319453409587 84.22622945171908 l 7.946975812867286 -9.04219966881408 a33.03809783234042,33.03809783234042 0 0,0 0.4227853492752712,0.3780572663457803 l -8.101026188965932 8.904446872584911" fill="#ff920d" stroke="none" /><path d="M 114.13192950727249 84.46653392183569 l 10.189400892376668 -11.199936501034669 a36.14141565946775,36.14141565946775 0 0,0 0.4553306002886872,0.42144720593605434 l -10.38016126397932 11.023371548966239" fill="#ffbb11" stroke="none" /><path d="M 114.39649973595853 84.71141617570332 l 6.489717917329653 -6.891855533974936 a30.466473015209544,30.466473015209544 0 0,0 0.37767910402385957,0.36180803820788743 l -6.607069507218825 6.7794353654614685" fill="#ff700a" stroke="none" /><path d="M 115.41159269507618 85.73525988315684 l 11.878461247592897 -10.994526395642435 a37.18571753970285,37.18571753970285 0 0,0 0.429587646236973,0.47219207589356055 l -12.065446594671748 10.788996744191204" fill="#ffc912" stroke="none" /><path d="M 115.6541949942343 86.00192230759917 l 11.0670873520061 -9.896257753210993 a35.8464251580952,35.8464251580952 0 0,0 0.4062405992506239,0.4622272293889708 l -11.235339015215315 9.704818246010724" fill="#ffb811" stroke="none" /><path d="M 115.8921839302757 86.27271002978787 l 12.718083571216628 -10.985577678526955 a37.805730173229605,37.805730173229605 0 0,0 0.4200134466665558,0.49477478406441655 l -12.904791581390297 10.765636112012986" fill="#ffd113" stroke="none" /><path d="M 116.35404254752997 86.82634096563983 l 12.19793267196003 -9.82579111418255 a36.66319675191558,36.66319675191558 0 0,0 0.3906089463522315,0.4935216435285087 l -12.36480804895382 9.614949526739364" fill="#ffc212" stroke="none" /><path d="M 116.7966241395341 87.39550010848427 l 9.493176449978106 -7.123856588077925 a32.868855538674325,32.868855538674325 0 0,0 0.3347896103958772,0.45420640470838486 l -9.614068079957809 6.959843874100665" fill="#ff900d" stroke="none" /><line stroke="#e1ed5e" stroke-width="0.3" x1="172.87174338648825" x2="177.1583165268699" y1="56.24261187166439" y2="53.66864786411523" /><path d="M 173.72905801456457 55.72781907015455 a86.0,86.0 0 0,1 12.242430191666344,42.057860355516425" fill="none" id="id39" stroke="none" /><text fill="#e1ed5e" style="font-size:6.75px; font-family:Arial;" text-anchor="middle"><textPath startOffset="22.145653131862474" xlink:href="#id39">March</textPath></text><path d="M 119.0197475246899 91.09779779509293 l 6.731058773963113 -3.150475377296603 a28.431867014519163,28.431867014519163 0 0,0 0.20310579739776685,0.4438228220745845 l -6.784149036215931 3.034463573007334" fill="#ff5307" stroke="none" /><path d="M 119.31412917781788 91.75594674310238 l 4.108817916912803 -1.7538100433141697 a25.467463972140493,25.467463972140493 0 0,0 0.1681751932444821,0.4035592417573266 l -4.1383189546937675 1.6830182921155652" fill="#ff2904" stroke="none" /><path d="M 119.94978838288452 93.4421083053983 l 7.6999396919683925 -2.5311231169857815 a29.105285651554183,29.105285651554183 0 0,0 0.15195077451391723,0.47598363695245055 l -7.742255182259567 2.398570446341944" fill="#ff5d08" stroke="none" /><path d="M 120.05942366710727 93.78553927170692 l 8.00410812182164 -2.479693156370994 a29.379416744354245,29.379416744354245 0 0,0 0.14511148670816534,0.4830289442982177 l -8.045495928533432 2.3419266084820527" fill="#ff6108" stroke="none" /><path d="M 120.35273937422433 94.82641323984039 l 7.23334228655264 -1.8386873234767007 a28.46337803597972,28.46337803597972 0 0,0 0.11631013680806138,0.47458504910838956 l -7.263839949876993 1.7142464497602163" fill="#ff5407" stroke="none" /><path d="M 120.77682067341334 96.94652285012252 l 4.456577318339675 -0.654963395127425 a25.504448739112977,25.504448739112977 0 0,0 0.05994211416722481,0.4337112779832775 l -4.467163949062112 0.5783638089440618" fill="#ff2a04" stroke="none" /><line stroke="#e1ed5e" stroke-width="0.3" x1="184.99686870605535" x2="189.99668451229388" y1="99.2704041080226" y2="99.22748670261217" /><path d="M 185.99683186730306 99.26182062694052 a86.0,86.0 0 0,1 -10.086455211305974,41.156179273409016" fill="none" id="id40" stroke="none" /><text fill="#e1ed5e" style="font-size:6.75px; font-family:Arial;" text-anchor="middle"><textPath startOffset="21.40746469413373" xlink:href="#id40">April</textPath></text><path d="M 120.99303781780057 100.54070618675476 l 15.979960469695774 0.4115870968771576 a36.985260102711976,36.985260102711976 0 0,0 -0.021795436679720556,0.6345503580225743 l -15.970540346019208 -0.6858437194638426" fill="#ffc612" stroke="none" /><path d="M 120.96210409425399 101.26102812881392 l 33.10276905902079 1.9913803851636518 a54.16261321448113,54.16261321448113 0 0,0 -0.06379850018451952,0.927616190836809 l -33.0637065976712 -2.5593400001548043" fill="#6eff28" stroke="none" /><path d="M 120.592083275326 104.11899336999214 l 1.6052938247750324 0.3211037238306328 a22.637093725270105,22.637093725270105 0 0,0 -0.07949100531356346,0.38039323649324347 l -1.5995451086371044 -0.3486134116092854" fill="#ff0000" stroke="none" /><path d="M 120.51834098615036 104.47187691870673 l 2.1966642884473253 0.47875275765645364 a23.24823001472346,23.24823001472346 0 0,0 -0.08833124967543046,0.3892037842792948 l -2.1881221772142307 -0.5163908758747654" fill="#ff0901" stroke="none" /><path d="M 119.94978838288452 106.5578916946017 l 21.84113724993473 7.179615634163072 a43.99091466264022,43.99091466264022 0 0,0 -0.2419805696143311,0.7153725569353209 l -21.714671258748034 -7.553489865572554" fill="#e1ff1b" stroke="none" /><line stroke="#e1ed5e" stroke-width="0.3" x1="174.33088141563837" x2="178.70328620479359" y1="141.23008692659167" y2="143.65538615756765" /><path d="M 175.20536237346943 141.71514677278685 a86.0,86.0 0 0,1 -30.301960400862466,31.631185727798858" fill="none" id="id41" stroke="none" /><text fill="#e1ed5e" style="font-size:6.75px; font-family:Arial;" text-anchor="middle"><textPath startOffset="22.145653131862474" xlink:href="#id41">May</textPath></text><path d="M 117.62189284568427 111.42229804090321 l 10.953727973857976 7.10007413346783 a34.05355159433699,34.05355159433699 0 0,0 -0.3221718318927087,0.4878092158855007 l -10.83023170304454 -7.287063227692392" fill="#ffa00e" stroke="none" /><path d="M 115.16444852881244 114.52719865689866 l 2.8790484548691575 2.7580632930538056 a24.986957879633955,24.986957879633955 0 0,0 -0.29938325721927356,0.30719359613241587 l -2.831278396499077 -2.807079581253959" fill="#ff2203" stroke="none" /><path d="M 114.65682725009322 115.03919595460226 l 5.20881456860817 5.344702618910044 a28.463082157843942,28.463082157843942 0 0,0 -0.35284397251251914,0.33801654401342623 l -5.116298110230338 -5.43333129322905" fill="#ff5407" stroke="none" /><path d="M 114.13192950727249 115.5334660781643 l 6.6052055321157495 7.260277941495734 a30.81531333729403,30.81531333729403 0 0,0 -0.39434059062509125,0.35262178776170666 l -6.47959991466728 -7.372595259140828" fill="#ff740a" stroke="none" /><path d="M 113.86319453409587 115.77377054828091 l 3.1789075198941927 3.6170132136348894 a25.815416659817636,25.815416659817636 0 0,0 -0.33537978110809963,0.2896930670835288 l -3.1163482590232374 -3.671050413183136" fill="#ff2e04" stroke="none" /><path d="M 113.59037401385872 116.0094264158162 l 6.689282227640384 7.87995764419946 a31.336354734402406,31.336354734402406 0 0,0 -0.4130812982995238,0.3446071107869437 l -6.553026595178966 -7.993626938898275" fill="#ff7b0b" stroke="none" /><path d="M 113.31354834802062 116.24036423190432 l 11.544634152493654 14.082576534786368 a39.20981986657305,39.20981986657305 0 0,0 -0.5241965105737951,0.4222556029942284 l -11.301186871564605 -14.278680431574001" fill="#ffe315" stroke="none" /><path d="M 113.03279911837588 116.46651593811092 l 6.222768239451086 7.862264388746371 a31.026866204376645,31.026866204376645 0 0,0 -0.42047321766184953,0.3269625172633764 l -6.0868850771540055 -7.967927957630541" fill="#ff770b" stroke="none" /><path d="M 112.45986205192187 116.90419585922612 l 13.71292594539085 18.604217688605583 a44.11192882017419,44.11192882017419 0 0,0 -0.6134057564058436,0.44405846313478836 l -13.391539178611039 -18.836876923113447" fill="#dfff1b" stroke="none" /><path d="M 111.8722381534696 117.32195027204791 l 6.718859740760216 9.80301715732519 a32.884537079870654,32.884537079870654 0 0,0 -0.46837557641909733,0.3151439907526026 l -6.549587876244115 -9.916910822134914" fill="#ff900d" stroke="none" /><line stroke="#e1ed5e" stroke-width="0.3" x1="143.1302829299769" x2="145.66735839644613" y1="173.24464959558577" y2="177.55315839532614" /><path d="M 143.63769802327073 174.10635135553383 a86.0,86.0 0 0,1 -40.68552437913181,11.842963189579606" fill="none" id="id42" stroke="none" /><text fill="#e1ed5e" style="font-size:6.75px; font-family:Arial;" text-anchor="middle"><textPath startOffset="21.407464694133747" xlink:href="#id42">June</textPath></text><path d="M 110.65571695917076 118.09573695890943 l 9.235208255957374 15.68340262798784 a39.20049970529598,39.20049970529598 0 0,0 -0.582794822458554,0.33647674762876756 l -8.964620965638423 -15.83962627289278" fill="#ffe215" stroke="none" /><path d="M 110.34350942703117 118.27599006163325 l 5.859608012483551 10.353365901262919 a32.896520144369745,32.896520144369745 0 0,0 -0.49384853166441317,0.27392945571622834 l -5.6810152926630435 -10.452428272412291" fill="#ff910d" stroke="none" /><path d="M 110.02825361518725 118.45085714620011 l 8.897184181533092 16.369816783281774 a39.63144621005939,39.63144621005939 0 0,0 -0.6005318776473569,0.31974939975469274 l -8.614863488099182 -16.520136650759035" fill="#ffe815" stroke="none" /><path d="M 109.71004243097381 118.62028667847754 l 9.497281615751076 18.21228976172292 a41.53986018583965,41.53986018583965 0 0,0 -0.6351103961665182,0.3242918936233595 l -9.183243997870974 -18.372639607019117" fill="#ffff18" stroke="none" /><path d="M 109.06512990194946 118.94263497670748 l 8.973020649920617 18.75016206589076 a41.78662255108007,41.78662255108007 0 0,0 -0.6497049462913845,0.3040947203902753 l -8.649826989757726 -18.901433017851566" fill="#fcff18" stroke="none" /><path d="M 108.4095320186766 119.2426549942271 l 11.612591524065438 26.571881977523226 a49.99857227058291,49.99857227058291 0 0,0 -0.7894177550705518,0.33695549795827906 l -11.154738693824456 -26.76731212514091" fill="#9cff22" stroke="none" /><path d="M 108.07796709384702 119.3841803445677 l 8.078687915800165 19.385910054849212 a42.00187389485994,42.00187389485994 0 0,0 -0.6679208766109599,0.2716376058319798 l -7.744712577998763 -19.521734917260485" fill="#f9ff18" stroke="none" /><path d="M 107.74402155503746 119.51999308798841 l 2.4674429618302374 6.2195681168528 a27.691136101594218,27.691136101594218 0 0,0 -0.4433584781153701,0.1715005837599089 l -2.3603122212213377 -6.26100858875075" fill="#ff4906" stroke="none" /><path d="M 107.407793817531 119.65005319985036 l 0.9248370113087744 2.4532400497433247 a23.621776161145565,23.621776161145565 0 0,0 -0.3806602528633138,0.13978371754531296 l -0.8825876067913336 -2.4687546162973595" fill="#ff0e01" stroke="none" /><path d="M 107.06938296918513 119.77432235084164 l 4.9937764979002015 13.968481640897474 a35.83429415452822,35.83429415452822 0 0,0 -0.5810176344027465,0.20210809368859617 l -4.753253091452433 -14.05214816715466" fill="#ffb711" stroke="none" /><path d="M 106.72888874123015 119.89276391827305 l 7.494812559546053 22.157081591380425 a44.39035014594306,44.39035014594306 0 0,0 -0.7239374091829086,0.2379726056224767 l -7.11335241271541 -22.28247511840492" fill="#dcff1b" stroke="none" /><path d="M 106.0420521117495 120.11202640906438 l 4.289868208007076 14.279576060435843 a35.91003895728788,35.91003895728788 0 0,0 -0.5919000209548402,0.1722934696566179 l -4.044108174670629 -14.35111322439498" fill="#ffb811" stroke="none" /><path d="M 105.69591212413111 120.21278271476187 l 6.0259759809429605 21.384062902086026 a43.21689745944004,43.21689745944004 0 0,0 -0.7157924157281604,0.19509240589419993 l -5.658002164280105 -21.48435580212437" fill="#eaff1a" stroke="none" /><path d="M 104.64783097203109 120.47920084513623 l 5.250153962592286 23.133147077599077 a44.72143777988076,44.72143777988076 0 0,0 -0.7501224366144227,0.16348569373928892 l -4.852269109358727 -23.219864229472083" fill="#d8ff1c" stroke="none" /><path d="M 103.58742460773223 120.69131181640829 l 2.7890360169499764 16.086418588287938 a37.32640759326619,37.32640759326619 0 0,0 -0.632278233863591,0.10404114277216438 l -2.512480280033313 -16.131925729555775" fill="#ffcb12" stroke="none" /><path d="M 103.2317021107853 120.74984581791261 l 2.619550793149568 16.819395230965732 a38.022165029552596,38.022165029552596 0 0,0 -0.6457881760229918,0.09490862293818637 l -2.3304375115188907 -16.8618849272028" fill="#ffd413" stroke="none" /><path d="M 102.875027216393 120.80226474461374 l 2.4512511576940845 17.736032287675975 a38.9046215695161,38.9046215695161 0 0,0 -0.6623459543832627,0.0857539444228855 l -2.1464273814200463 -17.775497828299255" fill="#ffdf14" stroke="none" /><path d="M 102.51750503828377 120.84855314841334 l 0.7562783744610294 6.263069843028125 a27.308565672030827,27.308565672030827 0 0,0 -0.4658894599554994,0.05220388574043428 l -0.6486530129047308 -6.27512948927553" fill="#ff4406" stroke="none" /><path d="M 102.15924093988457 120.88869738790638 l 1.8738121156504515 18.127432433597445 a39.22402201709049,39.22402201709049 0 0,0 -0.6703580298918834,0.06348360239937759 l -1.5623545223735527 -18.156927791502003" fill="#ffe315" stroke="none" /><line stroke="#e1ed5e" stroke-width="0.3" x1="101.45913802915013" x2="101.54496967792366" y1="184.9874750549273" y2="189.98673829345242" /><path d="M 101.47630435890484 185.9873277026323 a86.0,86.0 0 0,1 -42.54439059252881,-10.42667462771756" fill="none" id="id43" stroke="none" /><text fill="#e1ed5e" style="font-size:6.75px; font-family:Arial;" text-anchor="middle"><textPath startOffset="22.145653131862474" xlink:href="#id43">July</textPath></text><path d="M 100.36049292484886 120.99690560180557 l 0.4938144673912481 28.762217069772454 a49.76645587306359,49.76645587306359 0 0,0 -0.8543073922400969,0.007333201485572983 l -3.5228748107760907e-15 -28.76645587306359" fill="#9eff22" stroke="none" /><path d="M 100.0 121.0 l 3.211565062804573e-15 26.2244188695107 a47.2244188695107,47.2244188695107 0 0,0 -0.8106699467884398,-0.006958626499192945 l 0.4501770219395845 -26.220554641205943" fill="#bbff1f" stroke="none" /><path d="M 99.27912038922189 120.98762331915562 l -0.0873128146800734 2.5420173327730313 a23.543516394231787,23.543516394231787 0 0,0 -0.40379848143210084,-0.017340844230626807 l 0.13093705671301298 -2.540143920116576" fill="#ff0d01" stroke="none" /><path d="M 98.91894614982273 120.97215588758144 l -0.4936889839714455 9.577434398973823 a30.59015007596554,30.59015007596554 0 0,0 -0.5241922987596321,-0.03153410700907188 l 0.658025634863524 -9.56754831414006" fill="#ff710a" stroke="none" /><path d="M 98.55909050195518 120.95050786540614 l -1.3735555538998492 19.97119629969706 a41.0183749715276,41.0183749715276 0 0,0 -0.7020607499382124,-0.05434394218771907 l 1.7161852986132977 -19.944674590514285" fill="#fff917" stroke="none" /><path d="M 98.19965949673042 120.92268563240118 l -0.8774023497621692 10.196745284497492 a31.234424716626236,31.234424716626236 0 0,0 -0.5338118413435727,-0.050552536377315514 l 1.0523137544907573 -10.180180992614993" fill="#ff7a0b" stroke="none" /><path d="M 97.84075906011543 120.88869738790638 l -2.345725702226362 22.69276829822432 a43.81368365930807,43.81368365930807 0 0,0 -0.7474699939880857,-0.08375557189957526 l 2.7349315978152466 -22.649156965817774" fill="#e3ff1b" stroke="none" /><path d="M 97.48249496171623 120.84855314841334 l -1.775426576707662 14.703078954244761 a35.80988420832638,35.80988420832638 0 0,0 -0.6096584666666336,-0.07893249429771607 l 2.02756286526509 -14.670434863746648" fill="#ffb711" stroke="none" /><path d="M 96.76829788921471 120.74984581791261 l -2.8871929262974776 18.537849719287095 a39.76133671166676,39.76133671166676 0 0,0 -0.6735239036677139,-0.11082810204261613 l 3.204994333018255 -18.48555561874881" fill="#ffe915" stroke="none" /><path d="M 96.41257539226777 120.69131181640829 l -1.6175089679396257 9.329361890794528 a30.468544162160008,30.468544162160008 0 0,0 -0.5145778254087553,-0.0937732212787248 l 1.777421526899438 -9.300220495584437" fill="#ff700a" stroke="none" /><path d="M 96.05791012581884 120.62667999033965 l -0.8564548519534807 4.481333688793085 a25.562440853725832,25.562440853725832 0 0,0 -0.43030536572376654,-0.08607312454937485 l 0.9332567032082054 -4.4659711675808484" fill="#ff2b04" stroke="none" /><path d="M 95.35216902796893 120.47920084513623 l -6.506129514530445 28.66720710248041 a50.39623248507107,50.39623248507107 0 0,0 -0.8420198834124182,-0.19871439978405472 l 6.997281551682751 -28.55129655905013" fill="#97ff23" stroke="none" /><path d="M 95.00130118170881 120.39639698878247 l -3.899468924413526 15.911163908640532 a37.38203268279281,37.38203268279281 0 0,0 -0.6219563975163669,-0.1580988841070888 l 4.172030615155271 -15.841879792698181" fill="#ffcb13" stroke="none" /><path d="M 94.6519064749342 120.30758222061772 l -4.485455663129957 17.03200575102623 a38.61273778856925,38.61273778856925 0 0,0 -0.6395346839855293,-0.17430802200467085 l 4.777171748050181 -16.952497234877413" fill="#ffdb14" stroke="none" /><path d="M 90.93487009805054 118.94263497670748 l -6.689149713724026 13.977750203488254 a36.49587766613205,36.49587766613205 0 0,0 -0.5628007583982005,-0.2752940532382171 l 6.928110721384296 -13.860862400152817" fill="#ffc011" stroke="none" /><path d="M 90.6110303473126 118.78422872680471 l -10.295564757826295 20.598026241067227 a44.027751490544816,44.027751490544816 0 0,0 -0.6731482139415805,-0.34371427440948826 l 10.647640193481458 -20.418254014984903" fill="#e0ff1b" stroke="none" /><path d="M 90.28995756902619 118.62028667847754 l -14.371102669642351 27.55848426995367 a52.08051877299807,52.08051877299807 0 0,0 -0.7891715977717101,-0.4201894255464196 l 14.842063083200623 -27.30772437668468" fill="#85ff25" stroke="none" /><line stroke="#e1ed5e" stroke-width="0.3" x1="58.13341422392154" x2="55.67067388415222" y1="173.97424548756322" y2="178.32567169271397" /><path d="M 57.64086615596768 174.84453072859336 a86.0,86.0 0 0,1 -31.369924170532247,-30.572349798747897" fill="none" id="id44" stroke="none" /><text fill="#e1ed5e" style="font-size:6.75px; font-family:Arial;" text-anchor="middle"><textPath startOffset="22.145653131862474" xlink:href="#id44">August</textPath></text><path d="M 89.65649057296885 118.27599006163327 l -7.31359816707033 12.922427185772031 a35.84849630504566,35.84849630504566 0 0,0 -0.5329605029673278,-0.3077048898556274 l 7.534351137898057 -12.794975398640233" fill="#ffb811" stroke="none" /><path d="M 89.34428304082925 118.09573695890944 l -4.270534091552378 7.252300515384661 a29.416253572258842,29.416253572258842 0 0,0 -0.43293335257075116,-0.25996403903316706 l 4.394400200680557 -7.177922475815575" fill="#ff6109" stroke="none" /><path d="M 89.03521579738668 117.91015095944536 l -8.593141837319562 14.036251391581217 a37.45777748555246,37.45777748555246 0 0,0 -0.5455205719473822,-0.3404451834222184 l 8.832826538056658 -13.886670411317452" fill="#ffcc13" stroke="none" /><path d="M 88.72937992617639 117.7192867562869 l -9.627842063199461 15.13656686541079 a38.93909137233446,38.93909137233446 0 0,0 -0.5609349812851566,-0.3635912778448611 l 9.886262676741627 -14.969061745862035" fill="#ffdf14" stroke="none" /><path d="M 88.1277618465304 117.32195027204791 l -16.37135560404521 23.886297090191743 a49.95818490504895,49.95818490504895 0 0,0 -0.7032326044752936,-0.4909109737201333 l 16.778983299694268 -23.60174130066648" fill="#9cff22" stroke="none" /><path d="M 87.83215693770417 117.11559508785305 l -12.49766126741471 17.57952569761817 a42.56922022021787,42.56922022021787 0 0,0 -0.591953365613175,-0.42852858656210313 l 12.79759564340184 -17.362396339683002" fill="#f2ff19" stroke="none" /><path d="M 87.54013794807813 116.9041958592261 l -9.969182877675715 13.52511121057557 a37.80217963560025,37.80217963560025 0 0,0 -0.5190545481230299,-0.38950820957579185 l 10.199890414709511 -13.351983973735763" fill="#ffd113" stroke="none" /><path d="M 87.2517909369889 116.68781488649013 l -13.447510376644141 17.603222753909506 a43.15195220863636,43.15195220863636 0 0,0 -0.5847912603882763,-0.45473722115623894 l 13.747711581667645 -17.369784481132477" fill="#ebff1a" stroke="none" /><path d="M 86.96720088162412 116.46651593811092 l -3.679748709281323 4.64924228627065 a26.929249901961015,26.929249901961015 0 0,0 -0.36001743642315215,-0.2900045624853388 l 3.759016916059737 -4.585389429991901" fill="#ff3e05" stroke="none" /><path d="M 86.68645165197938 116.24036423190432 l -14.246823238264179 17.378807849626977 a43.47209235155019,43.47209235155019 0 0,0 -0.5730567100282654,-0.4780642889737377 l 14.543054282454337 -17.13168137674137" fill="#e7ff1a" stroke="none" /><path d="M 86.13680546590413 115.77377054828092 l -3.1392566303987377 3.571897780002458 a25.75535339825432,25.75535339825432 0 0,0 -0.32958877164926087,-0.29472031195398735 l 3.2001104288713695 -3.5174819381650884" fill="#ff2d04" stroke="none" /><path d="M 85.60350026404147 115.28858382429668 l -25.95207657796758 27.560205984361577 a58.85598014328956,58.85598014328956 0 0,0 -0.7296110001268088,-0.6989508336529486 l 26.421360063959707 -27.110643020403046" fill="#3eff2d" stroke="none" /><path d="M 84.83555147118756 114.52719865689866 l -7.909210812790093 7.576845045066111 a31.952816830299803,31.952816830299803 0 0,0 -0.3760453464429842,-0.39934712647341 l 8.03811199296933 -7.439956458648211" fill="#ff840c" stroke="none" /><path d="M 84.58840730492382 114.26474011684316 l -21.267947976859286 19.68529513535383 a49.979931948028764,49.979931948028764 0 0,0 -0.5773926858265791,-0.6346557060344672 l 21.602738363527745 -19.317301853761688" fill="#9cff22" stroke="none" /><path d="M 84.3458050057657 113.99807769240083 l -14.847243998431942 13.276497136047587 a40.91748052722666,40.91748052722666 0 0,0 -0.46370988838903243,-0.5276167309365803 l 15.072964950779568 -13.019668127299706" fill="#fff817" stroke="none" /><path d="M 84.1078160697243 113.72728997021213 l -28.481704756213357 24.601818211383335 a58.63584681026932,58.63584681026932 0 0,0 -0.6514315159142852,-0.7673846877457787 l 28.899830835634756 -24.109266741188" fill="#40ff2d" stroke="none" /><path d="M 83.8745106332314 113.45245675266167 l -18.617029716220962 15.530988326878088 a45.24469826300748,45.24469826300748 0 0,0 -0.4924199857427998,-0.600672316236502 l 18.880896521202395 -15.209113728943091" fill="#d2ff1c" stroke="none" /><path d="M 83.20337586046588 112.60449989151573 l -25.544179743879006 19.168828696521135 a52.93664215887717,52.93664215887717 0 0,0 -0.5391924213236803,-0.7315180744284375 l 25.869474184786515 -18.727504312823818" fill="#7bff26" stroke="none" /><path d="M 82.78059297857968 112.02048342749411 l -13.542828632681909 9.453946174687609 a37.51621341736899,37.51621341736899 0 0,0 -0.3641042538231623,-0.5312389877154493 l 13.703122623320397 -9.220072451902107" fill="#ffcd13" stroke="none" /><path d="M 82.576782715395 111.72311816256416 l -5.9850053047753144 4.026978671353063 a28.213656889381497,28.213656889381497 0 0,0 -0.26692210059980825,-0.40415408085541576 l 6.05325184429585 -3.923644712158586" fill="#ff5007" stroke="none" /><line stroke="#e1ed5e" stroke-width="0.3" x1="26.387840678322732" x2="22.057713659400548" y1="142.50000000000003" y2="145.00000000000006" /><path d="M 25.521815274538298 143.00000000000003 a86.0,86.0 0 0,1 -11.493303480769221,-40.785679425670985" fill="none" id="id45" stroke="none" /><text fill="#e1ed5e" style="font-size:6.75px; font-family:Arial;" text-anchor="middle"><textPath startOffset="21.40746469413373" xlink:href="#id45">September</textPath></text><path d="M 81.81346652052679 110.50000000000001 l -15.206314923378335 8.779370014394715 a38.558740028789416,38.558740028789416 0 0,0 -0.32603551028226757,-0.5760735065495562 l 15.35478379868198 -8.517039737746037" fill="#ffda14" stroke="none" /><path d="M 81.63589988554817 110.18625677009913 l -10.018275514884559 5.556968550171584 a32.45625347832927,32.45625347832927 0 0,0 -0.26607118906466753,-0.489541019656401 l 10.112192053564558 -5.384172697040596" fill="#ff8b0c" stroke="none" /><path d="M 81.4637452351635 109.86951160357371 l -16.90823698229186 9.002683832834972 a40.15559432759345,40.15559432759345 0 0,0 -0.31874350285357744,-0.6112326946279409 l 17.060288554120387 -8.71110489510253" fill="#ffee16" stroke="none" /><path d="M 81.29705330413844 109.54985784667822 l -23.456694479507377 11.977155336801772 a47.337592256446506,47.337592256446506 0 0,0 -0.3633274870591169,-0.7268983575530198 l 23.65884187977823 -11.572725123085" fill="#baff1f" stroke="none" /><path d="M 81.1358732173502 109.22738970284198 l -6.749075682224441 3.3013111166713185 a28.513233501858632,28.513233501858632 0 0,0 -0.21129764550102562,-0.4415308124048972 l 6.804752585685379 -3.1849678022013164" fill="#ff5507" stroke="none" /><path d="M 80.9802524753101 108.90220220490708 l -13.340053797964437 6.243818756251039 a35.72896153819059,35.72896153819059 0 0,0 -0.25523329930118,-0.557730821249833 l 13.445271562120674 -6.0138989527865165" fill="#ffb610" stroke="none" /><path d="M 80.83023694016515 108.57439118712176 l -21.60472463896131 9.663518530004115 a44.667440020100926,44.667440020100926 0 0,0 -0.30706975790199503,-0.7026356992691206 l 21.767428278880274 -9.291220760959144" fill="#d9ff1c" stroke="none" /><path d="M 80.68587082218212 108.24405325689762 l -28.354762229122553 12.102961917228177 a51.829762052924615,51.829762052924615 0 0,0 -0.34225945145543957,-0.8212980883146299 l 28.558347525114478 -11.614431319472265" fill="#87ff25" stroke="none" /><path d="M 80.5471966667186 107.91128576633889 l -23.397165709375802 9.515423606456288 a46.25808087805359,46.25808087805359 0 0,0 -0.29283859835488696,-0.7381445641851612 l 23.557062982696813 -9.112378025057563" fill="#c6ff1e" stroke="none" /><path d="M 80.41425534168474 107.57618678355246 l -11.6627006070204 4.511383138139906 a33.50484559153319,33.50484559153319 0 0,0 -0.2028946810846755,-0.5382022469153102 l 11.73842597191951 -4.310512611030451" fill="#ff990e" stroke="none" /><path d="M 80.28708602549918 107.23885506374661 l -10.496355605139097 3.854407167881442 a32.181678568325545,32.181678568325545 0 0,0 -0.18597919232154592,-0.5202169009015141 l 10.560974967504587 -3.673655310599007" fill="#ff870c" stroke="none" /><path d="M 80.16572619554312 106.89939002012753 l -22.426300137060625 7.8010313298817335 a44.7443683354037,44.7443683354037 0 0,0 -0.24612508787023216,-0.7276250887262717 l 22.556910646503226 -7.4149045666813" fill="#d8ff1c" stroke="none" /><path d="M 79.94057633289273 106.21446072829308 l -29.850669858183295 9.247813826830331 a52.250352822935724,52.250352822935724 0 0,0 -0.2580761369477919,-0.8590515251846188 l 30.005022315134717 -8.734024698054988" fill="#83ff25" stroke="none" /><path d="M 79.83685265289637 105.86919833188381 l -4.072250185821666 1.1853726794825667 a25.241265137336768,25.241265137336768 0 0,0 -0.1175299508130594,-0.4170723330152106 l 4.091998628709301 -1.1152924225643606" fill="#ff2603" stroke="none" /><path d="M 79.73907114497094 105.5222062557868 l -4.628958370632787 1.2616431879795174 a25.797811910738734,25.797811910738734 0 0,0 -0.11278621455365602,-0.42826762745747815 l 4.649934065991175 -1.1819950561492365" fill="#ff2e04" stroke="none" /><path d="M 79.64726062577567 105.17358676015961 l -18.27354835732815 4.645064534277822 a39.854686263505315,39.854686263505315 0 0,0 -0.16285853372326142,-0.664518393201808 l 18.350594417567706 -4.330690316467915" fill="#ffeb16" stroke="none" /><path d="M 79.56144815229197 104.8234425847677 l -22.302230474266036 5.263265666101586 a43.91487398174479,43.91487398174479 0 0,0 -0.1668538076098604,-0.7351886629226587 l 22.38929514343356 -4.879642669239901" fill="#e2ff1b" stroke="none" /><path d="M 79.48165901384964 104.47187691870673 l -7.227440355771181 1.5751869866144863 a28.397101333565026,28.397101333565026 0 0,0 -0.09971748848997672,-0.47718428056172707 l 7.253415555085525 -1.4508862547673502" fill="#ff5307" stroke="none" /><path d="M 79.34024301695615 103.76489593502545 l -19.833029045929575 3.614238565126667 a41.1596567813625,41.1596567813625 0 0,0 -0.12070595118272404,-0.696199850063673 l 19.892149814604533 -3.273245682142401" fill="#fffb17" stroke="none" /><path d="M 79.2786578344484 103.40968896794605 l -2.728437456408403 0.44896334515978265 a23.76512911793092,23.76512911793092 0 0,0 -0.06278351917162941,-0.4031152309396195 l 2.7357424677183 -0.4020599322887132" fill="#ff1101" stroke="none" /><path d="M 79.22317932658666 103.0534771498775 l -32.36756135633327 4.756916881190203 a53.71524547318194,53.71524547318194 0 0,0 -0.1262448527944917,-0.9134448660178902 l 32.44445072568298 -4.200583706972227" fill="#73ff27" stroke="none" /><path d="M 79.17382384314188 102.69636545807758 l -22.94351132035704 2.9704968855192675 a44.135007314765026,44.135007314765026 0 0,0 -0.0908296637647015,-0.7521999136660203 l 22.991123070381402 -2.576203294929848" fill="#dfff1b" stroke="none" /><path d="M 79.0935383218832 101.97986365728391 l -23.582050467288052 2.2332446974176063 a44.68755973333396,44.68755973333396 0 0,0 -0.06576812294455547,-0.7643252809693539 l 23.61691221293035 -1.8280983690725903" fill="#d9ff1c" stroke="none" /><path d="M 79.01933749520258 100.90099992219065 l -31.21773358965887 1.3406238019804912 a52.246506407170585,52.246506407170585 0 0,0 -0.03078889857666264,-0.8963851884244826 l 31.236147175232382 -0.8045323489918889" fill="#83ff25" stroke="none" /><path d="M 79.00696218219943 100.54070618675478 l -16.336227530966607 0.42076327260923624 a37.34164531725885,37.34164531725885 0 0,0 -0.011004348869724229,-0.6409481532093213 l 16.341043311434998 -0.1402682034308626" fill="#ffcb12" stroke="none" /><line stroke="#e1ed5e" stroke-width="0.3" x1="15.003131293944662" x2="10.003315487706104" y1="100.72959589197737" y2="100.7725132973878" /><path d="M 14.003168132696942 100.73817937305945 a86.0,86.0 0 0,1 10.791469493833604,-42.45332614584628" fill="none" id="id46" stroke="none" /><text fill="#e1ed5e" style="font-size:6.75px; font-family:Arial;" text-anchor="middle"><textPath startOffset="22.145653131862435" xlink:href="#id46">October</textPath></text><path d="M 79.00077361379809 99.81974689727619 l -15.201806519222643 -0.130489225731548 a36.2023665554384,36.2023665554384 0 0,0 0.010668610558023614,-0.6213930797203145 l 15.197326477065953 0.39142922142091496" fill="#ffbc11" stroke="none" /><path d="M 79.00696218219943 99.45929381324524 l -17.7703170673482 -0.4577003320006201 a38.77621045858763,38.77621045858763 0 0,0 0.022850844833382022,-0.6652774148653169 l 17.759841535517964 0.7626840114300756" fill="#ffdd14" stroke="none" /><path d="M 79.01933749520258 99.09900007780938 l -23.711418521933478 -1.0182703352864229 a44.73327290531195,44.73327290531195 0 0,0 0.03953230683466941,-0.7669161914518848 l 23.69044462564224 1.4251583201150197" fill="#d8ff1c" stroke="none" /><path d="M 79.03789590574601 98.7389718711861 l -2.2503751614461622 -0.13537698153810968 a23.254443455574837,23.254443455574837 0 0,0 0.027391562685806104,-0.39826730982994824 l 2.2477196375952926 0.17398771552238287" fill="#ff0901" stroke="none" /><path d="M 79.06263194458094 98.37931529534042 l -40.05584187034032 -3.1005754916134927 a61.17566472780386,61.17566472780386 0 0,0 0.09003419884732732,-1.0463338658585288 l 39.996714048795255 3.787730404847702" fill="#30ff39" stroke="none" /><path d="M 79.13060592940154 97.66154086499901 l -40.66809787240707 -4.556945192137893 a61.922609081580184,61.922609081580184 0 0,0 0.1274364751363815,-1.0553568253188474 l 40.58387931101102 5.254395694380177" fill="#31ff42" stroke="none" /><path d="M 79.17382384314186 97.30363454192245 l -22.036815537211883 -2.853106963709127 a43.22074387520518,43.22074387520518 0 0,0 0.10158003375258523,-0.7349825221964816 l 21.984590986904088 3.2309777941056756" fill="#eaff1a" stroke="none" /><path d="M 79.2786578344484 96.59031103205396 l -11.233729222372537 -1.8485058686060756 a32.38479890853843,32.38479890853843 0 0,0 0.0949725595837919,-0.547776485703735 l 11.20034184529651 2.0410753872304035" fill="#ff8a0c" stroke="none" /><path d="M 79.34024301695615 96.23510406497455 l -22.351781527538563 -4.073239171335524 a43.719890290265845,43.719890290265845 0 0,0 0.14088986080759594,-0.7371952861337159 l 22.278565374448807 4.456337022502554" fill="#e4ff1a" stroke="none" /><path d="M 79.407916724674 95.88100663000787 l -25.677012729681472 -5.136121672618244 a47.18565883372353,47.18565883372353 0 0,0 0.1656942142218672,-0.7929067970323973 l 25.585060804635237 5.57614492093605" fill="#bbff1f" stroke="none" /><path d="M 79.48165901384962 95.52812308129327 l -3.886406048791418 -0.8470241096998782 a24.97763771835689,24.97763771835689 0 0,0 0.09490210447012132,-0.41815618290877576 l 3.871293082763635 0.9136146265476621" fill="#ff2203" stroke="none" /><path d="M 79.56144815229197 95.17655741523228 l -17.539389551710954 -4.139248176922063 a39.02119755501337,39.02119755501337 0 0,0 0.1594526419281845,-0.650621192414471 l 17.46574938326647 4.439725193944652" fill="#ffe015" stroke="none" /><path d="M 79.73907114497095 94.47779374421319 l -16.288349768427494 -4.43946216045903 a37.882510549464484,37.882510549464484 0 0,0 0.17639090502510432,-0.6259490944440327 l 16.209740371327808 4.718419178806076" fill="#ffd213" stroke="none" /><path d="M 79.83685265289637 94.1308016681162 l -7.28811904092657 -2.121465234628725 a28.59060563436507,28.59060563436507 0 0,0 0.14121537284387167,-0.4700600483863546 l 7.250627348079068 2.246262886605803" fill="#ff5607" stroke="none" /><path d="M 79.94057633289273 93.78553927170692 l -14.93155269991773 -4.6258331947110465 a36.63168573045502,36.63168573045502 0 0,0 0.19124406079126802,-0.5990692965677822 l 14.849943923349205 4.8814715249702205" fill="#ffc212" stroke="none" /><path d="M 80.05021161711548 93.44210830539832 l -59.84936514865357 -19.67367508380505 a84.0,84.0 0 0,0 0.46205831371054007,-1.3659933021033535 l 59.50282141337067 20.698170060382566" fill="#4dd2ff" stroke="none" /><path d="M 80.28708602549916 92.7611449362534 l -3.663718740653052 -1.345368269360148 a24.90292848907247,24.90292848907247 0 0,0 0.15080420890349272,-0.40002608073433527 l 3.640083847935123 1.4080626302886283" fill="#ff2103" stroke="none" /><path d="M 80.41425534168474 92.42381321644754 l -17.415059628484396 -6.736519182388373 a39.67257327093279,39.67257327093279 0 0,0 0.251148783721002,-0.6330589975051991 l 17.296852169797262 7.034479197107155" fill="#ffe815" stroke="none" /><path d="M 80.5471966667186 92.08871423366112 l -16.142842503015483 -6.565153512031815 a38.42677838023158,38.42677838023158 0 0,0 0.25375243043154855,-0.6089134577069695 l 16.027764228047456 6.841299479180049" fill="#ffd914" stroke="none" /><path d="M 80.68587082218212 91.75594674310238 l -17.619016149972598 -7.520510302961733 a40.15692577920447,40.15692577920447 0 0,0 0.2760618802321961,-0.6316836069555496 l 17.487320387723425 7.821855979693149" fill="#ffee16" stroke="none" /><path d="M 80.9802524753101 91.09779779509293 l -49.70567207417633 -23.26476431722953 a75.88080807606416,75.88080807606416 0 0,0 0.5623156028285304,-1.1750233390254585 l 49.298977213387886 24.114600158320076" fill="#43ffde" stroke="none" /><path d="M 81.1358732173502 90.77261029715801 l -24.596663860037705 -12.03146084848866 a48.381598258545836,48.381598258545836 0 0,0 0.3713404860127121,-0.742929723155402 l 24.38650346081325 12.451922427807832" fill="#aeff20" stroke="none" /><path d="M 81.29705330413844 90.45014215332179 l -16.260918979289347 -8.30294109446007 a39.25804800270517,39.25804800270517 0 0,0 0.311619039516449,-0.5975705967832913 l 16.11599187079796 8.580857934347849" fill="#ffe315" stroke="none" /><path d="M 81.46374523516351 90.13048839642627 l -19.669799470815516 -10.473060312348082 a43.284209735329966,43.284209735329966 0 0,0 0.35483704734102706,-0.6528602009779324 l 19.487117073859135 10.809175346800634" fill="#e9ff1a" stroke="none" /><line stroke="#e1ed5e" stroke-width="0.3" x1="26.387840678322718" x2="22.05771365940052" y1="57.49999999999999" y2="54.99999999999999" /><path d="M 25.521815274538284 56.99999999999999 a86.0,86.0 0 0,1 29.574782752854787,-30.34633250058573" fill="none" id="id47" stroke="none" /><text fill="#e1ed5e" style="font-size:6.75px; font-family:Arial;" text-anchor="middle"><textPath startOffset="21.40746469413373" xlink:href="#id47">November</textPath></text><path d="M 82.18462484594161 88.88188828441811 l -12.819384228481216 -8.00024387613048 a36.110940211482415,36.110940211482415 0 0,0 0.332706098556052,-0.5230692479442389 l 12.680160438299275 8.21912679875339" fill="#ffbb11" stroke="none" /><path d="M 82.37810715431573 88.57770195909679 l -18.751536906152218 -12.154519672926192 a43.34619620477585,43.34619620477585 0 0,0 0.41008713579219086,-0.6209241912314096 l 18.5401253314393 12.474623742496663" fill="#e9ff1a" stroke="none" /><path d="M 82.576782715395 88.27688183743585 l -18.43849525017858 -12.406242488218032 a43.22370265656298,43.22370265656298 0 0,0 0.4194968673452733,-0.6120584662725188 l 18.22280864601799 12.720935689560585" fill="#eaff1a" stroke="none" /><path d="M 82.78059297857968 87.97951657250589 l -13.739586734849635 -9.59129861100498 a37.75617058548647,37.75617058548647 0 0,0 0.3755568558397571,-0.5282677500121937 l 13.572914780479906 9.825743587726693" fill="#ffd013" stroke="none" /><path d="M 83.42222388311158 87.10902102172516 l -6.301058346303735 -4.899741081696471 a28.98190446893397,28.98190446893397 0 0,0 0.308772615887613,-0.3901241133684551 l 6.216019299774561 5.007185138979609" fill="#ff5b08" stroke="none" /><path d="M 83.64595745247003 86.82634096563983 l -13.949118744476866 -11.236422654244267 a38.911870583842706,38.911870583842706 0 0,0 0.42349675196724007,-0.5165971777913753 l 13.754175173270996 11.474222113734134" fill="#ffdf14" stroke="none" /><path d="M 83.8745106332314 86.54754324733833 l -16.905084988436826 -14.102823147536409 a43.01525650990605,43.01525650990605 0 0,0 0.47789015218557457,-0.5629533976369111 l 16.660500272744137 14.390943327622876" fill="#edff1a" stroke="none" /><path d="M 86.13680546590413 84.22622945171909 l -1.4078995639568266 -1.6019312592245951 a23.132689602701415,23.132689602701415 0 0,0 0.30052725770921634,-0.25958828746424617 l 1.3801928264847616 1.625863679153552" fill="#ff0701" stroke="none" /><path d="M 86.68645165197937 83.75963576809568 l -4.8633025811134445 -5.932438387019882 a28.6710844872972,28.6710844872972 0 0,0 0.3833040420423028,-0.3087626035998035 l 4.760747768715896 6.0150492844130845" fill="#ff5708" stroke="none" /><path d="M 86.96720088162412 83.53348406188908 l -9.318498346977417 -11.773618250082082 a36.01507569548974,36.01507569548974 0 0,0 0.4880729707688229,-0.3795284941528091 l 9.11501543157335 11.931847795855695" fill="#ffba11" stroke="none" /><path d="M 87.25179093698888 83.31218511350988 l -9.032572117457535 -11.823926851212157 a35.87926763116677,35.87926763116677 0 0,0 0.4926514086437204,-0.3696948014803387 l 8.828267719903062 11.977240679956497" fill="#ffb811" stroke="none" /><path d="M 87.54013794807813 83.09580414077388 l -8.806148115367078 -11.94723118821038 a35.8419869860585,35.8419869860585 0 0,0 0.49840670599324743,-0.36080801910994736 l 8.599760398999862 12.096639978693407" fill="#ffb711" stroke="none" /><path d="M 88.12776184653039 82.6780497279521 l -10.04960226965254 -14.662670047425504 a38.77606251951974,38.77606251951974 0 0,0 0.5522887729795982,-0.37160453432548796 l 9.796417208575953 14.833024255808102" fill="#ffdd14" stroke="none" /><line stroke="#e1ed5e" stroke-width="0.3" x1="56.869717070023135" x2="54.33264160355391" y1="26.7553504044142" y2="22.446841604673864" /><path d="M 56.362301976729285 25.89364864446614 a86.0,86.0 0 0,1 42.16139366436587,-11.88097634709845" fill="none" id="id48" stroke="none" /><text fill="#e1ed5e" style="font-size:6.75px; font-family:Arial;" text-anchor="middle"><textPath startOffset="22.145653131862474" xlink:href="#id48">December</textPath></text><path d="M 96.76829788921471 79.25015418208739 l -0.9184660239525887 -5.8972107368449205 a26.96830581588396,26.96830581588396 0 0,0 0.4580436966104794,-0.06731664980076578 l 0.8170972217344243 5.912108459944571" fill="#ff3f05" stroke="none" /></svg>