<?xml version="1.0" encoding="utf-8" ?>
<svg baseProfile="full" height="200mm" version="1.1" viewBox="0,0,200,200" width="200mm" xmlns="http://www.w3.org/2000/svg" xmlns:ev="http://www.w3.org/2001/xml-events" xmlns:xlink="http://www.w3.org/1999/xlink"><defs /><rect fill="#1a1a1a" height="200" width="200" x="0" y="0" /><text alignment-baseline="middle" fill="#e1ed5e" style="dominant-baseline: central; font-size:9.0px; font-family:Arial;" text-anchor="middle" x="100.0" y="100.0">2023</text><line stroke="#e1ed5e" stroke-width="0.3" x1="100.0" x2="100.0" y1="15.0" y2="10.0" /><path d="M 100.0 14.0 a86.0,86.0 0 0,1 42.46469731375804,11.215312516191453" fill="none" id="id25" stroke="none" /><text fill="#e1ed5e" style="font-size:6.75px; font-family:Arial;" text-anchor="middle"><textPath startOffset="22.20632615414155" xlink:href="#id25">January</textPath></text><line stroke="#e1ed5e" stroke-width="0.3" x1="143.23703022742887" x2="145.7803849466894" y1="26.81831364943548" y2="22.513508569990506" /><path d="M 143.74570117128098 25.957352633546492 a86.0,86.0 0 0,1 28.547481713284135,27.462654790039103" fill="none" id="id26" stroke="none" /><text fill="#e1ed5e" style="font-size:6.75px; font-family:Arial;" text-anchor="middle"><textPath startOffset="19.985693538727396" xlink:href="#id26">February</textPath></text><line stroke="#e1ed5e" stroke-width="0.3" x1="172.23445277983987" x2="176.4835382374775" y1="55.19839476539836" y2="52.563006222186495" /><path d="M 173.08426987136738 54.67131705675599 a86.0,86.0 0 0,1 12.851231095245387,41.99856678651699" fill="none" id="id27" stroke="none" /><text fill="#e1ed5e" style="font-size:6.75px; font-family:Arial;" text-anchor="middle"><textPath startOffset="22.20632615414155" xlink:href="#id27">March</textPath></text><line stroke="#e1ed5e" stroke-width="0.3" x1="184.98032266829074" x2="189.97916517819016" y1="98.17113171792111" y2="98.06355123074" /><path d="M 185.9800911702706 98.14961562048488 a86.0,86.0 0 0,1 -9.607161424134198,41.387399972396054" fill="none" id="id28" stroke="none" /><text fill="#e1ed5e" style="font-size:6.75px; font-family:Arial;" text-anchor="middle"><textPath startOffset="21.466115282336823" xlink:href="#id28">April</textPath></text><line stroke="#e1ed5e" stroke-width="0.3" x1="174.80103733775053" x2="179.2010983576182" y1="140.37084112569926" y2="142.7455964860345" /><path d="M 175.68104954172406 140.8457921977663 a86.0,86.0 0 0,1 -30.038265399797805,32.042727171017184" fill="none" id="id29" stroke="none" /><text fill="#e1ed5e" style="font-size:6.75px; font-family:Arial;" text-anchor="middle"><textPath startOffset="22.206326154141568" xlink:href="#id29">May</textPath></text><line stroke="#e1ed5e" stroke-width="0.3" x1="143.8653032363475" x2="146.44561519142675" y1="172.8068346515853" y2="177.08958963109032" /><path d="M 144.38136562736335 173.6633856474863 a86.0,86.0 0 0,1 -40.68145358897372,12.25698825130547" fill="none" id="id30" stroke="none" /><text fill="#e1ed5e" style="font-size:6.75px; font-family:Arial;" text-anchor="middle"><textPath startOffset="21.466115282336833" xlink:href="#id30">June</textPath></text><line stroke="#e1ed5e" stroke-width="0.3" x1="102.19456741930631" x2="102.32365962044197" y1="184.97166512339345" y2="189.96999836594603" /><path d="M 102.22038585953345 185.97133177190398 a86.0,86.0 0 0,1 -42.740103519485714,-10.115201625700543" fill="none" id="id31" stroke="none" /><text fill="#e1ed5e" style="font-size:6.75px; font-family:Arial;" text-anchor="middle"><textPath startOffset="22.20632615414155" xlink:href="#id31">July</textPath></text><line stroke="#e1ed5e" stroke-width="0.3" x1="58.666819895761336" x2="56.23545636021788" y1="174.27360380694188" y2="178.64263932499728" /><path d="M 58.180547188652646 175.14741091055294 a86.0,86.0 0 0,1 -31.652253787137756,-30.449443065178592" fill="none" id="id32" stroke="none" /><text fill="#e1ed5e" style="font-size:6.75px; font-family:Arial;" text-anchor="middle"><textPath startOffset="22.20632615414155" xlink:href="#id32">August</textPath></text><path d="M 84.43433777217949 114.09645910891817 l -9.824993742651156 8.897637666267878 a34.255129500813005,34.255129500813005 0 0,0 -0.39204367760335906,-0.44046522781386904 l 9.976696269902853 -8.727198268713146" fill="#ff930d" stroke="none" /><path d="M 83.72743513129214 113.27417163493432 l -9.642865890371649 7.866065240126536 a33.444269562397785,33.444269562397785 0 0,0 -0.3600547758317597,-0.4492236938027721 l 9.776838578258271 -7.6989137127455045" fill="#ff870c" stroke="none" /><path d="M 83.50135304334701 112.99209946851258 l -17.274910078568855 13.6033791522446 a42.988052268956494,42.988052268956494 0 0,0 -0.4527935287126915,-0.5852966730430658 l 17.506510424499616 -13.304004485088281" fill="#f9ff18" stroke="none" /><path d="M 83.06392112726016 112.41649034213515 l -17.945292111287298 13.156383355372647 a43.251380450501415,43.251380450501415 0 0,0 -0.43502693137126197,-0.6042143591440347 l 18.16909883503417 -12.845535390777474" fill="#f6ff19" stroke="none" /><path d="M 82.6465618267979 111.8261652097733 l -14.072439984793613 9.590203307479795 a38.0295498062754,38.0295498062754 0 0,0 -0.3639914958899674,-0.5441178993408063 l 14.23543458609431 -9.346548493933167" fill="#ffc512" stroke="none" /><path d="M 82.44556493220864 111.52570212397912 l -21.261039363738657 13.959344496494658 a46.43413245224339,46.43413245224339 0 0,0 -0.43293225273596914,-0.6719204704106323 l 21.498176479851672 -13.591302426162578" fill="#cfff1d" stroke="none" /><line stroke="#e1ed5e" stroke-width="0.3" x1="26.63291911575756" x2="22.317208475507996" y1="142.92168965132927" y2="145.44649492493687" /><path d="M 25.769776987707644 143.4266507060508 a86.0,86.0 0 0,1 -11.730757126820373,-40.83630448921669" fill="none" id="id33" stroke="none" /><text fill="#e1ed5e" style="font-size:6.75px; font-family:Arial;" text-anchor="middle"><textPath startOffset="21.46611528233685" xlink:href="#id33">September</textPath></text><path d="M 81.69416730710424 110.29060199501025 l -34.35152824622955 19.31067059514252 a60.40722638914858,60.40722638914858 0 0,0 -0.501735491517638,-0.9107956560295948 l 34.6788401471987 -18.7165044207151" fill="#35ff2f" stroke="none" /><path d="M 81.51974371655577 109.97397251340807 l -6.916400166937321 3.732847861994423 a28.85943664838689,28.85943664838689 0 0,0 -0.2321775921803698,-0.4391925059951248 l 6.979630267342577 -3.613240340913172" fill="#ff4706" stroke="none" /><path d="M 81.18737489456691 109.33194174019688 l -20.111587518365415 9.976287837153293 a43.44999491132691,43.44999491132691 0 0,0 -0.326592390326666,-0.6728770575436043 l 20.2803331653068 -9.628621823644405" fill="#f3ff19" stroke="none" /><path d="M 81.02952815118164 109.00673069616217 l -20.72713088787138 9.840750799395128 a43.9445926339682,43.9445926339682 0 0,0 -0.31854678340588277,-0.6861214322040401 l 20.89345228811709 -9.48250929991226" fill="#edff1a" stroke="none" /><path d="M 80.73074385275274 108.34839909993369 l -15.205996040487612 6.58799295042518 a37.57178224266107,37.57178224266107 0 0,0 -0.2519975554159586,-0.5956477821288442 l 15.317144577095878 -6.325270642630177" fill="#ffbf11" stroke="none" /><path d="M 80.58989483394504 108.01547362559985 l -2.8515154249681816 1.1775436807934136 a24.085084980840556,24.085084980840556 0 0,0 -0.15494438172858155,-0.3845592485540758 l 2.871362420954151 -1.1282850643965323" fill="#ff0000" stroke="none" /><path d="M 80.45479744820244 107.68017299344265 l -36.48434417263892 14.336309590836029 a60.199963550899746,60.199963550899746 0 0,0 -0.3706761740663613,-0.9677185224898401 l 36.72571462629879 -13.70616750151303" fill="#37ff2e" stroke="none" /><path d="M 80.0844068197444 106.66101706037122 l -30.396536631645034 10.166498544483115 a53.051632280648604,53.051632280648604 0 0,0 -0.2822037343802352,-0.8685337874314316 l 30.56703261704152 -9.64176585707388" fill="#82ff25" stroke="none" /><path d="M 79.76711848015287 105.62410040840567 l -13.731745374478152 3.8169904120166476 a35.2523768836966,35.2523768836966 0 0,0 -0.15748063280877736,-0.5860440189148344 l 13.795414083628705 -3.580055459926274" fill="#ffa00e" stroke="none" /><path d="M 79.67330655649465 105.27499134158121 l -8.861088767504521 2.2995459962773053 a30.15460572250874,30.15460572250874 0 0,0 -0.12605872401570234,-0.5035419400396148 l 8.899358805815282 -2.146676216840299" fill="#ff5908" stroke="none" /><path d="M 79.58551787078972 104.9243191809786 l -28.56970311181325 6.891496739320341 a50.389124913906755,50.389124913906755 0 0,0 -0.19613231208177626,-0.8449328671887807 l 28.684095989825583 -6.398695214782986" fill="#a0ff22" stroke="none" /><path d="M 79.4281124754447 104.21870165774334 l -19.179887646589933 3.9332425725844584 a40.57903182669163,40.57903182669163 0 0,0 -0.13443266495073816,-0.6854692623519728 l 19.24475024451634 -3.6025095831645304" fill="#ffe715" stroke="none" /><path d="M 79.35854240842038 103.8639653848113 l -18.66977914487704 3.494878209923746 a39.99407347097208,39.99407347097208 0 0,0 -0.12084601176576429,-0.677768610957961 l 18.727171598981993 -3.1729908482325713" fill="#ffdf14" stroke="none" /><path d="M 79.29508885075956 103.50808413554451 l -17.86169614932853 3.0263512093204312 a39.11626316250382,39.11626316250382 0 0,0 -0.10676550382937083,-0.6648288942611349 l 17.91114340751919 -2.7184430853660824" fill="#ffd413" stroke="none" /><path d="M 79.10278846688536 102.07522291339032 l -22.73079399673211 2.2573090417744726 a43.842601424355095,43.842601424355095 0 0,0 -0.06811345579680271,-0.7516263089149988 l 22.76628204880599 -1.8657013443109076" fill="#eeff19" stroke="none" /><path d="M 79.07016306316243 101.71520430193888 l -9.02177439136818 0.7393362066744713 a30.052018073073345,30.052018073073345 0 0,0 -0.03781322555105655,-0.5159314198965618 l 9.03316417558357 -0.5839316502811489" fill="#ff5808" stroke="none" /><path d="M 79.04373962182676 101.35467743843564 l -16.773856905878805 1.0843139518159908 a37.80886707202484,37.80886707202484 0 0,0 -0.03639310344446997,-0.6498233095051197 l 16.790036360210806 -0.7954189259754334" fill="#ffc212" stroke="none" /><path d="M 79.0235259727143 100.99374915477108 l -20.163295386238545 0.9552252547978345 a41.18590934588066,41.18590934588066 0 0,0 -0.027453089877434392,-0.7084422646738557 l 20.17675060896718 -0.608005743109982" fill="#ffee16" stroke="none" /><path d="M 79.0095281055655 100.63252640178507 l -7.597878446282422 0.22895429597757855 a28.601327315287087,28.601327315287087 0 0,0 -0.010593301475423188,-0.4922290939840346 l 7.600693810442853 -0.09813538620341514" fill="#ff4306" stroke="none" /><line stroke="#e1ed5e" stroke-width="0.3" x1="15.007084014347285" x2="10.007500721073583" y1="101.09737516637583" y2="101.16192664675087" /><path d="M 14.007167355692545 101.11028546245083 a86.0,86.0 0 0,1 10.666146001902534,-42.60595125391555" fill="none" id="id34" stroke="none" /><text fill="#e1ed5e" style="font-size:6.75px; font-family:Arial;" text-anchor="middle"><textPath startOffset="22.20632615414155" xlink:href="#id34">October</textPath></text><path d="M 79.00175016825051 100.2711162175752 l -18.80686405629174 0.24282242035635715 a39.80843157628158,39.80843157628158 0 0,0 -0.002949051662088337,-0.6852557477334911 l 18.80825740524333 0.08094280558080931" fill="#ffdd14" stroke="none" /><path d="M 79.00019446554 99.90962569577889 l -22.478266756233946 -0.09673697762857017 a43.47847491284168,43.47847491284168 0 0,0 0.009662558711943577,-0.7483758207533167 l 22.473271190404287 0.4836490564423588" fill="#f3ff19" stroke="none" /><path d="M 79.05617556472873 98.46500227214037 l -17.120809498426613 -1.2548044298415686 a38.16673096540413,38.16673096540413 0 0,0 0.05366154441314007,-0.6548067615480971 l 17.096673470193974 1.549325108597444" fill="#ffc712" stroke="none" /><path d="M 79.08570108090925 98.10471618934814 l -12.823544612706378 -1.1620880333430186 a33.876091993742115,33.876091993742115 0 0,0 0.05762625603189091,-0.5802885340122276 l 12.801641230992258 1.3826520980596766" fill="#ff8d0d" stroke="none" /><path d="M 79.12142395522702 97.74499172005258 l -16.297917061498687 -1.7602703288176056 a37.392701186015856,37.392701186015856 0 0,0 0.07462451937848603,-0.6393373096088744 l 16.265202189116614 2.0405513767513415" fill="#ffbd11" stroke="none" /><path d="M 79.26566170972629 96.67025291283419 l -10.914129473401825 -1.752710422403864 a32.05396833661928,32.05396833661928 0 0,0 0.09217521327324531,-0.5440233264783605 l 10.882342398608358 1.9403195371980526" fill="#ff740a" stroke="none" /><path d="M 79.46518482838121 95.60439243477599 l -10.28215838616202 -2.2009612850818927 a31.515084957172306,31.515084957172306 0 0,0 0.11811495620176717,-0.5294861886370513 l 10.242749042958216 2.3776256432689036" fill="#ff6d0a" stroke="none" /><path d="M 79.54389044137918 95.25157060432595 l -16.956550841234684 -3.9360849252896166 a38.4073944337017,38.4073944337017 0 0,0 0.15503272740110774,-0.6427107436897835 l 16.88628531357276 4.227380900638797" fill="#ffca12" stroke="none" /><path d="M 79.62865764111835 94.90015583598534 l -18.22556437096744 -4.562661431715997 a39.788003512367844,39.788003512367844 0 0,0 0.17204269840381406,-0.6629506975834224 l 18.144325340693317 4.875708554848283" fill="#ffdc14" stroke="none" /><path d="M 79.81627453868168 94.20196356495316 l -23.295120593283286 -6.691824966481914 a45.237226838845274,45.237226838845274 0 0,0 0.22143429285968155,-0.7465663546392629 l 23.176480403311896 7.091820707867715" fill="#ddff1b" stroke="none" /><path d="M 80.2630227832202 92.82701384747504 l -14.026101565711864 -5.097489407811898 a35.923669903693906,35.923669903693906 0 0,0 0.21621843047662323,-0.5793578966369768 l 13.936278546733613 5.3381704414782165" fill="#ffa90f" stroke="none" /><path d="M 80.52162464483688 92.15188598940014 l -8.851149833761628 -3.566253948476774 a30.54258982691411,30.54258982691411 0 0,0 0.20067690583068218,-0.48595504501838105 l 8.788451241044745 3.7180835639484666" fill="#ff5f08" stroke="none" /><path d="M 80.65960295795068 91.81776055985345 l -17.872016029865247 -7.561019255011098 a40.40561694835825,40.40561694835825 0 0,0 0.27650773952462443,-0.638217985965554 l 17.739217580497943 7.867536385563252" fill="#ffe415" stroke="none" /><path d="M 80.95270993114464 91.15688171328213 l -15.78239069117252 -7.327317808712343 a38.40038626578968,38.40038626578968 0 0,0 0.2835078687534491,-0.5971398751155601 l 15.65392462857732 7.597900099468435" fill="#ffca12" stroke="none" /><path d="M 81.26839172434947 90.50648371742162 l -20.008484279946337 -10.140660028018194 a43.43150527683565,43.43150527683565 0 0,0 0.34370983241270553,-0.6639379955789725 l 19.83096501437352 10.483570745857502" fill="#f3ff19" stroke="none" /><line stroke="#e1ed5e" stroke-width="0.3" x1="26.266209847984243" x2="21.928928074336255" y1="57.711370442889674" y2="55.22380399835377" /><path d="M 25.398753493254645 57.213857153982495 a86.0,86.0 0 0,1 29.58750427330803,-30.492523968695096" fill="none" id="id35" stroke="none" /><text fill="#e1ed5e" style="font-size:6.75px; font-family:Arial;" text-anchor="middle"><textPath startOffset="21.46611528233685" xlink:href="#id35">November</textPath></text><path d="M 81.78341655067845 89.55222093294921 l -14.994996315065052 -8.600098314092763 a38.28616803981946,38.28616803981946 0 0,0 0.33279855129868974,-0.5688606024048626 l 14.844738089296039 8.856938328851518" fill="#ffc912" stroke="none" /><path d="M 81.96595687620814 89.24020034530311 l -15.495745589110419 -9.245354294346617 a39.04424305396124,39.04424305396124 0 0,0 0.3493236398910679,-0.5741962155142412 l 15.334306150933134 9.510718283067932" fill="#ffd313" stroke="none" /><path d="M 82.7489923806493 88.02491185347247 l -14.723827912032927 -10.220802227408262 a38.9236130999013,38.9236130999013 0 0,0 0.38680318312313566,-0.547105671353781 l 14.545712109105914 10.472734399093829" fill="#ffd113" stroke="none" /><path d="M 82.95767976084542 87.72973835380427 l -15.182338106626847 -10.931097312754211 a39.7080805761798,39.7080805761798 0 0,0 0.40414768592622907,-0.5512569894130767 l 14.991927808186984 11.19081674583879" fill="#ffdb14" stroke="none" /><path d="M 83.84228863543731 86.58626213691792 l -12.257591281810072 -10.175953300391846 a36.93105676355658,36.93105676355658 0 0,0 0.41026778931630037,-0.4856276574283456 l 12.080612879006647 10.385439907449307" fill="#ffb711" stroke="none" /><path d="M 84.07557802195018 86.31012108654704 l -17.020343271320108 -14.632018592006146 a43.44522339274852,43.44522339274852 0 0,0 0.4923960312453501,-0.5628937829740411 l 16.765955376496915 14.92282793118313" fill="#f3ff19" stroke="none" /><path d="M 85.31137513191541 84.99185889309783 l -7.203112761843431 -7.359799416864754 a31.298129971811118,31.298129971811118 0 0,0 0.38827082386918554,-0.3735162249355819 l 7.075358694361817 7.482698728562649" fill="#ff6909" stroke="none" /><path d="M 85.83668400450813 84.49514656593479 l -42.48994798647562 -46.514560302195655 a84.0,84.0 0 0,0 1.0759560496161145,-0.9660039649228849 l 41.68298094926353 47.23906327588782" fill="#4dd2ff" stroke="none" /><path d="M 87.80319425747018 82.90503203632743 l -5.331633431397156 -7.472784647701963 a30.179805305000862,30.179805305000862 0 0,0 0.4254905030589814,-0.29808328869954065 l 5.202211788754514 7.563452779165447" fill="#ff5a08" stroke="none" /><path d="M 88.39885842347998 82.49532879139004 l -5.350824633870595 -8.07372492551995 a30.685884494221398,30.685884494221398 0 0,0 0.4428016592725588,-0.2880105165203467 l 5.211055948813749 8.16463436619983" fill="#ff6108" stroke="none" /><path d="M 89.00827224532344 82.1063720568725 l -6.138511584618625 -9.992991536113227 a32.72779622586135,32.72779622586135 0 0,0 0.48256034288692984,-0.29073720718484947 l 5.965589175514046 10.097175352756697" fill="#ff7e0b" stroke="none" /><line stroke="#e1ed5e" stroke-width="0.3" x1="56.762969772571076" x2="54.21961505331055" y1="26.818313649435495" y2="22.513508569990535" /><path d="M 56.25429882871897 25.957352633546506 a86.0,86.0 0 0,1 42.265352541879196,-11.944610805530505" fill="none" id="id36" stroke="none" /><text fill="#e1ed5e" style="font-size:6.75px; font-family:Arial;" text-anchor="middle"><textPath startOffset="22.20632615414155" xlink:href="#id36">December</textPath></text><path d="M 89.63071344664047 81.73862282372117 l -8.058532397463853 -14.191902098575131 a37.32023374760655,37.32023374760655 0 0,0 0.5613601348128289,-0.31239630725161904 l 7.81304817357898 14.328513803386935" fill="#ffbc11" stroke="none" /><path d="M 90.91171255644093 81.06846463323043 l -3.519077169085529 -7.330482700802906 a29.131413207355145,29.131413207355145 0 0,0 0.45392538748004574,-0.21312405589681524 l 3.392373570305875 7.389971739339729" fill="#ff4b06" stroke="none" /><path d="M 91.90106846888425 80.62456947434976 l -1.3079797329409546 -3.1291375099530767 a24.391505939546565,24.391505939546565 0 0,0 0.38877288014271716,-0.1585902193158908 l 1.253922983209857 3.1511886154525444" fill="#ff0500" stroke="none" /><path d="M 92.57280143429618 80.3572730644239 l -5.291435331156811 -13.994269627733269 a35.96124561249873,35.96124561249873 0 0,0 0.5808900047139623,-0.21394669106856276 l 5.049763000670279 14.083279586608155" fill="#ffaa0f" stroke="none" /><path d="M 93.25333710446033 80.11325718540243 l -5.440370917341632 -16.036262508493845 a37.93397032475202,37.93397032475202 0 0,0 0.6201611253825742,-0.20445737262473435 l 5.163526969716648 16.127533605377813" fill="#ffc412" stroke="none" /><path d="M 94.28887869178378 79.79150937346287 l -2.8514716941719818 -10.089776752003237 a31.48496474614622,31.48496474614622 0 0,0 0.5228035078427558,-0.1429019477103485 l 2.6773702971055036 10.137365240539882" fill="#ff6c0a" stroke="none" /><path d="M 97.47563105711357 79.15227682838746 l -1.841426430651995 -15.20758230499691 a36.31866217601129,36.31866217601129 0 0,0 0.6212796541716883,-0.06980800809324449 l 1.5793800729705887 15.237026266560752" fill="#ffaf10" stroke="none" /><path d="M 98.55514903715128 79.0497635885617 l -1.1012146711333612 -15.967534571525112 a37.005462631388355,37.005462631388355 0 0,0 0.6358559675072413,-0.03835656840736037 l 0.8261966547864971 15.984124409312779" fill="#ffb811" stroke="none" /></svg>