<?xml version="1.0" encoding="utf-8" ?>
<svg baseProfile="full" height="200mm" version="1.1" viewBox="0,0,200,200" width="200mm" xmlns="http://www.w3.org/2000/svg" xmlns:ev="http://www.w3.org/2001/xml-events" xmlns:xlink="http://www.w3.org/1999/xlink"><defs /><rect fill="#1a1a1a" height="200" width="200" x="0" y="0" /><text alignment-baseline="middle" fill="#e1ed5e" style="dominant-baseline: central; font-size:9.0px; font-family:Arial;" text-anchor="middle" x="100.0" y="100.0">2022</text><line stroke="#e1ed5e" stroke-width="0.3" x1="100.0" x2="100.0" y1="15.0" y2="10.0" /><path d="M 100.0 14.0 a86.0,86.0 0 0,1 42.46469731375804,11.215312516191453" fill="none" id="id13" stroke="none" /><text fill="#e1ed5e" style="font-size:6.75px; font-family:Arial;" text-anchor="middle"><textPath startOffset="22.20632615414155" xlink:href="#id13">January</textPath></text><path d="M 100.36148047927253 79.00311137660856 l 0.781426311047148 -45.38978495730775 a66.39651094027202,66.39651094027202 0 0,0 1.1425681223717559,0.0295091636965548 l -1.5626210686137716 45.36960900146884" fill="red" stroke="none" /><line stroke="#e1ed5e" stroke-width="0.3" x1="143.23703022742887" x2="145.7803849466894" y1="26.81831364943548" y2="22.513508569990506" /><path d="M 143.74570117128098 25.957352633546492 a86.0,86.0 0 0,1 28.547481713284135,27.462654790039103" fill="none" id="id14" stroke="none" /><text fill="#e1ed5e" style="font-size:6.75px; font-family:Arial;" text-anchor="middle"><textPath startOffset="19.985693538727396" xlink:href="#id14">February</textPath></text><path d="M 116.38621287248628 86.86637796730983 l 6.137158379208347 -4.918959562805308 a28.865168539325843,28.865168539325843 0 0,0 0.3074084360375101,0.3903774959521907 l -6.220920895839821 4.812589672900079" fill="red" stroke="none" /><line stroke="#e1ed5e" stroke-width="0.3" x1="172.23445277983987" x2="176.4835382374775" y1="55.19839476539836" y2="52.563006222186495" /><path d="M 173.08426987136738 54.67131705675599 a86.0,86.0 0 0,1 12.851231095245387,41.99856678651699" fill="none" id="id15" stroke="none" /><text fill="#e1ed5e" style="font-size:6.75px; font-family:Arial;" text-anchor="middle"><textPath startOffset="22.20632615414155" xlink:href="#id15">March</textPath></text><path d="M 117.84615892207809 88.93136811851018 l 9.018648286333043 -5.593590104510034 a31.612458111571065,31.612458111571065 0 0,0 0.2828324503096531,0.4649021825235406 l -9.11359653492892 5.437520148779412" fill="red" stroke="none" /><path d="M 118.73160827565052 90.50648371742162 l 28.562656380109328 -14.476068441530684 a53.021584861028984,53.021584861028984 0 0,0 0.40558984310787943,0.8176443742777846 l -28.807606236170617 13.98226447875395" fill="red" stroke="none" /><path d="M 118.89224826269711 90.83032412892265 l 6.774098085914855 -3.287924385864319 a28.529863985807218,28.529863985807218 0 0,0 0.21063436389564685,0.4436496888242452 l -6.829690643652258 3.1708322813995333" fill="red" stroke="none" /><path d="M 119.04729006885535 91.15688171328212 l 7.696386771694989 -3.5732147909962304 a29.485412970628822,29.485412970628822 0 0,0 0.20976439910432487,0.4621880481016087 l -7.756753487762661 3.4402047340525588" fill="red" stroke="none" /><path d="M 119.34039704204932 91.81776055985345 l 6.449976029103184 -2.7287572296776266 a28.003449635324266,28.003449635324266 0 0,0 0.1839937496213987,0.44555545896152443 l -6.49599146561078 2.617327200262799" fill="red" stroke="none" /><path d="M 119.47837535516314 92.15188598940014 l 7.431578060303218 -2.994288323973193 a29.01212300413956,29.01212300413956 0 0,0 0.18264713298917848,0.46481703118231715 l -7.482018743174097 2.865922287895091" fill="red" stroke="none" /><path d="M 119.61058180528143 92.48833698450437 l 16.441370559464378 -6.297724176766971 a38.60624876798738,38.60624876798738 0 0,0 0.23236441425897086,0.6226211058955778 l -16.547339562224973 6.01377993384206" fill="red" stroke="none" /><path d="M 119.97218684219823 93.5106431181261 l 13.085135357353211 -4.251618205477668 a34.7585255273014,34.7585255273014 0 0,0 0.1799904306379451,0.5706188519428677 l -13.156381271759363 4.0257491871083815" fill="red" stroke="none" /><path d="M 120.6074358757038 95.95851677861258 l 12.541301733410121 -2.4595714302181735 a33.780208949339645,33.780208949339645 0 0,0 0.10699362592566758,0.5715642279807478 l -12.581781083245646 2.243329124774863" fill="red" stroke="none" /><line stroke="#e1ed5e" stroke-width="0.3" x1="184.98032266829074" x2="189.97916517819016" y1="98.17113171792111" y2="98.06355123074" /><path d="M 185.9800911702706 98.14961562048488 a86.0,86.0 0 0,1 -9.607161424134198,41.387399972396054" fill="none" id="id16" stroke="none" /><text fill="#e1ed5e" style="font-size:6.75px; font-family:Arial;" text-anchor="middle"><textPath startOffset="21.466115282336823" xlink:href="#id16">April</textPath></text><line stroke="#e1ed5e" stroke-width="0.3" x1="174.80103733775053" x2="179.2010983576182" y1="140.37084112569926" y2="142.7455964860345" /><path d="M 175.68104954172406 140.8457921977663 a86.0,86.0 0 0,1 -30.038265399797805,32.042727171017184" fill="none" id="id17" stroke="none" /><text fill="#e1ed5e" style="font-size:6.75px; font-family:Arial;" text-anchor="middle"><textPath startOffset="22.206326154141568" xlink:href="#id17">May</textPath></text><path d="M 115.07121518719521 114.62390073753431 l 24.73148880248459 23.997456930099354 a55.460477035284846,55.460477035284846 0 0,0 -0.6707003848572743,0.6794159488425748 l -24.314747792571783 -24.419613372922594" fill="red" stroke="none" /><path d="M 114.81725581225074 114.88116024355365 l 24.910105695797448 25.017538958633423 a56.30425783560025,56.30425783560025 0 0,0 -0.6926765568225183,0.6779297999405948 l -24.475779186599134 -25.442618861496587" fill="red" stroke="none" /><path d="M 114.0293411484842 115.62618273729858 l 22.80655198660053 25.402429463968424 a55.13828109599843,55.13828109599843 0 0,0 -0.7116977494598338,0.6279905162198716 l -22.36591188423411 -25.791243121960587" fill="red" stroke="none" /><path d="M 113.75828350139079 115.86535959552629 l 22.933636573035827 26.445914639536667 a56.00482948945397,56.00482948945397 0 0,0 -0.7337553367126023,0.6253222164285528 l -22.475015759746178 -26.836761246188168" fill="red" stroke="none" /><path d="M 113.20401910651253 116.32954008644616 l 30.13828856774288 37.27231741592243 a68.93268283067218,68.93268283067218 0 0,0 -0.929089494386336,0.7381248850123479 l -29.49224158063919 -37.7855762149399" fill="red" stroke="none" /><path d="M 112.63410532772338 116.77436683061366 l 20.680782700850557 27.457981896592912 a55.374926079243046,55.374926079243046 0 0,0 -0.7663231324090016,0.5669075331575221 l -20.205074598022993 -27.8098993784902" fill="red" stroke="none" /><path d="M 112.04921762599082 117.19931262002967 l 23.310275967753125 33.27358971123094 a61.62635521387739,61.62635521387739 0 0,0 -0.8740469345827648,0.6011774515914875 l -22.734072148547476 -33.66990795218752" fill="red" stroke="none" /><path d="M 111.7513745106137 117.40417183066458 l 23.296198480351592 34.50243552250909 a62.63088902030358,62.63088902030358 0 0,0 -0.8986795953441357,0.5955958322935544 l -22.698844186267493 -34.898329375893965" fill="red" stroke="none" /><path d="M 111.1453310114006 117.79835938074945 l 25.63924117055265 40.94417905905308 a69.30938300808201,69.30938300808201 0 0,0 -1.016606266968927,0.6244826010542074 l -24.930655703651414 -41.379450126935666" fill="red" stroke="none" /><line stroke="#e1ed5e" stroke-width="0.3" x1="143.8653032363475" x2="146.44561519142675" y1="172.8068346515853" y2="177.08958963109032" /><path d="M 144.38136562736335 173.6633856474863 a86.0,86.0 0 0,1 -40.68145358897372,12.25698825130547" fill="none" id="id18" stroke="none" /><text fill="#e1ed5e" style="font-size:6.75px; font-family:Arial;" text-anchor="middle"><textPath startOffset="21.466115282336833" xlink:href="#id18">June</textPath></text><path d="M 109.89434966115114 118.52300852407294 l 22.91063026867509 42.89051977057166 a69.6260595308496,69.6260595308496 0 0,0 -1.0619933470934726,0.5555847262940099 l -22.16894601905512 -43.278533915810385" fill="red" stroke="none" /><path d="M 109.2508944713604 118.85261126421891 l 27.752683414081186 56.55783379265672 a84.0,84.0 0 0,0 -1.303549327999069,0.6257828940017598 l -26.775021418081884 -57.02717096315804" fill="red" stroke="none" /><line stroke="#e1ed5e" stroke-width="0.3" x1="102.19456741930631" x2="102.32365962044197" y1="184.97166512339345" y2="189.96999836594603" /><path d="M 102.22038585953345 185.97133177190398 a86.0,86.0 0 0,1 -42.740103519485714,-10.115201625700543" fill="none" id="id19" stroke="none" /><text fill="#e1ed5e" style="font-size:6.75px; font-family:Arial;" text-anchor="middle"><textPath startOffset="22.20632615414155" xlink:href="#id19">July</textPath></text><line stroke="#e1ed5e" stroke-width="0.3" x1="58.666819895761336" x2="56.23545636021788" y1="174.27360380694188" y2="178.64263932499728" /><path d="M 58.180547188652646 175.14741091055294 a86.0,86.0 0 0,1 -31.652253787137756,-30.449443065178592" fill="none" id="id20" stroke="none" /><text fill="#e1ed5e" style="font-size:6.75px; font-family:Arial;" text-anchor="middle"><textPath startOffset="22.20632615414155" xlink:href="#id20">August</textPath></text><line stroke="#e1ed5e" stroke-width="0.3" x1="26.63291911575756" x2="22.317208475507996" y1="142.92168965132927" y2="145.44649492493687" /><path d="M 25.769776987707644 143.4266507060508 a86.0,86.0 0 0,1 -11.730757126820373,-40.83630448921669" fill="none" id="id21" stroke="none" /><text fill="#e1ed5e" style="font-size:6.75px; font-family:Arial;" text-anchor="middle"><textPath startOffset="21.46611528233685" xlink:href="#id21">September</textPath></text><line stroke="#e1ed5e" stroke-width="0.3" x1="15.007084014347285" x2="10.007500721073583" y1="101.09737516637583" y2="101.16192664675087" /><path d="M 14.007167355692545 101.11028546245083 a86.0,86.0 0 0,1 10.666146001902534,-42.60595125391555" fill="none" id="id22" stroke="none" /><text fill="#e1ed5e" style="font-size:6.75px; font-family:Arial;" text-anchor="middle"><textPath startOffset="22.20632615414155" xlink:href="#id22">October</textPath></text><line stroke="#e1ed5e" stroke-width="0.3" x1="26.266209847984243" x2="21.928928074336255" y1="57.711370442889674" y2="55.22380399835377" /><path d="M 25.398753493254645 57.213857153982495 a86.0,86.0 0 0,1 29.58750427330803,-30.492523968695096" fill="none" id="id23" stroke="none" /><text fill="#e1ed5e" style="font-size:6.75px; font-family:Arial;" text-anchor="middle"><textPath startOffset="21.46611528233685" xlink:href="#id23">November</textPath></text><line stroke="#e1ed5e" stroke-width="0.3" x1="56.762969772571076" x2="54.21961505331055" y1="26.818313649435495" y2="22.513508569990535" /><path d="M 56.25429882871897 25.957352633546506 a86.0,86.0 0 0,1 42.265352541879196,-11.944610805530505" fill="none" id="id24" stroke="none" /><text fill="#e1ed5e" style="font-size:6.75px; font-family:Arial;" text-anchor="middle"><textPath startOffset="22.20632615414155" xlink:href="#id24">December</textPath></text></svg>