<?xml version="1.0" encoding="utf-8" ?>
<svg baseProfile="full" height="200mm" version="1.1" viewBox="0,0,200,200" width="200mm" xmlns="http://www.w3.org/2000/svg" xmlns:ev="http://www.w3.org/2001/xml-events" xmlns:xlink="http://www.w3.org/1999/xlink"><defs /><rect fill="#1a1a1a" height="200" width="200" x="0" y="0" /><text alignment-baseline="middle" fill="#e1ed5e" style="dominant-baseline: central; font-size:9.0px; font-family:Arial;" text-anchor="middle" x="100.0" y="100.0">2023</text><line stroke="#e1ed5e" stroke-width="0.3" x1="100.0" x2="100.0" y1="15.0" y2="10.0" /><path d="M 100.0 14.0 a86.0,86.0 0 0,1 42.46469731375804,11.215312516191453" fill="none" id="id25" stroke="none" /><text fill="#e1ed5e" style="font-size:6.75px; font-family:Arial;" text-anchor="middle"><textPath startOffset="22.20632615414155" xlink:href="#id25">January</textPath></text><line stroke="#e1ed5e" stroke-width="0.3" x1="143.23703022742887" x2="145.7803849466894" y1="26.81831364943548" y2="22.513508569990506" /><path d="M 143.74570117128098 25.957352633546492 a86.0,86.0 0 0,1 28.547481713284135,27.462654790039103" fill="none" id="id26" stroke="none" /><text fill="#e1ed5e" style="font-size:6.75px; font-family:Arial;" text-anchor="middle"><textPath startOffset="19.985693538727396" xlink:href="#id26">February</textPath></text><path d="M 112.48926042617603 83.11751280151076 l 8.879672703603907 -12.003189590888145 a35.93067807160592,35.93067807160592 0 0,0 0.49405340434502554,0.37211078135144376 l -9.084972261707316 11.848562220030853" fill="#ffb610" stroke="none" /><path d="M 113.6212207817346 84.01681056812373 l 10.379004838383405 -12.178761588586255 a37.001436662587835,37.001436662587835 0 0,0 0.4812058005491293,0.4172969283555051 l -10.587104437579299 11.998299666811079" fill="#ffc312" stroke="none" /><path d="M 113.89432698308785 84.25364557470407 l 12.920918072230984 -14.643196155755414 a40.528781771662956,40.528781771662956 0 0,0 0.5191331896522504,0.4660829033918778 l -13.171062249479224 14.418614243594238" fill="#fff016" stroke="none" /><path d="M 114.42810811169701 84.74124197986012 l 4.613878858999956 -4.879507451614102 a27.71546506921779,27.71546506921779 0 0,0 0.3438258600764735,0.3307602049806955 l -4.697187962688848 4.7993641598711045" fill="#ff4506" stroke="none" /><path d="M 114.68862486808459 84.99185889309783 l 10.770668581541342 -11.00495896240622 a36.39858511219933,36.39858511219933 0 0,0 0.4440006871575308,0.44209400710392266 l -10.958505068866195 10.81792910465218" fill="#ffbc11" stroke="none" /><path d="M 115.19652480421416 85.50635884689758 l 11.560892912352557 -11.02616785349615 a36.97593886018457,36.97593886018457 0 0,0 0.43531716128856474,0.46436599605132717 l -11.748977395611584 10.825532440566768" fill="#ffc312" stroke="none" /><path d="M 115.4437574822437 85.77008943001954 l 15.221846243673207 -14.025441088834945 a41.69825115323533,41.69825115323533 0 0,0 0.4818259913105847,0.5320442939163676 l -15.461015875599829 13.76134400764903" fill="#ffff18" stroke="none" /><path d="M 115.9244219780498 86.31012108654704 l 11.160667667116096 -9.59458303520918 a35.71789816500082,35.71789816500082 0 0,0 0.39679078811631724,0.46967513887256823 l -11.32416906871953 9.401048946707505" fill="#ffb310" stroke="none" /><path d="M 116.15771136456269 86.58626213691792 l 2.3330966230837373 -1.9368799086190542 a24.03230005656711,24.03230005656711 0 0,0 0.2614960381808471,0.32056322317012287 l -2.366091153340993 1.8964325158408306" fill="#ff1001" stroke="none" /><path d="M 116.38621287248628 86.86637796730983 l 11.83452801249406 -9.485426502200538 a36.166719131280665,36.166719131280665 0 0,0 0.3851685310483397,0.48912491995466045 l -11.996050624136362 9.280309188292838" fill="#ffb911" stroke="none" /><path d="M 116.82858285166822 87.43820079747576 l 7.2237038514018685 -5.392178181588002 a30.014293254312946,30.014293254312946 0 0,0 0.30548460130603505,0.4166806528709318 l -7.31545106522153 5.267035085045576" fill="#ff6609" stroke="none" /><path d="M 117.04232023915458 87.72973835380427 l 6.22395391683932 -4.481170519142393 a28.66932145502915,28.66932145502915 0 0,0 0.28490121840239835,0.4029725689044648 l -6.300167755045601 4.373371449906135" fill="#ff5307" stroke="none" /><path d="M 117.2510076193507 88.02491185347247 l 20.23528041695723 -14.046673215247571 a45.63281555098496,45.63281555098496 0 0,0 0.4423678480396141,0.649120231672722 l -20.47407273066558 13.696274960304443" fill="#d0ff1d" stroke="none" /><path d="M 117.65298651832404 88.62581576622439 l 15.01790933915858 -9.676349520372613 a38.865311107271594,38.865311107271594 0 0,0 0.3575097890114482,0.5654946300545727 l -15.182246724415984 9.416407242603833" fill="#ffdb14" stroke="none" /><line stroke="#e1ed5e" stroke-width="0.3" x1="172.23445277983987" x2="176.4835382374775" y1="55.19839476539836" y2="52.563006222186495" /><path d="M 173.08426987136738 54.67131705675599 a86.0,86.0 0 0,1 12.851231095245387,41.99856678651699" fill="none" id="id27" stroke="none" /><text fill="#e1ed5e" style="font-size:6.75px; font-family:Arial;" text-anchor="middle"><textPath startOffset="22.20632615414155" xlink:href="#id27">March</textPath></text><path d="M 118.03404312379186 89.2402003453031 l 13.636455876816004 -8.136030962523487 a36.879166499016584,36.879166499016584 0 0,0 0.32056833609492796,0.5479552001391281 l -13.77448388738126 7.900096350030462" fill="#ffc212" stroke="none" /><path d="M 118.3937258080291 89.86733742301442 l 10.62647795168705 -5.853871944705216 a33.13218242537994,33.13218242537994 0 0,0 0.27088225607876454,0.501903680629117 l -10.725668306984279 5.67008728074364" fill="#ff900d" stroke="none" /><path d="M 118.56541770881063 90.18545643968196 l 3.265525973411022 -1.7263089587358214 a24.69375181949648,24.69375181949648 0 0,0 0.19542231487073944,0.3774937106567434 l -3.2947577214418775 1.669842525818733" fill="#ff1a02" stroke="none" /><path d="M 118.73160827565052 90.50648371742162 l 14.228559917734975 -7.211290310413464 a36.95163393742589,36.95163393742589 0 0,0 0.2826623808123095,0.5698301114253415 l -14.350582311500691 6.965300610489172" fill="#ffc312" stroke="none" /><path d="M 119.04729006885535 91.15688171328212 l 8.208411998965971 -3.810933628383212 a30.049930533695303,30.049930533695303 0 0,0 0.21378047605459297,0.47103694131035145 l -8.27279479198391 3.669074678230798" fill="#ff6609" stroke="none" /><path d="M 119.196687751892 91.48605970444005 l 12.339744493076683 -5.472811207556621 a34.49892427817764,34.49892427817764 0 0,0 0.23608647234323887,0.5449201282815972 l -12.432121675262604 5.259591934688421" fill="#ffa30f" stroke="none" /><path d="M 119.61058180528143 92.48833698450437 l 29.72590042620463 -11.386247947712167 a52.83199331608707,52.83199331608707 0 0,0 0.3179867397841052,0.8520463695609334 l -29.91749175449036 10.8728784411219" fill="#7eff26" stroke="none" /><path d="M 119.97218684219823 93.5106431181261 l 8.217579668111018 -2.67005348953234 a29.640474595687174,29.640474595687174 0 0,0 0.15348757479946554,0.48659755637643354 l -8.26232272667869 2.528205766729487" fill="#ff6008" stroke="none" /><path d="M 120.08093135843002 93.85539295169968 l 15.490340156114604 -4.73992224787291 a37.19930557363547,37.19930557363547 0 0,0 0.18208901164331004,0.6139136259646701 l -15.569635064869617 4.472579235161709" fill="#ffc612" stroke="none" /><path d="M 120.28053869075195 94.5502522615342 l 13.562919552531655 -3.644601915436713 a35.04407027575875,35.04407027575875 0 0,0 0.1515300060587518,0.5839069263240605 l -13.62364589046071 3.410598563563802" fill="#ffaa0f" stroke="none" /><path d="M 120.37134235888165 94.90015583598534 l 7.625891692937155 -1.9090965416266448 a28.861225967853787,28.861225967853787 0 0,0 0.11649930030165176,0.4829648113104224 l -7.657623793499626 1.7775464986568161" fill="#ff5607" stroke="none" /><path d="M 120.53481517161879 95.60439243477599 l 16.129307602711734 -3.4525806990604604 a37.494692395628945,37.494692395628945 0 0,0 0.12966147434386596,0.6322753972360388 l -16.186348372970595 3.17442964566101" fill="#ffca12" stroke="none" /><path d="M 120.6074358757038 95.95851677861258 l 16.19015275963947 -3.1751757532787974 a37.49856925447389,37.49856925447389 0 0,0 0.11877096135130183,0.6344792247572808 l -16.242409444900634 2.896018451058954" fill="#ffca12" stroke="none" /><path d="M 120.67395015179393 96.31383870115 l 16.647856812536585 -2.968309638003243 a37.91041095177121,37.91041095177121 0 0,0 0.1090161498276578,0.6434194873332458 l -16.696484823884465 2.6813043623541595" fill="#ffcf13" stroke="none" /><path d="M 120.78858239683441 97.02765380044208 l 22.377197401666507 -3.199485967053188 a43.604771045213454,43.604771045213454 0 0,0 0.09984246914385146,0.7439423649509426 l -22.428955869868194 2.8138252600375813" fill="#e8ff1a" stroke="none" /><path d="M 120.83666639777658 97.38593545837742 l 16.863364886394123 -2.115593893976724 a37.99555273640436,37.99555273640436 0 0,0 0.07582762869601087,0.6496448155149649 l -16.897282868093722 1.8250053401369062" fill="#ffd013" stroke="none" /><path d="M 120.91429891909075 98.10471618934814 l 7.901909978654119 -0.7160824330621484 a28.93428984608539,28.93428984608539 0 0,0 0.04068094490581062,0.4964105689057684 l -7.913065407379424 0.5799579469486112" fill="#ff5708" stroke="none" /><path d="M 120.98425023603335 99.18683210126433 l 23.272762100631915 -0.9018508091677845 a44.29022951099035,44.29022951099035 0 0,0 0.022964073883108043,0.762065814272338 l -23.28483786897067 0.5011148474704473" fill="#e0ff1b" stroke="none" /><line stroke="#e1ed5e" stroke-width="0.3" x1="184.98032266829074" x2="189.97916517819016" y1="98.17113171792111" y2="98.06355123074" /><path d="M 185.9800911702706 98.14961562048488 a86.0,86.0 0 0,1 -9.607161424134198,41.387399972396054" fill="none" id="id28" stroke="none" /><text fill="#e1ed5e" style="font-size:6.75px; font-family:Arial;" text-anchor="middle"><textPath startOffset="21.466115282336823" xlink:href="#id28">April</textPath></text><path d="M 120.99513854157772 99.54816195383933 l 31.27677204199489 -0.6731098983548591 a52.28401422935005,52.28401422935005 0 0,0 0.01161948201264931,0.8999416869981371 l -31.283724531125255 0.13463195329625918" fill="#84ff25" stroke="none" /><path d="M 120.9764740272857 100.99374915477107 l 20.62442263564608 0.9770709097799004 a41.64755376833993,41.64755376833993 0 0,0 -0.04008804944123715,0.7157990524016716 l -20.604548235317313 -1.3319416785169955" fill="#fffe18" stroke="none" /><path d="M 120.89721153311464 102.0752229133903 l 16.71576114902023 1.659978916145656 a37.79798204526789,37.79798204526789 0 0,0 -0.069868127185803,0.6468920844000902 l -16.684710720333378 -1.9474673224305374" fill="#ffce13" stroke="none" /><path d="M 120.8583938346157 102.4346265915055 l 7.8274701192165415 0.9136353953022622 a28.8806102620785,28.8806102620785 0 0,0 -0.06188494637254869,0.4932839117310868 l -7.810583663597145 -1.0482370613207441" fill="#ff5607" stroke="none" /><path d="M 120.70491114924044 103.5080841355445 l 15.827894999251075 2.6817592669541 a37.05347603708341,37.05347603708341 0 0,0 -0.11196070848821722,0.6279351115120954 l -15.779387848423669 -2.953813129199414" fill="#ffc412" stroke="none" /><path d="M 120.64145759157962 103.86396538481128 l 16.84315033661689 3.1529435158885826 a38.135716094644586,38.135716094644586 0 0,0 -0.12633830117740324,0.6441962758575813 l -16.786382102463822 -3.4424035188141087" fill="#ffd213" stroke="none" /><path d="M 120.49622156327973 104.57218783832717 l 12.35239509139371 2.7555064447715303 a33.65600569931386,33.65600569931386 0 0,0 -0.1310010885190478,0.5643492607230353 l -12.30313343694411 -2.9677243628431307" fill="#ff970e" stroke="none" /><path d="M 120.41448212921028 104.9243191809786 l 16.818113941603027 4.0568142040702915 a38.30048259555463,38.30048259555463 0 0,0 -0.16011185852041127,0.6395672849478845 l -16.745790768787554 -4.345709328415572" fill="#ffd413" stroke="none" /><path d="M 120.32669344350535 105.2749913415812 l 17.852073778852258 4.632801437894611 a39.44341040503471,39.44341040503471 0 0,0 -0.17620296217795553,0.6557167713750256 l -17.769682740332524 -4.939409142445185" fill="#ffe315" stroke="none" /><path d="M 120.13307415673323 105.97154293290107 l 18.875981068739947 5.598684556323025 a40.68877675399462,40.68877675399462 0 0,0 -0.2049420590498787,0.669762506843181 l -18.776812237183936 -5.922774035718264" fill="#fff216" stroke="none" /><path d="M 120.02730092923936 106.31721596034902 l 15.358386362313325 4.844499206159249 a37.104322531934386,37.104322531934386 0 0,0 -0.19737334988616845,0.6074527096217962 l -15.27272076141091 -5.10815081575884" fill="#ffc512" stroke="none" /><line stroke="#e1ed5e" stroke-width="0.3" x1="174.80103733775053" x2="179.2010983576182" y1="140.37084112569926" y2="142.7455964860345" /><path d="M 175.68104954172406 140.8457921977663 a86.0,86.0 0 0,1 -30.038265399797805,32.042727171017184" fill="none" id="id29" stroke="none" /><text fill="#e1ed5e" style="font-size:6.75px; font-family:Arial;" text-anchor="middle"><textPath startOffset="22.206326154141568" xlink:href="#id29">May</textPath></text><path d="M 117.94076556474637 110.91462005526583 l 7.626461238490029 4.639708739514289 a29.926914820346173,29.926914820346173 0 0,0 -0.2715302618533733,0.4377932392252053 l -7.545466336968693 -4.770298310104767" fill="#ff6409" stroke="none" /><path d="M 117.75023020441432 111.22182372390056 l 21.08818446418123 13.332102512974037 a45.9490777667589,45.9490777667589 0 0,0 -0.4284098075733856,0.6649015350879729 l -20.855569793230792 -13.693125647983463" fill="#ccff1d" stroke="none" /><path d="M 115.80600337817218 113.82643327865902 l 6.789024250621114 5.938755584352273 a30.019959432624788,30.019959432624788 0 0,0 -0.3435729325498695,0.3860078319114293 l -6.685792468422906 -6.054737586004569" fill="#ff6609" stroke="none" /><path d="M 112.04921762599082 117.19931262002967 l 4.7742344471203975 6.8148450236482425 a29.320782850935014,29.320782850935014 0 0,0 -0.41585682426754395,0.28603011571619197 l -4.65622073822997 -6.896015928729528" fill="#ff5c08" stroke="none" /><line stroke="#e1ed5e" stroke-width="0.3" x1="143.8653032363475" x2="146.44561519142675" y1="172.8068346515853" y2="177.08958963109032" /><path d="M 144.38136562736335 173.6633856474863 a86.0,86.0 0 0,1 -40.68145358897372,12.25698825130547" fill="none" id="id30" stroke="none" /><text fill="#e1ed5e" style="font-size:6.75px; font-family:Arial;" text-anchor="middle"><textPath startOffset="21.466115282336833" xlink:href="#id30">June</textPath></text><path d="M 109.89434966115114 118.52300852407294 l 4.248575063195076 7.953670004175926 a30.01727545342444,30.01727545342444 0 0,0 -0.4578479242428552,0.23952439473461062 l -4.111036236425725 -8.025623817855253" fill="#ff6609" stroke="none" /><path d="M 107.59598834532513 119.57807347666477 l 2.950628517925396 7.605017188031676 a29.15735833962514,29.15735833962514 0 0,0 -0.4694748161233814,0.17751520409471874 l -2.8192834810417398 -7.654680642233026" fill="#ff5a08" stroke="none" /><path d="M 103.41894727170886 120.7198165907248 l 2.5888810876282373 15.689373672043283 a36.901532992352784,36.901532992352784 0 0,0 -0.6276144839397855,0.09802047484762187 l -2.3184307400799344 -15.731612454238011" fill="#ffc212" stroke="none" /><path d="M 102.34483914955558 120.86867818915974 l 1.5667816864320288 13.944096256246793 a35.03184325940162,35.03184325940162 0 0,0 -0.5998242341382172,0.06217423440175149 l -1.3265248556882088 -13.968999859104303" fill="#ffaa0f" stroke="none" /><path d="M 101.98527174616119 120.90594882070398 l 0.7243983869863274 7.628293523755748 a28.662611507028284,28.662611507028284 0 0,0 -0.4915715429820433,0.042414861153670956 l -0.5929825262627424 -7.6396326371880825" fill="#ff5307" stroke="none" /><path d="M 101.62511606390274 120.93702456842531 l 0.7608071163883595 9.801784402648854 a30.83126670090673,30.83126670090673 0 0,0 -0.5294715668906429,0.03651545921483246 l -0.5919727887187863 -9.813428206379973" fill="#ff710a" stroke="none" /><path d="M 101.26447882468166 120.96189622390904 l 0.6561503855786576 10.877332242586487 a31.897104663354693,31.897104663354693 0 0,0 -0.5483445412635755,0.02834314936878427 l -0.46881777590160245 -10.887015198717473" fill="#ff800b" stroke="none" /><path d="M 100.90346689309514 120.98055641714683 l 0.1509267225905091 3.5048618188068836 a24.50810992480598,24.50810992480598 0 0,0 -0.42163244451204135,0.014521873904276776 l -0.09057392640381548 -3.506940491137254" fill="#ff1702" stroke="none" /><line stroke="#e1ed5e" stroke-width="0.3" x1="102.19456741930631" x2="102.32365962044197" y1="184.97166512339345" y2="189.96999836594603" /><path d="M 102.22038585953345 185.97133177190398 a86.0,86.0 0 0,1 -42.740103519485714,-10.115201625700543" fill="none" id="id31" stroke="none" /><text fill="#e1ed5e" style="font-size:6.75px; font-family:Arial;" text-anchor="middle"><textPath startOffset="22.20632615414155" xlink:href="#id31">July</textPath></text><path d="M 100.54218724476979 120.99299961872073 l 0.347989899073137 13.473854077225266 a34.478347104308334,34.478347104308334 0 0,0 -0.5934221175890209,0.010216299915884684 l -0.11600809159144815 -13.477847854420311" fill="#ffa20f" stroke="none" /><path d="M 100.18074693466247 120.99922214144158 l 0.14376779401116474 16.702976727452338 a37.703595443389105,37.703595443389105 0 0,0 -0.6490294573472288,0.0 l 0.14376779401115322 -16.702976727452338" fill="#ffcd13" stroke="none" /><path d="M 99.81925306533755 120.99922214144158 l -0.09734504986293738 11.309571198311579 a32.309990130341035,32.309990130341035 0 0,0 -0.556101564394062,-0.009573792747436869 l 0.2920063041496673 -11.306219928284982" fill="#ff850c" stroke="none" /><path d="M 99.09653310690486 120.98055641714683 l -0.45099037070420844 10.473022297180329 a31.482728096812597,31.482728096812597 0 0,0 -0.5412209753258685,-0.027974942378075185 l 0.6311994144435659 -10.463707548040052" fill="#ff7a0b" stroke="none" /><path d="M 98.73552117531835 120.96189622390904 l -0.5879863795125984 9.74734351246899 a30.765061880631563,30.765061880631563 0 0,0 -0.528334618147445,-0.0364370485728684 l 0.7556837584389734 -9.735778119379837" fill="#ff700a" stroke="none" /><path d="M 98.37488393609728 120.93702456842531 l -0.8126061115116948 10.46913171254664 a31.50062129148156,31.50062129148156 0 0,0 -0.5402441787047076,-0.04661454096759262 l 0.9926946079579442 -10.453592919300384" fill="#ff7a0b" stroke="none" /><path d="M 97.65516085044442 120.86867818915974 l -1.9822359011470043 17.64156962488284 a38.752583980857125,38.752583980857125 0 0,0 -0.6622495084108403,-0.08018919273403201 l 2.285612832609234 -17.604834903423463" fill="#ffda14" stroke="none" /><path d="M 96.93821686468263 120.77559828337769 l -1.6597270933925503 11.262007081630744 a32.38365044839494,32.38365044839494 0 0,0 -0.550775168838316,-0.08601975410910129 l 1.8533381258393835 -11.231769020174536" fill="#ff860c" stroke="none" /><path d="M 96.58105272829116 120.7198165907248 l -1.3723548358983833 8.316870146697667 a29.429334898593396,29.429334898593396 0 0,0 -0.4991089472870254,-0.08677648810010778 l 1.5153127546574587 -8.292015080076553" fill="#ff5e08" stroke="none" /><path d="M 96.22490169976321 120.6578951692458 l -1.8035199814547378 9.86912756952452 a31.032565140932576,31.032565140932576 0 0,0 -0.524645982283074,-0.10054965117251036 l 1.973133578309507 -9.836620720003541" fill="#ff740a" stroke="none" /><path d="M 95.51606077576429 120.51570834832081 l -2.535203766191623 11.59951071362195 a32.87332754250225,32.87332754250225 0 0,0 -0.5517707419590804,-0.12558122445857745 l 2.734494657543566 -11.554152755585685" fill="#ff8d0d" stroke="none" /><path d="M 95.16358092515715 120.4354850818985 l -4.438934971727772 18.755982058318203 a40.27410196754137,40.27410196754137 0 0,0 -0.6732424383629714,-0.16546661144247238 l 4.761130694833954 -18.6767941885617" fill="#ffed16" stroke="none" /><path d="M 94.81253420990036 120.34920634021253 l -0.47887189611357045 1.8785016458598545 a22.938578532426682,22.938578532426682 0 0,0 -0.38177392501915847,-0.10082996348676836 l 0.5111362639442182 -1.8699803330695044" fill="#ff0000" stroke="none" /><path d="M 94.46302465271185 120.25689768951611 l -4.187810452970861 15.321008776111874 a36.883043357861524,36.883043357861524 0 0,0 -0.6109743433164841,-0.17266745227900004 l 4.450915964391959 -15.246652530494353" fill="#ffc212" stroke="none" /><path d="M 93.76903079525671 120.05430185196036 l -7.008905725440486 22.558081488015887 a44.62185005218849,44.62185005218849 0 0,0 -0.731540500739105,-0.2342161670490553 l 7.3961675712705315 -22.434092474307125" fill="#dcff1b" stroke="none" /><path d="M 93.08242187328487 119.8279376855182 l -4.465325030115515 12.799015034002693 a34.555586061296026,34.555586061296026 0 0,0 -0.5599328575064336,-0.20077200124495656 l 4.684977448251676 -12.72025549171778" fill="#ffa30f" stroke="none" /><path d="M 92.7421414339146 119.70592522655815 l -6.88280957027387 18.687623836352916 a40.91482744664586,40.91482744664586 0 0,0 -0.6587867415316895,-0.24909677550661072 l 7.203466532565842 -18.56637881073967" fill="#fff517" stroke="none" /><path d="M 92.06813273071674 119.44442032107085 l -6.012612472225138 14.739500822260093 a36.91868063724388,36.91868063724388 0 0,0 -0.5863539842961548,-0.24509601299050976 l 6.2654379160187545 -14.63381976624961" fill="#ffc212" stroke="none" /><path d="M 91.7346041902142 119.30500536409082 l -4.70984772697444 11.000518030321512 a32.96637215478087,32.96637215478087 0 0,0 -0.5197373453326957,-0.2278375785212121 l 4.8985057469648785 -10.917815898505847" fill="#ff8e0d" stroke="none" /><path d="M 91.07499286063937 119.00905698771935 l -7.634271811339195 16.25996547179034 a38.96297812817302,38.96297812817302 0 0,0 -0.604644808997868,-0.2902662525235121 l 7.913029288337305 -16.126144942767265" fill="#ffdd14" stroke="none" /><path d="M 90.7491055286396 118.85261126421891 l -7.235940717893864 14.746290524415139 a37.425952706109015,37.425952706109015 0 0,0 -0.5759071603918544,-0.2887718058570091 l 7.488701785968479 -14.619550877648827" fill="#ffc912" stroke="none" /><path d="M 90.42595943632237 118.69057910512821 l -6.186336600641824 12.077054910746172 a34.5693041772089,34.5693041772089 0 0,0 -0.5272791724423251,-0.2758475422691297 l 6.393306675610645 -11.968777949532326" fill="#ffa40f" stroke="none" /><line stroke="#e1ed5e" stroke-width="0.3" x1="58.666819895761336" x2="56.23545636021788" y1="174.27360380694188" y2="178.64263932499728" /><path d="M 58.180547188652646 175.14741091055294 a86.0,86.0 0 0,1 -31.652253787137756,-30.449443065178592" fill="none" id="id32" stroke="none" /><text fill="#e1ed5e" style="font-size:6.75px; font-family:Arial;" text-anchor="middle"><textPath startOffset="22.20632615414155" xlink:href="#id32">August</textPath></text><path d="M 89.7882731507175 118.34994917583269 l -6.829538104224911 12.272329543924823 a35.044666715581045,35.044666715581045 0 0,0 -0.5245873426132489,-0.29787438402444805 l 7.039774213759367 -12.152951994105742" fill="#ffaa0f" stroke="none" /><path d="M 89.4739219176387 118.17145234162733 l -10.741354612003835 18.543090017888318 a42.42948637537366,42.42948637537366 0 0,0 -0.6288294940847524,-0.3715235491212673 l 11.058951977116969 -18.3554478964733" fill="#f6ff19" stroke="none" /><path d="M 88.54995079064634 117.60387380957326 l -9.316743906219973 14.32402438124238 a38.08740446903839,38.08740446903839 0 0,0 -0.5465094583736152,-0.3621966687601109 l 9.56192806333355 -14.161529691390951" fill="#ffd113" stroke="none" /><path d="M 87.95078237400918 117.19931262002967 l -10.337116334943905 14.75542238118516 a39.01606127235762,39.01606127235762 0 0,0 -0.5467314574965826,-0.39007837830328634 l 10.589575120289375 -14.575299741037654" fill="#ffdd14" stroke="none" /><path d="M 87.65650970185807 116.9893568818739 l -9.374469930362771 12.902850926151984 a36.94880084826997,36.94880084826997 0 0,0 -0.5113274691199311,-0.3782678375416053 l 9.595182369901266 -12.739573139870611" fill="#ffc312" stroke="none" /><path d="M 87.07902340077011 116.55440617244103 l -9.600203012092686 12.299817957223642 a36.602865751336665,36.602865751336665 0 0,0 -0.4933412807613463,-0.3919401503666061 l 9.810501785571391 -12.132743892851906" fill="#ffbe11" stroke="none" /><path d="M 86.79598089348748 116.32954008644616 l -9.564207938183243 11.828149873294166 a36.21115389804193,36.21115389804193 0 0,0 -0.4813149872766159,-0.39608946677114565 l 9.766393054004547 -11.661765287665839" fill="#ffb911" stroke="none" /><path d="M 86.51685102203217 116.09983520530335 l -6.5103861944210175 7.773862398489801 a31.139924308946362,31.139924308946362 0 0,0 -0.4079842016270709,-0.3476929876548254 l 6.643235872625144 -7.660645020612024" fill="#ff750a" stroke="none" /><path d="M 86.24171649860922 115.8653595955263 l -12.421619206680658 14.323985652190059 a39.9597781811899,39.9597781811899 0 0,0 -0.5157811167699051,-0.45511686670729723 l 12.666342676357152 -14.108045643710472" fill="#ffe915" stroke="none" /><path d="M 85.70375840098266 115.38237550388516 l -11.680157322950842 12.56753844300124 a38.15718792824734,38.15718792824734 0 0,0 -0.4772631394840895,-0.45128208764537786 l 11.894756296825749 -12.364621718609932" fill="#ffd213" stroke="none" /><path d="M 85.44109423537348 115.13401014063109 l -8.5222459597295 8.858890830165848 a33.292624737578315,33.292624737578315 0 0,0 -0.40957862792800803,-0.40085889230162797 l 8.673474540033302 -8.71088183494165" fill="#ff930d" stroke="none" /><path d="M 84.9287848128048 114.62390073753433 l -19.85108336421704 19.261902178762192 a48.6601949790181,48.6601949790181 0 0,0 -0.5781142788517887,-0.6061505101056711 l 20.179704194447783 -18.91734455207402" fill="#adff20" stroke="none" /><path d="M 84.67929136418377 114.36230785411682 l -12.050036299441414 11.29623538308611 a37.51690977900958,37.51690977900958 0 0,0 -0.43761437196516945,-0.4749439708800418 l 12.242697079402312 -11.087140157404724" fill="#ffca12" stroke="none" /><path d="M 84.43433777217949 114.09645910891817 l -9.824993742651156 8.897637666267878 a34.255129500813005,34.255129500813005 0 0,0 -0.39204367760335906,-0.44046522781386904 l 9.976696269902853 -8.727198268713146" fill="#ff9f0e" stroke="none" /><path d="M 83.72743513129214 113.27417163493432 l -9.642865890371649 7.866065240126536 a33.444269562397785,33.444269562397785 0 0,0 -0.3600547758317597,-0.4492236938027721 l 9.776838578258271 -7.6989137127455045" fill="#ff950d" stroke="none" /><path d="M 83.50135304334701 112.99209946851258 l -17.274910078568855 13.6033791522446 a42.988052268956494,42.988052268956494 0 0,0 -0.4527935287126915,-0.5852966730430658 l 17.506510424499616 -13.304004485088281" fill="#efff19" stroke="none" /><path d="M 83.06392112726016 112.41649034213515 l -17.945292111287298 13.156383355372647 a43.251380450501415,43.251380450501415 0 0,0 -0.43502693137126197,-0.6042143591440347 l 18.16909883503417 -12.845535390777474" fill="#ecff1a" stroke="none" /><path d="M 82.6465618267979 111.8261652097733 l -14.072439984793613 9.590203307479795 a38.0295498062754,38.0295498062754 0 0,0 -0.3639914958899674,-0.5441178993408063 l 14.23543458609431 -9.346548493933167" fill="#ffd113" stroke="none" /><path d="M 82.44556493220864 111.52570212397912 l -21.261039363738657 13.959344496494658 a46.43413245224339,46.43413245224339 0 0,0 -0.43293225273596914,-0.6719204704106323 l 21.498176479851672 -13.591302426162578" fill="#c6ff1e" stroke="none" /><line stroke="#e1ed5e" stroke-width="0.3" x1="26.63291911575756" x2="22.317208475507996" y1="142.92168965132927" y2="145.44649492493687" /><path d="M 25.769776987707644 143.4266507060508 a86.0,86.0 0 0,1 -11.730757126820373,-40.83630448921669" fill="none" id="id33" stroke="none" /><text fill="#e1ed5e" style="font-size:6.75px; font-family:Arial;" text-anchor="middle"><textPath startOffset="21.46611528233685" xlink:href="#id33">September</textPath></text><path d="M 81.69416730710424 110.29060199501025 l -34.35152824622955 19.31067059514252 a60.40722638914858,60.40722638914858 0 0,0 -0.501735491517638,-0.9107956560295948 l 34.6788401471987 -18.7165044207151" fill="#30ff2f" stroke="none" /><path d="M 81.51974371655577 109.97397251340807 l -6.916400166937321 3.732847861994423 a28.85943664838689,28.85943664838689 0 0,0 -0.2321775921803698,-0.4391925059951248 l 6.979630267342577 -3.613240340913172" fill="#ff5607" stroke="none" /><path d="M 81.18737489456691 109.33194174019688 l -20.111587518365415 9.976287837153293 a43.44999491132691,43.44999491132691 0 0,0 -0.326592390326666,-0.6728770575436043 l 20.2803331653068 -9.628621823644405" fill="#eaff1a" stroke="none" /><path d="M 81.02952815118164 109.00673069616217 l -20.72713088787138 9.840750799395128 a43.9445926339682,43.9445926339682 0 0,0 -0.31854678340588277,-0.6861214322040401 l 20.89345228811709 -9.48250929991226" fill="#e4ff1a" stroke="none" /><path d="M 80.73074385275274 108.34839909993369 l -15.205996040487612 6.58799295042518 a37.57178224266107,37.57178224266107 0 0,0 -0.2519975554159586,-0.5956477821288442 l 15.317144577095878 -6.325270642630177" fill="#ffcb12" stroke="none" /><path d="M 80.58989483394504 108.01547362559985 l -2.8515154249681816 1.1775436807934136 a24.085084980840556,24.085084980840556 0 0,0 -0.15494438172858155,-0.3845592485540758 l 2.871362420954151 -1.1282850643965323" fill="#ff1101" stroke="none" /><path d="M 80.45479744820244 107.68017299344265 l -36.48434417263892 14.336309590836029 a60.199963550899746,60.199963550899746 0 0,0 -0.3706761740663613,-0.9677185224898401 l 36.72571462629879 -13.70616750151303" fill="#32ff2f" stroke="none" /><path d="M 80.0844068197444 106.66101706037122 l -30.396536631645034 10.166498544483115 a53.051632280648604,53.051632280648604 0 0,0 -0.2822037343802352,-0.8685337874314316 l 30.56703261704152 -9.64176585707388" fill="#7cff26" stroke="none" /><path d="M 79.76711848015287 105.62410040840567 l -13.731745374478152 3.8169904120166476 a35.2523768836966,35.2523768836966 0 0,0 -0.15748063280877736,-0.5860440189148344 l 13.795414083628705 -3.580055459926274" fill="#ffad10" stroke="none" /><path d="M 79.67330655649465 105.27499134158121 l -8.861088767504521 2.2995459962773053 a30.15460572250874,30.15460572250874 0 0,0 -0.12605872401570234,-0.5035419400396148 l 8.899358805815282 -2.146676216840299" fill="#ff6809" stroke="none" /><path d="M 79.58551787078972 104.9243191809786 l -28.56970311181325 6.891496739320341 a50.389124913906755,50.389124913906755 0 0,0 -0.19613231208177626,-0.8449328671887807 l 28.684095989825583 -6.398695214782986" fill="#99ff23" stroke="none" /><path d="M 79.4281124754447 104.21870165774334 l -19.179887646589933 3.9332425725844584 a40.57903182669163,40.57903182669163 0 0,0 -0.13443266495073816,-0.6854692623519728 l 19.24475024451634 -3.6025095831645304" fill="#fff116" stroke="none" /><path d="M 79.35854240842038 103.8639653848113 l -18.66977914487704 3.494878209923746 a39.99407347097208,39.99407347097208 0 0,0 -0.12084601176576429,-0.677768610957961 l 18.727171598981993 -3.1729908482325713" fill="#ffea16" stroke="none" /><path d="M 79.29508885075956 103.50808413554451 l -17.86169614932853 3.0263512093204312 a39.11626316250382,39.11626316250382 0 0,0 -0.10676550382937083,-0.6648288942611349 l 17.91114340751919 -2.7184430853660824" fill="#ffdf14" stroke="none" /><path d="M 79.10278846688536 102.07522291339032 l -22.73079399673211 2.2573090417744726 a43.842601424355095,43.842601424355095 0 0,0 -0.06811345579680271,-0.7516263089149988 l 22.76628204880599 -1.8657013443109076" fill="#e5ff1a" stroke="none" /><path d="M 79.07016306316243 101.71520430193888 l -9.02177439136818 0.7393362066744713 a30.052018073073345,30.052018073073345 0 0,0 -0.03781322555105655,-0.5159314198965618 l 9.03316417558357 -0.5839316502811489" fill="#ff6609" stroke="none" /><path d="M 79.04373962182676 101.35467743843564 l -16.773856905878805 1.0843139518159908 a37.80886707202484,37.80886707202484 0 0,0 -0.03639310344446997,-0.6498233095051197 l 16.790036360210806 -0.7954189259754334" fill="#ffce13" stroke="none" /><path d="M 79.0235259727143 100.99374915477108 l -20.163295386238545 0.9552252547978345 a41.18590934588066,41.18590934588066 0 0,0 -0.027453089877434392,-0.7084422646738557 l 20.17675060896718 -0.608005743109982" fill="#fff917" stroke="none" /><path d="M 79.0095281055655 100.63252640178507 l -7.597878446282422 0.22895429597757855 a28.601327315287087,28.601327315287087 0 0,0 -0.010593301475423188,-0.4922290939840346 l 7.600693810442853 -0.09813538620341514" fill="#ff5207" stroke="none" /><line stroke="#e1ed5e" stroke-width="0.3" x1="15.007084014347285" x2="10.007500721073583" y1="101.09737516637583" y2="101.16192664675087" /><path d="M 14.007167355692545 101.11028546245083 a86.0,86.0 0 0,1 10.666146001902534,-42.60595125391555" fill="none" id="id34" stroke="none" /><text fill="#e1ed5e" style="font-size:6.75px; font-family:Arial;" text-anchor="middle"><textPath startOffset="22.20632615414155" xlink:href="#id34">October</textPath></text><path d="M 79.00175016825051 100.2711162175752 l -18.80686405629174 0.24282242035635715 a39.80843157628158,39.80843157628158 0 0,0 -0.002949051662088337,-0.6852557477334911 l 18.80825740524333 0.08094280558080931" fill="#ffe715" stroke="none" /><path d="M 79.00019446554 99.90962569577889 l -22.478266756233946 -0.09673697762857017 a43.47847491284168,43.47847491284168 0 0,0 0.009662558711943577,-0.7483758207533167 l 22.473271190404287 0.4836490564423588" fill="#e9ff1a" stroke="none" /><path d="M 79.05617556472873 98.46500227214037 l -17.120809498426613 -1.2548044298415686 a38.16673096540413,38.16673096540413 0 0,0 0.05366154441314007,-0.6548067615480971 l 17.096673470193974 1.549325108597444" fill="#ffd213" stroke="none" /><path d="M 79.08570108090925 98.10471618934814 l -12.823544612706378 -1.1620880333430186 a33.876091993742115,33.876091993742115 0 0,0 0.05762625603189091,-0.5802885340122276 l 12.801641230992258 1.3826520980596766" fill="#ff9a0e" stroke="none" /><path d="M 79.12142395522702 97.74499172005258 l -16.297917061498687 -1.7602703288176056 a37.392701186015856,37.392701186015856 0 0,0 0.07462451937848603,-0.6393373096088744 l 16.265202189116614 2.0405513767513415" fill="#ffc912" stroke="none" /><path d="M 79.26566170972629 96.67025291283419 l -10.914129473401825 -1.752710422403864 a32.05396833661928,32.05396833661928 0 0,0 0.09217521327324531,-0.5440233264783605 l 10.882342398608358 1.9403195371980526" fill="#ff820b" stroke="none" /><path d="M 79.46518482838121 95.60439243477599 l -10.28215838616202 -2.2009612850818927 a31.515084957172306,31.515084957172306 0 0,0 0.11811495620176717,-0.5294861886370513 l 10.242749042958216 2.3776256432689036" fill="#ff7a0b" stroke="none" /><path d="M 79.54389044137918 95.25157060432595 l -16.956550841234684 -3.9360849252896166 a38.4073944337017,38.4073944337017 0 0,0 0.15503272740110774,-0.6427107436897835 l 16.88628531357276 4.227380900638797" fill="#ffd614" stroke="none" /><path d="M 79.62865764111835 94.90015583598534 l -18.22556437096744 -4.562661431715997 a39.788003512367844,39.788003512367844 0 0,0 0.17204269840381406,-0.6629506975834224 l 18.144325340693317 4.875708554848283" fill="#ffe715" stroke="none" /><path d="M 79.81627453868168 94.20196356495316 l -23.295120593283286 -6.691824966481914 a45.237226838845274,45.237226838845274 0 0,0 0.22143429285968155,-0.7465663546392629 l 23.176480403311896 7.091820707867715" fill="#d4ff1c" stroke="none" /><path d="M 80.2630227832202 92.82701384747504 l -14.026101565711864 -5.097489407811898 a35.923669903693906,35.923669903693906 0 0,0 0.21621843047662323,-0.5793578966369768 l 13.936278546733613 5.3381704414782165" fill="#ffb510" stroke="none" /><path d="M 80.52162464483688 92.15188598940014 l -8.851149833761628 -3.566253948476774 a30.54258982691411,30.54258982691411 0 0,0 0.20067690583068218,-0.48595504501838105 l 8.788451241044745 3.7180835639484666" fill="#ff6d0a" stroke="none" /><path d="M 80.65960295795068 91.81776055985345 l -17.872016029865247 -7.561019255011098 a40.40561694835825,40.40561694835825 0 0,0 0.27650773952462443,-0.638217985965554 l 17.739217580497943 7.867536385563252" fill="#ffef16" stroke="none" /><path d="M 80.95270993114464 91.15688171328213 l -15.78239069117252 -7.327317808712343 a38.40038626578968,38.40038626578968 0 0,0 0.2835078687534491,-0.5971398751155601 l 15.65392462857732 7.597900099468435" fill="#ffd513" stroke="none" /><path d="M 81.26839172434947 90.50648371742162 l -20.008484279946337 -10.140660028018194 a43.43150527683565,43.43150527683565 0 0,0 0.34370983241270553,-0.6639379955789725 l 19.83096501437352 10.483570745857502" fill="#eaff1a" stroke="none" /><line stroke="#e1ed5e" stroke-width="0.3" x1="26.266209847984243" x2="21.928928074336255" y1="57.711370442889674" y2="55.22380399835377" /><path d="M 25.398753493254645 57.213857153982495 a86.0,86.0 0 0,1 29.58750427330803,-30.492523968695096" fill="none" id="id35" stroke="none" /><text fill="#e1ed5e" style="font-size:6.75px; font-family:Arial;" text-anchor="middle"><textPath startOffset="21.46611528233685" xlink:href="#id35">November</textPath></text><path d="M 81.78341655067845 89.55222093294921 l -14.994996315065052 -8.600098314092763 a38.28616803981946,38.28616803981946 0 0,0 0.33279855129868974,-0.5688606024048626 l 14.844738089296039 8.856938328851518" fill="#ffd413" stroke="none" /><path d="M 81.96595687620814 89.24020034530311 l -15.495745589110419 -9.245354294346617 a39.04424305396124,39.04424305396124 0 0,0 0.3493236398910679,-0.5741962155142412 l 15.334306150933134 9.510718283067932" fill="#ffde14" stroke="none" /><path d="M 82.7489923806493 88.02491185347247 l -14.723827912032927 -10.220802227408262 a38.9236130999013,38.9236130999013 0 0,0 0.38680318312313566,-0.547105671353781 l 14.545712109105914 10.472734399093829" fill="#ffdc14" stroke="none" /><path d="M 82.95767976084542 87.72973835380427 l -15.182338106626847 -10.931097312754211 a39.7080805761798,39.7080805761798 0 0,0 0.40414768592622907,-0.5512569894130767 l 14.991927808186984 11.19081674583879" fill="#ffe615" stroke="none" /><path d="M 83.84228863543731 86.58626213691792 l -12.257591281810072 -10.175953300391846 a36.93105676355658,36.93105676355658 0 0,0 0.41026778931630037,-0.4856276574283456 l 12.080612879006647 10.385439907449307" fill="#ffc312" stroke="none" /><path d="M 84.07557802195018 86.31012108654704 l -17.020343271320108 -14.632018592006146 a43.44522339274852,43.44522339274852 0 0,0 0.4923960312453501,-0.5628937829740411 l 16.765955376496915 14.92282793118313" fill="#eaff1a" stroke="none" /><path d="M 85.31137513191541 84.99185889309783 l -7.203112761843431 -7.359799416864754 a31.298129971811118,31.298129971811118 0 0,0 0.38827082386918554,-0.3735162249355819 l 7.075358694361817 7.482698728562649" fill="#ff770b" stroke="none" /><path d="M 85.83668400450813 84.49514656593479 l -42.48994798647562 -46.514560302195655 a84.0,84.0 0 0,0 1.0759560496161145,-0.9660039649228849 l 41.68298094926353 47.23906327588782" fill="#4dd2ff" stroke="none" /><path d="M 87.80319425747018 82.90503203632743 l -5.331633431397156 -7.472784647701963 a30.179805305000862,30.179805305000862 0 0,0 0.4254905030589814,-0.29808328869954065 l 5.202211788754514 7.563452779165447" fill="#ff6809" stroke="none" /><path d="M 88.39885842347998 82.49532879139004 l -5.350824633870595 -8.07372492551995 a30.685884494221398,30.685884494221398 0 0,0 0.4428016592725588,-0.2880105165203467 l 5.211055948813749 8.16463436619983" fill="#ff6f0a" stroke="none" /><path d="M 89.00827224532344 82.1063720568725 l -6.138511584618625 -9.992991536113227 a32.72779622586135,32.72779622586135 0 0,0 0.48256034288692984,-0.29073720718484947 l 5.965589175514046 10.097175352756697" fill="#ff8b0c" stroke="none" /><line stroke="#e1ed5e" stroke-width="0.3" x1="56.762969772571076" x2="54.21961505331055" y1="26.818313649435495" y2="22.513508569990535" /><path d="M 56.25429882871897 25.957352633546506 a86.0,86.0 0 0,1 42.265352541879196,-11.944610805530505" fill="none" id="id36" stroke="none" /><text fill="#e1ed5e" style="font-size:6.75px; font-family:Arial;" text-anchor="middle"><textPath startOffset="22.20632615414155" xlink:href="#id36">December</textPath></text><path d="M 89.63071344664047 81.73862282372117 l -8.058532397463853 -14.191902098575131 a37.32023374760655,37.32023374760655 0 0,0 0.5613601348128289,-0.31239630725161904 l 7.81304817357898 14.328513803386935" fill="#ffc812" stroke="none" /><path d="M 90.91171255644093 81.06846463323043 l -3.519077169085529 -7.330482700802906 a29.131413207355145,29.131413207355145 0 0,0 0.45392538748004574,-0.21312405589681524 l 3.392373570305875 7.389971739339729" fill="#ff5908" stroke="none" /><path d="M 91.90106846888425 80.62456947434976 l -1.3079797329409546 -3.1291375099530767 a24.391505939546565,24.391505939546565 0 0,0 0.38877288014271716,-0.1585902193158908 l 1.253922983209857 3.1511886154525444" fill="#ff1502" stroke="none" /><path d="M 92.57280143429618 80.3572730644239 l -5.291435331156811 -13.994269627733269 a35.96124561249873,35.96124561249873 0 0,0 0.5808900047139623,-0.21394669106856276 l 5.049763000670279 14.083279586608155" fill="#ffb610" stroke="none" /><path d="M 93.25333710446033 80.11325718540243 l -5.440370917341632 -16.036262508493845 a37.93397032475202,37.93397032475202 0 0,0 0.6201611253825742,-0.20445737262473435 l 5.163526969716648 16.127533605377813" fill="#ffd013" stroke="none" /><path d="M 94.28887869178378 79.79150937346287 l -2.8514716941719818 -10.089776752003237 a31.48496474614622,31.48496474614622 0 0,0 0.5228035078427558,-0.1429019477103485 l 2.6773702971055036 10.137365240539882" fill="#ff7a0b" stroke="none" /><path d="M 97.47563105711357 79.15227682838746 l -1.841426430651995 -15.20758230499691 a36.31866217601129,36.31866217601129 0 0,0 0.6212796541716883,-0.06980800809324449 l 1.5793800729705887 15.237026266560752" fill="#ffbb11" stroke="none" /><path d="M 98.55514903715128 79.0497635885617 l -1.1012146711333612 -15.967534571525112 a37.005462631388355,37.005462631388355 0 0,0 0.6358559675072413,-0.03835656840736037 l 0.8261966547864971 15.984124409312779" fill="#ffc412" stroke="none" /></svg>