<?xml version="1.0" encoding="utf-8" ?>
<svg baseProfile="full" height="200mm" version="1.1" viewBox="0,0,200,200" width="200mm" xmlns="http://www.w3.org/2000/svg" xmlns:ev="http://www.w3.org/2001/xml-events" xmlns:xlink="http://www.w3.org/1999/xlink"><defs /><rect fill="#1a1a1a" height="200" width="200" x="0" y="0" /><text alignment-baseline="middle" fill="#e1ed5e" style="dominant-baseline: central; font-size:9.0px; font-family:Arial;" text-anchor="middle" x="100.0" y="100.0">2023</text><line stroke="#e1ed5e" stroke-width="0.3" x1="100.0" x2="100.0" y1="15.0" y2="10.0" /><path d="M 100.0 14.0 a86.0,86.0 0 0,1 42.46469731375804,11.215312516191453" fill="none" id="id25" stroke="none" /><text fill="#e1ed5e" style="font-size:6.75px; font-family:Arial;" text-anchor="middle"><textPath startOffset="22.20632615414155" xlink:href="#id25">January</textPath></text><line stroke="#e1ed5e" stroke-width="0.3" x1="143.23703022742887" x2="145.7803849466894" y1="26.81831364943548" y2="22.513508569990506" /><path d="M 143.74570117128098 25.957352633546492 a86.0,86.0 0 0,1 28.547481713284135,27.462654790039103" fill="none" id="id26" stroke="none" /><text fill="#e1ed5e" style="font-size:6.75px; font-family:Arial;" text-anchor="middle"><textPath startOffset="19.985693538727396" xlink:href="#id26">February</textPath></text><line stroke="#e1ed5e" stroke-width="0.3" x1="172.23445277983987" x2="176.4835382374775" y1="55.19839476539836" y2="52.563006222186495" /><path d="M 173.08426987136738 54.67131705675599 a86.0,86.0 0 0,1 12.851231095245387,41.99856678651699" fill="none" id="id27" stroke="none" /><text fill="#e1ed5e" style="font-size:6.75px; font-family:Arial;" text-anchor="middle"><textPath startOffset="22.20632615414155" xlink:href="#id27">March</textPath></text><line stroke="#e1ed5e" stroke-width="0.3" x1="184.98032266829074" x2="189.97916517819016" y1="98.17113171792111" y2="98.06355123074" /><path d="M 185.9800911702706 98.14961562048488 a86.0,86.0 0 0,1 -9.607161424134198,41.387399972396054" fill="none" id="id28" stroke="none" /><text fill="#e1ed5e" style="font-size:6.75px; font-family:Arial;" text-anchor="middle"><textPath startOffset="21.466115282336823" xlink:href="#id28">April</textPath></text><line stroke="#e1ed5e" stroke-width="0.3" x1="174.80103733775053" x2="179.2010983576182" y1="140.37084112569926" y2="142.7455964860345" /><path d="M 175.68104954172406 140.8457921977663 a86.0,86.0 0 0,1 -30.038265399797805,32.042727171017184" fill="none" id="id29" stroke="none" /><text fill="#e1ed5e" style="font-size:6.75px; font-family:Arial;" text-anchor="middle"><textPath startOffset="22.206326154141568" xlink:href="#id29">May</textPath></text><line stroke="#e1ed5e" stroke-width="0.3" x1="143.8653032363475" x2="146.44561519142675" y1="172.8068346515853" y2="177.08958963109032" /><path d="M 144.38136562736335 173.6633856474863 a86.0,86.0 0 0,1 -40.68145358897372,12.25698825130547" fill="none" id="id30" stroke="none" /><text fill="#e1ed5e" style="font-size:6.75px; font-family:Arial;" text-anchor="middle"><textPath startOffset="21.466115282336833" xlink:href="#id30">June</textPath></text><line stroke="#e1ed5e" stroke-width="0.3" x1="102.19456741930631" x2="102.32365962044197" y1="184.97166512339345" y2="189.96999836594603" /><path d="M 102.22038585953345 185.97133177190398 a86.0,86.0 0 0,1 -42.740103519485714,-10.115201625700543" fill="none" id="id31" stroke="none" /><text fill="#e1ed5e" style="font-size:6.75px; font-family:Arial;" text-anchor="middle"><textPath startOffset="22.20632615414155" xlink:href="#id31">July</textPath></text><line stroke="#e1ed5e" stroke-width="0.3" x1="58.666819895761336" x2="56.23545636021788" y1="174.27360380694188" y2="178.64263932499728" /><path d="M 58.180547188652646 175.14741091055294 a86.0,86.0 0 0,1 -31.652253787137756,-30.449443065178592" fill="none" id="id32" stroke="none" /><text fill="#e1ed5e" style="font-size:6.75px; font-family:Arial;" text-anchor="middle"><textPath startOffset="22.20632615414155" xlink:href="#id32">August</textPath></text><line stroke="#e1ed5e" stroke-width="0.3" x1="26.63291911575756" x2="22.317208475507996" y1="142.92168965132927" y2="145.44649492493687" /><path d="M 25.769776987707644 143.4266507060508 a86.0,86.0 0 0,1 -11.730757126820373,-40.83630448921669" fill="none" id="id33" stroke="none" /><text fill="#e1ed5e" style="font-size:6.75px; font-family:Arial;" text-anchor="middle"><textPath startOffset="21.46611528233685" xlink:href="#id33">September</textPath></text><line stroke="#e1ed5e" stroke-width="0.3" x1="15.007084014347285" x2="10.007500721073583" y1="101.09737516637583" y2="101.16192664675087" /><path d="M 14.007167355692545 101.11028546245083 a86.0,86.0 0 0,1 10.666146001902534,-42.60595125391555" fill="none" id="id34" stroke="none" /><text fill="#e1ed5e" style="font-size:6.75px; font-family:Arial;" text-anchor="middle"><textPath startOffset="22.20632615414155" xlink:href="#id34">October</textPath></text><path d="M 80.65960295795068 91.81776055985345 l -17.872016029865247 -7.561019255011098 a40.40561694835825,40.40561694835825 0 0,0 0.27650773952462443,-0.638217985965554 l 17.739217580497943 7.867536385563252" fill="#ffe115" stroke="none" /><path d="M 80.95270993114464 91.15688171328213 l -15.78239069117252 -7.327317808712343 a38.40038626578968,38.40038626578968 0 0,0 0.2835078687534491,-0.5971398751155601 l 15.65392462857732 7.597900099468435" fill="#ffc712" stroke="none" /><path d="M 81.26839172434947 90.50648371742162 l -20.008484279946337 -10.140660028018194 a43.43150527683565,43.43150527683565 0 0,0 0.34370983241270553,-0.6639379955789725 l 19.83096501437352 10.483570745857502" fill="#f6ff19" stroke="none" /><line stroke="#e1ed5e" stroke-width="0.3" x1="26.266209847984257" x2="21.92892807433627" y1="57.711370442889674" y2="55.22380399835377" /><path d="M 25.39875349325466 57.213857153982495 a86.0,86.0 0 0,1 29.58750427330802,-30.492523968695096" fill="none" id="id35" stroke="none" /><text fill="#e1ed5e" style="font-size:6.75px; font-family:Arial;" text-anchor="middle"><textPath startOffset="21.46611528233685" xlink:href="#id35">November</textPath></text><path d="M 81.78341655067847 89.55222093294921 l -14.99499631506505 -8.600098314092763 a38.28616803981946,38.28616803981946 0 0,0 0.33279855129868974,-0.5688606024048626 l 14.844738089296037 8.856938328851518" fill="#ffc612" stroke="none" /><path d="M 81.96595687620814 89.24020034530311 l -15.495745589110417 -9.245354294346617 a39.04424305396124,39.04424305396124 0 0,0 0.3493236398910636,-0.5741962155142412 l 15.334306150933134 9.510718283067932" fill="#ffd013" stroke="none" /><path d="M 82.7489923806493 88.02491185347247 l -14.723827912032927 -10.220802227408262 a38.9236130999013,38.9236130999013 0 0,0 0.38680318312313566,-0.547105671353781 l 14.545712109105914 10.472734399093829" fill="#ffce13" stroke="none" /><path d="M 82.95767976084542 87.72973835380427 l -15.182338106626847 -10.931097312754211 a39.7080805761798,39.7080805761798 0 0,0 0.40414768592623346,-0.5512569894130767 l 14.991927808186983 11.19081674583879" fill="#ffd814" stroke="none" /><path d="M 83.84228863543731 86.58626213691792 l -12.257591281810072 -10.175953300391846 a36.93105676355658,36.93105676355658 0 0,0 0.41026778931630037,-0.4856276574283456 l 12.080612879006647 10.385439907449307" fill="#ffb410" stroke="none" /><path d="M 84.07557802195018 86.31012108654704 l -17.020343271320108 -14.632018592006146 a43.44522339274852,43.44522339274852 0 0,0 0.4923960312453501,-0.562893782974046 l 16.765955376496915 14.922827931183132" fill="#f6ff19" stroke="none" /><path d="M 85.31137513191541 84.99185889309783 l -7.203112761843431 -7.359799416864752 a31.298129971811118,31.298129971811118 0 0,0 0.38827082386918554,-0.3735162249355854 l 7.075358694361817 7.482698728562649" fill="#ff6609" stroke="none" /><path d="M 85.83668400450813 84.49514656593479 l -42.48994798647562 -46.514560302195655 a84.0,84.0 0 0,0 1.0759560496161145,-0.9660039649228849 l 41.68298094926353 47.23906327588782" fill="#4dd2ff" stroke="none" /><path d="M 87.80319425747017 82.90503203632743 l -5.331633431397157 -7.472784647701963 a30.179805305000862,30.179805305000862 0 0,0 0.4254905030589847,-0.29808328869954065 l 5.202211788754514 7.563452779165447" fill="#ff5607" stroke="none" /><path d="M 88.39885842347998 82.49532879139004 l -5.350824633870595 -8.07372492551995 a30.685884494221398,30.685884494221398 0 0,0 0.4428016592725588,-0.2880105165203467 l 5.211055948813749 8.16463436619983" fill="#ff5d08" stroke="none" /><path d="M 89.00827224532344 82.1063720568725 l -6.138511584618625 -9.992991536113227 a32.72779622586135,32.72779622586135 0 0,0 0.48256034288692984,-0.29073720718484947 l 5.965589175514046 10.097175352756697" fill="#ff7a0b" stroke="none" /><line stroke="#e1ed5e" stroke-width="0.3" x1="56.762969772571076" x2="54.21961505331055" y1="26.818313649435495" y2="22.513508569990535" /><path d="M 56.25429882871897 25.957352633546506 a86.0,86.0 0 0,1 42.265352541879196,-11.944610805530505" fill="none" id="id36" stroke="none" /><text fill="#e1ed5e" style="font-size:6.75px; font-family:Arial;" text-anchor="middle"><textPath startOffset="22.20632615414155" xlink:href="#id36">December</textPath></text><path d="M 89.63071344664047 81.73862282372117 l -8.058532397463855 -14.191902098575131 a37.32023374760655,37.32023374760655 0 0,0 0.5613601348128309,-0.31239630725161904 l 7.81304817357898 14.328513803386935" fill="#ffb911" stroke="none" /><path d="M 90.91171255644093 81.06846463323043 l -3.519077169085529 -7.330482700802906 a29.131413207355145,29.131413207355145 0 0,0 0.45392538748004574,-0.21312405589681524 l 3.392373570305875 7.389971739339729" fill="#ff4606" stroke="none" /><path d="M 91.90106846888425 80.62456947434976 l -1.3079797329409546 -3.1291375099530767 a24.391505939546565,24.391505939546565 0 0,0 0.38877288014271716,-0.1585902193158908 l 1.253922983209857 3.1511886154525444" fill="#ff0000" stroke="none" /><path d="M 92.57280143429618 80.3572730644239 l -5.291435331156812 -13.994269627733269 a35.96124561249873,35.96124561249873 0 0,0 0.5808900047139643,-0.21394669106856276 l 5.049763000670279 14.083279586608155" fill="#ffa70f" stroke="none" /><path d="M 93.25333710446033 80.11325718540243 l -5.440370917341632 -16.036262508493845 a37.93397032475202,37.93397032475202 0 0,0 0.6201611253825742,-0.20445737262473854 l 5.163526969716648 16.127533605377813" fill="#ffc111" stroke="none" /><path d="M 94.28887869178378 79.79150937346287 l -2.8514716941719818 -10.089776752003237 a31.48496474614622,31.48496474614622 0 0,0 0.5228035078427558,-0.1429019477103485 l 2.6773702971055036 10.137365240539882" fill="#ff6809" stroke="none" /><path d="M 97.47563105711357 79.15227682838746 l -1.841426430651995 -15.20758230499691 a36.31866217601129,36.31866217601129 0 0,0 0.6212796541716883,-0.06980800809324449 l 1.5793800729705887 15.237026266560752" fill="#ffab0f" stroke="none" /><path d="M 98.55514903715128 79.0497635885617 l -1.1012146711333612 -15.967534571525112 a37.005462631388355,37.005462631388355 0 0,0 0.6358559675072413,-0.03835656840736037 l 0.8261966547864971 15.984124409312779" fill="#ffb510" stroke="none" /></svg>