<?xml version="1.0" encoding="utf-8" ?>
<svg baseProfile="full" height="200mm" version="1.1" viewBox="0,0,200,200" width="200mm" xmlns="http://www.w3.org/2000/svg" xmlns:ev="http://www.w3.org/2001/xml-events" xmlns:xlink="http://www.w3.org/1999/xlink"><defs /><rect fill="#1a1a1a" height="200" width="200" x="0" y="0" /><text alignment-baseline="middle" fill="#e1ed5e" style="dominant-baseline: central; font-size:9.0px; font-family:Arial;" text-anchor="middle" x="100.0" y="100.0">2022</text><line stroke="#e1ed5e" stroke-width="0.3" x1="100.0" x2="100.0" y1="15.0" y2="10.0" /><path d="M 100.0 14.0 a86.0,86.0 0 0,1 42.46469731375804,11.215312516191453" fill="none" id="id13" stroke="none" /><text fill="#e1ed5e" style="font-size:6.75px; font-family:Arial;" text-anchor="middle"><textPath startOffset="22.20632615414155" xlink:href="#id13">January</textPath></text><path d="M 100.36148047927253 79.00311137660856 l 1.019053743404968 -59.19256828082432 a80.20133959812055,80.20133959812055 0 0,0 1.3801251405929482,0.035644560615736266 l -2.0378055191927844 59.166256928066225" fill="red" stroke="none" /><line stroke="#e1ed5e" stroke-width="0.3" x1="143.23703022742887" x2="145.7803849466894" y1="26.81831364943548" y2="22.513508569990506" /><path d="M 143.74570117128098 25.957352633546492 a86.0,86.0 0 0,1 28.547481713284135,27.462654790039103" fill="none" id="id14" stroke="none" /><text fill="#e1ed5e" style="font-size:6.75px; font-family:Arial;" text-anchor="middle"><textPath startOffset="19.985693538727396" xlink:href="#id14">February</textPath></text><path d="M 116.38621287248628 86.86637796730983 l 8.003434401665658 -6.4147880424159025 a31.256922923123064,31.256922923123064 0 0,0 0.33288015547359323,0.42272399294240853 l -8.112668637733215 6.276071655520456" fill="red" stroke="none" /><line stroke="#e1ed5e" stroke-width="0.3" x1="172.23445277983987" x2="176.4835382374775" y1="55.19839476539836" y2="52.563006222186495" /><path d="M 173.08426987136738 54.67131705675599 a86.0,86.0 0 0,1 12.851231095245387,41.99856678651699" fill="none" id="id15" stroke="none" /><text fill="#e1ed5e" style="font-size:6.75px; font-family:Arial;" text-anchor="middle"><textPath startOffset="22.20632615414155" xlink:href="#id15">March</textPath></text><path d="M 117.84615892207809 88.93136811851018 l 11.761169500838538 -7.294570011899703 a34.83964810556833,34.83964810556833 0 0,0 0.31170568915731317,0.512362195482112 l -11.884990988282075 7.091040043210509" fill="red" stroke="none" /><path d="M 118.73160827565052 90.50648371742162 l 37.248402689097595 -18.87816103268923 a62.759172248325505,62.759172248325505 0 0,0 0.480077743667897,0.967807436493477 l -37.5678404457189 18.234194007696804" fill="red" stroke="none" /><path d="M 118.89224826269711 90.83032412892265 l 8.834063961057808 -4.287764061793095 a30.81965410376887,30.81965410376887 0 0,0 0.2275397541628884,0.47925675213908897 l -8.906561909062452 4.135064894013466" fill="red" stroke="none" /><path d="M 119.04729006885535 91.15688171328212 l 10.03681555062847 -4.659809706017191 a32.065780265920225,32.065780265920225 0 0,0 0.2281215845948054,0.5026356729927355 l -10.115539452186622 4.486352024182392" fill="red" stroke="none" /><path d="M 119.34039704204932 91.81776055985345 l 8.411378173998202 -3.5585572566913184 a30.133160051984405,30.133160051984405 0 0,0 0.19798679013147774,0.47944071647469794 l -8.471386651015878 3.4132419697633174" fill="red" stroke="none" /><path d="M 119.47837535516314 92.15188598940014 l 9.691479970273607 -3.904834892607763 a31.448565430370888,31.448565430370888 0 0,0 0.19798586651725758,0.5038524349356343 l -9.757259386672564 3.737433452776344" fill="red" stroke="none" /><path d="M 119.61058180528143 92.48833698450437 l 21.441100687892636 -8.212827372892407 a43.96021193641907,43.96021193641907 0 0,0 0.2645890036790216,0.7089669844834319 l -21.57929428007328 7.842537251379642" fill="red" stroke="none" /><path d="M 119.97218684219823 93.5106431181261 l 17.06425286730197 -5.544511858085257 a38.94241727481756,38.94241727481756 0 0,0 0.20165592035460408,0.639304374973633 l -17.15716427142478 5.249957316685205" fill="red" stroke="none" /><path d="M 120.6074358757038 95.95851677861258 l 16.355042437049054 -3.207513539922913 a37.66660001999401,37.66660001999401 0 0,0 0.1193031730050848,0.6373223206929972 l -16.407831333963998 2.9255131417673534" fill="red" stroke="none" /><line stroke="#e1ed5e" stroke-width="0.3" x1="184.98032266829074" x2="189.97916517819016" y1="98.17113171792111" y2="98.06355123074" /><path d="M 185.9800911702706 98.14961562048488 a86.0,86.0 0 0,1 -9.607161424134198,41.387399972396054" fill="none" id="id16" stroke="none" /><text fill="#e1ed5e" style="font-size:6.75px; font-family:Arial;" text-anchor="middle"><textPath startOffset="21.466115282336823" xlink:href="#id16">April</textPath></text><line stroke="#e1ed5e" stroke-width="0.3" x1="174.80103733775053" x2="179.2010983576182" y1="140.37084112569926" y2="142.7455964860345" /><path d="M 175.68104954172406 140.8457921977663 a86.0,86.0 0 0,1 -30.038265399797805,32.042727171017184" fill="none" id="id17" stroke="none" /><text fill="#e1ed5e" style="font-size:6.75px; font-family:Arial;" text-anchor="middle"><textPath startOffset="22.206326154141568" xlink:href="#id17">May</textPath></text><path d="M 115.07121518719521 114.62390073753431 l 32.25219817640533 31.29495125912357 a65.93971808457462,65.93971808457462 0 0,0 -0.7974290280367984,0.8077913953091381 l -31.708728523312995 -31.845483148413376" fill="red" stroke="none" /><path d="M 114.81725581225074 114.88116024355365 l 32.485131482070344 32.62523460774128 a67.04008797360792,67.04008797360792 0 0,0 -0.8247528533672643,0.8071942544851658 l -31.918728676327287 -33.17957896514901" fill="red" stroke="none" /><path d="M 114.0293411484842 115.62618273729858 l 29.74189868902816 33.127168193439296 a65.51954413675898,65.51954413675898 0 0,0 -0.8456939748734699,0.7462266056734222 l -29.167262361248106 -33.634217940885" fill="red" stroke="none" /><path d="M 113.75828350139079 115.86535959552629 l 29.907628997446384 34.487971457057895 a66.64960511846445,66.64960511846445 0 0,0 -0.8732193971712718,0.7441765143596074 l -29.309544123698064 -34.99767236164045" fill="red" stroke="none" /><path d="M 113.20401910651253 116.32954008644616 l 39.30317593686 48.60662362030735 a83.50874737578727,83.50874737578727 0 0,0 -1.125548820822674,0.8942040556537137 l -38.46066962331997 -49.275961589966194" fill="red" stroke="none" /><path d="M 112.63410532772338 116.77436683061366 l 26.969694685101153 35.8078027863853 a65.82815155453363,65.82815155453363 0 0,0 -0.9109833433958107,0.6739236989083542 l -26.34932637128678 -36.266736434033426" fill="red" stroke="none" /><path d="M 112.04921762599082 117.19931262002967 l 30.398802355284975 43.39190486984394 a73.98060581825453,73.98060581825453 0 0,0 -1.0492673387807323,0.7216956433437893 l -29.647378131881357 -43.908741302552826" fill="red" stroke="none" /><path d="M 111.7513745106137 117.40417183066458 l 30.38044398158874 44.99443591640214 a75.29061281615516,75.29061281615516 0 0,0 -1.080331742327651,0.7159849701254062 l -29.601437540521125 -45.510718907618866" fill="red" stroke="none" /><path d="M 111.1453310114006 117.79835938074945 l 33.4359930342018 53.39507814224836 a84.0,84.0 0 0,0 -1.2320832002707651,0.7568461326864875 l -32.51193063399873 -53.96271274176323" fill="red" stroke="none" /><line stroke="#e1ed5e" stroke-width="0.3" x1="143.8653032363475" x2="146.44561519142675" y1="172.8068346515853" y2="177.08958963109032" /><path d="M 144.38136562736335 173.6633856474863 a86.0,86.0 0 0,1 -40.68145358897372,12.25698825130547" fill="none" id="id18" stroke="none" /><text fill="#e1ed5e" style="font-size:6.75px; font-family:Arial;" text-anchor="middle"><textPath startOffset="21.466115282336833" xlink:href="#id18">June</textPath></text><line stroke="#e1ed5e" stroke-width="0.3" x1="102.19456741930631" x2="102.32365962044197" y1="184.97166512339345" y2="189.96999836594603" /><path d="M 102.22038585953345 185.97133177190398 a86.0,86.0 0 0,1 -42.740103519485714,-10.115201625700543" fill="none" id="id19" stroke="none" /><text fill="#e1ed5e" style="font-size:6.75px; font-family:Arial;" text-anchor="middle"><textPath startOffset="22.20632615414155" xlink:href="#id19">July</textPath></text><line stroke="#e1ed5e" stroke-width="0.3" x1="58.666819895761336" x2="56.23545636021788" y1="174.27360380694188" y2="178.64263932499728" /><path d="M 58.180547188652646 175.14741091055294 a86.0,86.0 0 0,1 -31.652253787137756,-30.449443065178592" fill="none" id="id20" stroke="none" /><text fill="#e1ed5e" style="font-size:6.75px; font-family:Arial;" text-anchor="middle"><textPath startOffset="22.20632615414155" xlink:href="#id20">August</textPath></text><line stroke="#e1ed5e" stroke-width="0.3" x1="26.63291911575756" x2="22.317208475507996" y1="142.92168965132927" y2="145.44649492493687" /><path d="M 25.769776987707644 143.4266507060508 a86.0,86.0 0 0,1 -11.730757126820373,-40.83630448921669" fill="none" id="id21" stroke="none" /><text fill="#e1ed5e" style="font-size:6.75px; font-family:Arial;" text-anchor="middle"><textPath startOffset="21.46611528233685" xlink:href="#id21">September</textPath></text><line stroke="#e1ed5e" stroke-width="0.3" x1="15.007084014347285" x2="10.007500721073583" y1="101.09737516637583" y2="101.16192664675087" /><path d="M 14.007167355692545 101.11028546245083 a86.0,86.0 0 0,1 10.666146001902534,-42.60595125391555" fill="none" id="id22" stroke="none" /><text fill="#e1ed5e" style="font-size:6.75px; font-family:Arial;" text-anchor="middle"><textPath startOffset="22.20632615414155" xlink:href="#id22">October</textPath></text><line stroke="#e1ed5e" stroke-width="0.3" x1="26.266209847984257" x2="21.92892807433627" y1="57.711370442889674" y2="55.22380399835377" /><path d="M 25.39875349325466 57.213857153982495 a86.0,86.0 0 0,1 29.58750427330802,-30.492523968695096" fill="none" id="id23" stroke="none" /><text fill="#e1ed5e" style="font-size:6.75px; font-family:Arial;" text-anchor="middle"><textPath startOffset="21.46611528233685" xlink:href="#id23">November</textPath></text><line stroke="#e1ed5e" stroke-width="0.3" x1="56.762969772571076" x2="54.21961505331055" y1="26.818313649435495" y2="22.513508569990535" /><path d="M 56.25429882871897 25.957352633546506 a86.0,86.0 0 0,1 42.265352541879196,-11.944610805530505" fill="none" id="id24" stroke="none" /><text fill="#e1ed5e" style="font-size:6.75px; font-family:Arial;" text-anchor="middle"><textPath startOffset="22.20632615414155" xlink:href="#id24">December</textPath></text></svg>