<?xml version="1.0" encoding="utf-8" ?>
<svg baseProfile="full" height="200mm" version="1.1" viewBox="0,0,200,200" width="200mm" xmlns="http://www.w3.org/2000/svg" xmlns:ev="http://www.w3.org/2001/xml-events" xmlns:xlink="http://www.w3.org/1999/xlink"><defs /><rect fill="#1a1a1a" height="200" width="200" x="0" y="0" /><text alignment-baseline="middle" fill="#e1ed5e" style="dominant-baseline: central; font-size:9.0px; font-family:Arial;" text-anchor="middle" x="100.0" y="100.0">2025</text><line stroke="#e1ed5e" stroke-width="0.3" x1="100.0" x2="100.0" y1="15.0" y2="10.0" /><path d="M 100.0 14.0 a86.0,86.0 0 0,1 42.46469731375804,11.215312516191453" fill="none" id="id49" stroke="none" /><text fill="#e1ed5e" style="font-size:6.75px; font-family:Arial;" text-anchor="middle"><textPath startOffset="22.20632615414155" xlink:href="#id49">January</textPath></text><path d="M 101.08401301168833 79.027996857942 l 0.4153253413598828 -8.035147429097552 a29.045874057335766,29.045874057335766 0 0,0 0.4990882706910336,0.030106367439030557 l -0.5535756608905283 8.026807792278218" fill="#ff2403" stroke="none" /><path d="M 101.44485096284872 79.0497635885617 l 0.7767485104650621 -11.262798271173297 a32.28955106041219,32.28955106041219 0 0,0 0.5541652849170559,0.04301389166510563 l -0.9705039847444591 11.247759117319728" fill="#ff5507" stroke="none" /><path d="M 102.16513564639614 79.11191278185805 l 1.5582893454610038 -15.033554046957619 a36.11409980670278,36.11409980670278 0 0,0 0.6177803392066968,0.06941481928405319 l -1.8168363881774259 15.004503274202964" fill="#ff8d0d" stroke="none" /><path d="M 102.88285421437855 79.19881850522331 l 2.1100458502752546 -15.224996975206869 a36.37051809098581,36.37051809098581 0 0,0 0.6193916889151083,0.09128223415801037 l -2.371806519619019 15.186420256887889" fill="#ff910d" stroke="none" /><path d="M 103.2404852339499 79.25152402106235 l 2.674364144236678 -17.123663957570333 a38.33124608641202,38.33124608641202 0 0,0 0.651030284348891,0.10742557516029687 l -2.968723634724444 17.075092119470412" fill="#ffad10" stroke="none" /><path d="M 106.74666289553966 80.11325718540242 l 5.236465451224849 -15.435222316336674 a37.29928398355612,37.29928398355612 0 0,0 0.6062341361496291,0.21150318638330523 l -5.501381591437752 15.342798276781162" fill="#ff9e0e" stroke="none" /><path d="M 107.4271985657038 80.35727306442388 l 7.464909832277099 -19.742461997880024 a42.10662655522583,42.10662655522583 0 0,0 0.6757448578182468,0.26217850650722996 l -7.803637855095013 19.611040787482246" fill="#ffe115" stroke="none" /><path d="M 107.76421540070413 80.48803036053334 l 8.799028405908107 -22.11252087330208 a44.79887560915847,44.79887560915847 0 0,0 0.7140431566994616,0.2912761321736458 l -9.178355432195955 21.957783854944857" fill="#f9ff18" stroke="none" /><path d="M 108.09893153111575 80.62456947434976 l 11.079005830993095 -26.504793496149972 a49.72713783997168,49.72713783997168 0 0,0 0.7869112182296385,0.33691431642526365 l -11.53360080701305 26.310159651761918" fill="#bbff1f" stroke="none" /><path d="M 108.43124777332544 80.76684994638697 l 12.687041226848077 -28.941358884546368 a52.600051727423704,52.600051727423704 0 0,0 0.826116077584603,0.3706542033065485 l -13.18333942289946 28.71868435072329" fill="#98ff23" stroke="none" /><path d="M 108.76106565485865 80.91482961587045 l 8.488676202411167 -18.491795181203532 a41.34709101304075,41.34709101304075 0 0,0 0.6442699561355006,0.3024933831225664 l -8.805724369846265 18.34293681544096" fill="#ffd714" stroke="none" /><line stroke="#e1ed5e" stroke-width="0.3" x1="143.23703022742887" x2="145.7803849466894" y1="26.81831364943548" y2="22.513508569990506" /><path d="M 143.74570117128098 25.957352633546492 a86.0,86.0 0 0,1 28.547481713284135,27.462654790039103" fill="none" id="id50" stroke="none" /><text fill="#e1ed5e" style="font-size:6.75px; font-family:Arial;" text-anchor="middle"><textPath startOffset="19.985693538727396" xlink:href="#id50">February</textPath></text><path d="M 112.19680574252982 82.90503203632743 l 17.577964313234865 -24.637166742232807 a51.265075821513165,51.265075821513165 0 0,0 0.7139386443561747,0.5187067875112523 l -17.99944827394483 24.33094071990488" fill="#a8ff21" stroke="none" /><path d="M 112.48926042617603 83.11751280151076 l 20.46136028602529 -27.65885579329415 a55.404644578149245,55.404644578149245 0 0,0 0.7618240105519214,0.5737900504796315 l -20.934430450335594 27.30254915330867" fill="#77ff27" stroke="none" /><path d="M 113.06298171725822 83.55741782278167 l 32.10141247792317 -40.40655679519846 a72.60610928098882,72.60610928098882 0 0,0 0.9718728839210055,0.7858536162353832 l -32.79218876040866 39.84799708169895" fill="#3effb3" stroke="none" /><path d="M 113.34407831869373 83.78471172551755 l 3.6639814293971185 -4.452350600100534 a26.766123982467125,26.766123982467125 0 0,0 0.35323950126469417,0.2958279236849597 l -3.74007846762093 4.388621519021755" fill="#ff0000" stroke="none" /><path d="M 113.6212207817346 84.01681056812373 l 6.25212958453771 -7.336271330122184 a30.638983419999455,30.638983419999455 0 0,0 0.3984617321505155,0.3455420876138169 l -6.37748511533499 7.2275642490886955" fill="#ff3c05" stroke="none" /><path d="M 114.16331599549186 84.49514656593476 l 42.48994798647556 -46.51456030219571 a84.0,84.0 0 0,0 1.0591684648206128,0.984381655701438 l -43.28432433509102 45.77627406041963" fill="#4dd2ff" stroke="none" /><path d="M 114.94478906791727 85.2469230424477 l 24.714175425755645 -24.397141394343787 a55.72766872668863,55.72766872668863 0 0,0 0.6680307485248659,0.6884644079154857 l -25.13047043798362 23.968112790878187" fill="#73ff27" stroke="none" /><path d="M 116.60985879189232 87.15038557335679 l 5.287606622569409 -4.090564958502058 a27.68517056437342,27.68517056437342 0 0,0 0.2883529953060774,0.37943874146461654 l -5.3572355580996 3.9989414411564073" fill="#ff0e01" stroke="none" /><path d="M 117.65298651832404 88.62581576622439 l 5.849885706924403 -3.7692023221125686 a27.95902643543601,27.95902643543601 0 0,0 0.25718630205504966,0.4068069664270555 l -5.913899605225408 3.6679477079713068" fill="#ff1302" stroke="none" /><line stroke="#e1ed5e" stroke-width="0.3" x1="172.23445277983987" x2="176.4835382374775" y1="55.19839476539836" y2="52.563006222186495" /><path d="M 173.08426987136738 54.67131705675599 a86.0,86.0 0 0,1 12.851231095245387,41.99856678651699" fill="none" id="id51" stroke="none" /><text fill="#e1ed5e" style="font-size:6.75px; font-family:Arial;" text-anchor="middle"><textPath startOffset="22.20632615414155" xlink:href="#id51">March</textPath></text><path d="M 118.73160827565052 90.50648371742162 l 8.811214717450918 -4.46568223926355 a30.87824997958128,30.87824997958128 0 0,0 0.23620388936863632,0.4761726276104712 l -8.886778619772963 4.313350023154129" fill="#ff4006" stroke="none" /><path d="M 119.04729006885535 91.15688171328212 l 13.102239376132802 -6.0829993245857015 a35.445468405434106,35.445468405434106 0 0,0 0.25216527875813066,0.5556127659691872 l -13.20500697185428 5.856564549774452" fill="#ff840c" stroke="none" /><path d="M 119.196687751892 91.48605970444005 l 7.445112176896288 -3.301988415245955 a29.1444964743677,29.1444964743677 0 0,0 0.1994445190630417,0.46034544814954786 l -7.50084740580201 3.1733438225098043" fill="#ff2503" stroke="none" /><path d="M 119.34039704204932 91.81776055985345 l 26.415535618565535 -11.175480880816531 a49.6822574936702,49.6822574936702 0 0,0 0.326432099079152,0.7904812202820074 l -26.603989404530886 10.71912509008122" fill="#bbff1f" stroke="none" /><path d="M 119.85752413597 93.16781622104841 l 28.98724940471284 -9.97335890533107 a51.654991696387256,51.654991696387256 0 0,0 0.28204291133830994,0.8432724058021942 l -29.154629609822923 9.472913396606561" fill="#a3ff21" stroke="none" /><path d="M 120.08093135843002 93.85539295169968 l 34.02731340502689 -10.41209025872587 a56.58468323759222,56.58468323759222 0 0,0 0.27697960717270426,0.9338375414478899 l -34.2014989093113 9.82482333053145" fill="#6aff28" stroke="none" /><path d="M 120.18372546131832 94.20196356495316 l 38.184832493180416 -10.96908747029499 a60.729111649560316,60.729111649560316 0 0,0 0.27997054378237307,1.0072030067119193 l -38.36798980752915 10.310173160164119" fill="#3cff2e" stroke="none" /><path d="M 120.53481517161879 95.60439243477599 l 28.4726217441115 -6.094745460049458 a50.11762543900248,50.11762543900248 0 0,0 0.1733132022118487,0.8451367249159359 l -28.573314242238343 5.6037330789701105" fill="#b6ff1f" stroke="none" /><path d="M 120.6074358757038 95.95851677861258 l 28.152817299905166 -5.521266179772433 a49.68911818355068,49.68911818355068 0 0,0 0.15738265359696768,0.8407444286747219 l -28.243685677411992 5.035843673635148" fill="#bbff1f" stroke="none" /><path d="M 120.78858239683441 97.02765380044208 l 31.526699350229077 -4.507679417935094 a52.84732242519942,52.84732242519942 0 0,0 0.12100527148972016,0.9016298236163663 l -31.599620620776633 3.964331252254064" fill="#95ff23" stroke="none" /><path d="M 120.83666639777658 97.38593545837742 l 42.98175813236598 -5.392277618957563 a64.3186817674444,64.3186817674444 0 0,0 0.12836063086419508,1.0997154967281924 l -43.06820911623377 4.651618383904518" fill="#33ff4e" stroke="none" /><path d="M 120.87857604477298 97.74499172005257 l 28.572971640593128 -3.0860479897704227 a49.73914404726253,49.73914404726253 0 0,0 0.08461072340351825,0.8520184378865322 l -28.621859489678872 2.5937540211794556" fill="#bbff1f" stroke="none" /><path d="M 120.91429891909075 98.10471618934814 l 34.70864872615706 -3.1453476052329377 a55.85087528245896,55.85087528245896 0 0,0 0.07852504389750585,0.9582044321921233 l -34.75764825387406 2.5474292558330456" fill="#72ff27" stroke="none" /><path d="M 120.98425023603335 99.18683210126433 l 28.67188638264474 -1.111074131327662 a49.69340611472598,49.69340611472598 0 0,0 0.025765570919850114,0.8550338621611232 l -28.686763648020236 0.6173701217415396" fill="#bbff1f" stroke="none" /><line stroke="#e1ed5e" stroke-width="0.3" x1="184.98032266829074" x2="189.97916517819016" y1="98.17113171792111" y2="98.06355123074" /><path d="M 185.9800911702706 98.14961562048488 a86.0,86.0 0 0,1 -9.607161424134198,41.387399972396054" fill="none" id="id52" stroke="none" /><text fill="#e1ed5e" style="font-size:6.75px; font-family:Arial;" text-anchor="middle"><textPath startOffset="21.466115282336823" xlink:href="#id52">April</textPath></text><path d="M 120.9904718944345 100.63252640178507 l 14.932374032876144 0.44997181886264714 a35.939152214750486,35.939152214750486 0 0,0 -0.023955784673450657,0.618192357285469 l -14.92241611535149 -0.7069414231621223" fill="#ff8b0c" stroke="none" /><path d="M 120.9764740272857 100.99374915477107 l 15.126864066721401 0.716627034700279 a36.14382946285154,36.14382946285154 0 0,0 -0.03479041363538388,0.6212062063377222 l -15.112287302198489 -0.9769049573734245" fill="#ff8e0d" stroke="none" /><path d="M 120.95626037817324 101.35467743843564 l 22.1997378085244 1.4350596626351042 a43.246072799542624,43.246072799542624 0 0,0 -0.054414765124595074,0.7424462373929257 l -22.17174648473547 -1.8169790365248002" fill="#fff016" stroke="none" /><path d="M 120.92983693683757 101.71520430193887 l 15.461617172486978 1.2670826040935528 a36.513449130162535,36.513449130162535 0 0,0 -0.056726953294667856,0.625977202625882 l -15.437515622915235 -1.5330411952680054" fill="#ff930d" stroke="none" /><path d="M 120.89721153311464 102.0752229133903 l 14.874279135539895 1.4771083133901255 a35.94744221502273,35.94744221502273 0 0,0 -0.06644747493862438,0.6152210929006233 l -14.846649359100219 -1.7329257281755404" fill="#ff8b0c" stroke="none" /><path d="M 120.81339534386255 102.79330883721812 l 29.831532255397025 4.003608315705668 a51.09898995398983,51.09898995398983 0 0,0 -0.12450134824233543,0.8707621396315636 l -29.75819685613809 -4.5165159273176405" fill="#aaff21" stroke="none" /><path d="M 120.76222939487914 103.15116336523771 l 14.932797259914446 2.2664080417862214 a36.103808771882065,36.103808771882065 0 0,0 -0.09854318950856218,0.6136285351366367 l -14.891572316044595 -2.523115806616063" fill="#ff8d0d" stroke="none" /><path d="M 120.70491114924044 103.5080841355445 l 5.879008761836136 0.9960949468204338 a26.962797092374288,26.962797092374288 0 0,0 -0.08147073333322509,0.4569311387124243 l -5.860991586163722 -1.0971448362660763" fill="#ff0300" stroke="none" /><path d="M 120.64145759157962 103.86396538481128 l 30.524417324075753 5.714000157618545 a52.05462688192535,52.05462688192535 0 0,0 -0.1724497086239211,0.8793173489982363 l -30.421537682476167 -6.238581233684727" fill="#9eff22" stroke="none" /><path d="M 120.5718875245553 104.21870165774334 l 35.07458937053272 7.192788126296733 a56.80451117584602,56.80451117584602 0 0,0 -0.20467466394802403,0.9561718902610167 l -34.945580667860256 -7.795473835973919" fill="#67ff28" stroke="none" /><path d="M 120.49622156327973 104.57218783832717 l 22.193963364654017 4.9509110284965185 a43.739470746780654,43.739470746780654 0 0,0 -0.17024950406376144,0.7334304076631923 l -22.105453294659704 -5.332210093508276" fill="#fff717" stroke="none" /><path d="M 120.32669344350535 105.2749913415812 l 51.47139801603969 13.357370672623636 a74.17634967738422,74.17634967738422 0 0,0 -0.33136314538954315,1.2331255341102776 l -51.23384679430838 -14.241387139909461" fill="#40ffc5" stroke="none" /><path d="M 120.23288151984713 105.62410040840565 l 21.776058062218738 6.053054624031382 a43.60168522501429,43.60168522501429 0 0,0 -0.20722710617290457,0.7213847422301684 l -21.668638319159733 -6.426996841766132" fill="#fff517" stroke="none" /><path d="M 120.13307415673323 105.97154293290107 l 22.753372025189382 6.748732799518744 a44.73312733113718,44.73312733113718 0 0,0 -0.22531272636707173,0.7363350262746908 l -22.633832526316176 -7.139394798345492" fill="#faff18" stroke="none" /><path d="M 120.02730092923936 106.31721596034902 l 27.794007201503934 8.767069837106844 a50.143924750211,50.143924750211 0 0,0 -0.26673642662175095,0.8209303089787239 l -27.638978523865937 -9.244199046063363" fill="#b6ff1f" stroke="none" /><path d="M 119.67450827220406 107.3425965602758 l 42.62792271054293 15.90889257996539 a66.49980942528111,66.49980942528111 0 0,0 -0.4094669411728802,1.0689889748600991 l -42.347761489776545 -16.64030512165863" fill="#35ff69" stroke="none" /><path d="M 119.54520255179757 107.68017299344265 l 21.39537459374035 8.407187272885086 a43.987884892869786,43.987884892869786 0 0,0 -0.2829832501606404,0.7023412196112758 l -21.247488729322317 -8.774227860339174" fill="#fffa17" stroke="none" /><path d="M 119.26925614724726 108.34839909993367 l 26.096724338376003 11.306397523229709 a49.44070403746154,49.44070403746154 0 0,0 -0.3450464739929781,0.7779887092453266 l -25.898236779651754 -11.753934568967724" fill="#beff1f" stroke="none" /><path d="M 119.12269723197855 108.67885076344098 l 41.33211880820039 18.75861373119009 a66.38975252511503,66.38975252511503 0 0,0 -0.4812478817164004,1.0365651233957047 l -41.00309630964416 -19.467298921864625" fill="#35ff68" stroke="none" /><path d="M 118.97047184881838 109.00673069616215 l 28.29534373443042 13.433958997030842 a52.322479649342526,52.322479649342526 0 0,0 -0.39328252469007635,0.8102784872975387 l -28.059907953125627 -13.919026440293656" fill="#9bff22" stroke="none" /><line stroke="#e1ed5e" stroke-width="0.3" x1="174.80103733775053" x2="179.2010983576182" y1="140.37084112569926" y2="142.7455964860345" /><path d="M 175.68104954172406 140.8457921977663 a86.0,86.0 0 0,1 -30.038265399797805,32.042727171017184" fill="none" id="id53" stroke="none" /><text fill="#e1ed5e" style="font-size:6.75px; font-family:Arial;" text-anchor="middle"><textPath startOffset="22.206326154141568" xlink:href="#id53">May</textPath></text><path d="M 118.12598468904814 110.60418214915192 l 19.81393031069986 11.591675139845737 a43.95558247801585,43.95558247801585 0 0,0 -0.38768640451202113,0.649784713642471 l -19.61146303048961 -11.931021947374312" fill="#fffa17" stroke="none" /><path d="M 117.94076556474637 110.91462005526583 l 26.96389950230162 16.404022292911225 a52.56174620892434,52.56174620892434 0 0,0 -0.47689863112373737,0.7689124412013801 l -26.67753623150992 -16.865731065477878" fill="#98ff23" stroke="none" /><line stroke="#e1ed5e" stroke-width="0.3" x1="143.8653032363475" x2="146.44561519142675" y1="172.8068346515853" y2="177.08958963109032" /><path d="M 144.38136562736335 173.6633856474863 a86.0,86.0 0 0,1 -40.68145358897372,12.25698825130547" fill="none" id="id54" stroke="none" /><text fill="#e1ed5e" style="font-size:6.75px; font-family:Arial;" text-anchor="middle"><textPath startOffset="21.466115282336833" xlink:href="#id54">June</textPath></text><line stroke="#e1ed5e" stroke-width="0.3" x1="102.19456741930631" x2="102.32365962044197" y1="184.97166512339345" y2="189.96999836594603" /><path d="M 102.22038585953345 185.97133177190398 a86.0,86.0 0 0,1 -42.740103519485714,-10.115201625700543" fill="none" id="id55" stroke="none" /><text fill="#e1ed5e" style="font-size:6.75px; font-family:Arial;" text-anchor="middle"><textPath startOffset="22.20632615414155" xlink:href="#id55">July</textPath></text><line stroke="#e1ed5e" stroke-width="0.3" x1="58.666819895761336" x2="56.23545636021788" y1="174.27360380694188" y2="178.64263932499728" /><path d="M 58.180547188652646 175.14741091055294 a86.0,86.0 0 0,1 -31.652253787137756,-30.449443065178592" fill="none" id="id56" stroke="none" /><text fill="#e1ed5e" style="font-size:6.75px; font-family:Arial;" text-anchor="middle"><textPath startOffset="22.20632615414155" xlink:href="#id56">August</textPath></text><line stroke="#e1ed5e" stroke-width="0.3" x1="26.63291911575756" x2="22.317208475507996" y1="142.92168965132927" y2="145.44649492493687" /><path d="M 25.769776987707644 143.4266507060508 a86.0,86.0 0 0,1 -11.730757126820373,-40.83630448921669" fill="none" id="id57" stroke="none" /><text fill="#e1ed5e" style="font-size:6.75px; font-family:Arial;" text-anchor="middle"><textPath startOffset="21.46611528233685" xlink:href="#id57">September</textPath></text><line stroke="#e1ed5e" stroke-width="0.3" x1="15.007084014347285" x2="10.007500721073583" y1="101.09737516637583" y2="101.16192664675087" /><path d="M 14.007167355692545 101.11028546245083 a86.0,86.0 0 0,1 10.666146001902534,-42.60595125391555" fill="none" id="id58" stroke="none" /><text fill="#e1ed5e" style="font-size:6.75px; font-family:Arial;" text-anchor="middle"><textPath startOffset="22.20632615414155" xlink:href="#id58">October</textPath></text><line stroke="#e1ed5e" stroke-width="0.3" x1="26.266209847984243" x2="21.928928074336255" y1="57.711370442889674" y2="55.22380399835377" /><path d="M 25.398753493254645 57.213857153982495 a86.0,86.0 0 0,1 29.58750427330803,-30.492523968695096" fill="none" id="id59" stroke="none" /><text fill="#e1ed5e" style="font-size:6.75px; font-family:Arial;" text-anchor="middle"><textPath startOffset="21.46611528233685" xlink:href="#id59">November</textPath></text><line stroke="#e1ed5e" stroke-width="0.3" x1="56.762969772571076" x2="54.21961505331055" y1="26.818313649435495" y2="22.513508569990535" /><path d="M 56.25429882871897 25.957352633546506 a86.0,86.0 0 0,1 42.265352541879196,-11.944610805530505" fill="none" id="id60" stroke="none" /><text fill="#e1ed5e" style="font-size:6.75px; font-family:Arial;" text-anchor="middle"><textPath startOffset="22.20632615414155" xlink:href="#id60">December</textPath></text></svg>