<?xml version="1.0" encoding="utf-8" ?>
<svg baseProfile="full" height="200mm" version="1.1" viewBox="0,0,200,200" width="200mm" xmlns="http://www.w3.org/2000/svg" xmlns:ev="http://www.w3.org/2001/xml-events" xmlns:xlink="http://www.w3.org/1999/xlink"><defs /><rect fill="#1a1a1a" height="200" width="200" x="0" y="0" /><text alignment-baseline="middle" fill="#e1ed5e" style="dominant-baseline: central; font-size:9.0px; font-family:Arial;" text-anchor="middle" x="100.0" y="100.0">2024</text><line stroke="#e1ed5e" stroke-width="0.3" x1="100.0" x2="100.0" y1="15.0" y2="10.0" /><path d="M 100.0 14.0 a86.0,86.0 0 0,1 42.35913384403234,11.155469271406648" fill="none" id="id37" stroke="none" /><text fill="#e1ed5e" style="font-size:6.75px; font-family:Arial;" text-anchor="middle"><textPath startOffset="22.145653131862478" xlink:href="#id37">January</textPath></text><path d="M 102.87502721639298 79.19773525538626 l 4.294302888517171 -31.07143649671914 a52.366785032387,52.366785032387 0 0,0 0.8894246438615168,0.13071479362789884 l -4.82705263798637 30.99314062979236" fill="red" stroke="none" /><path d="M 103.23170211078529 79.25015418208739 l 2.238320328056309 -14.371622168783993 a35.54488231830267,35.54488231830267 0 0,0 0.6021006805691137,0.0990754378614676 l -2.4846985116784936 14.331080732426857" fill="red" stroke="none" /><path d="M 104.64783097203109 79.52079915486377 l 3.8091380382029163 -16.78376502945771 a38.21058689173998,38.21058689173998 0 0,0 0.6384222060495138,0.15066590229414192 l -4.096692397992315 16.715902983517342" fill="red" stroke="none" /><path d="M 104.9986988182912 79.60360301121754 l 7.256613777187696 -29.609460536449195 a51.4857113541871,51.4857113541871 0 0,0 0.856611191508485,0.21774721512945022 l -7.7638302619215755 29.480528089484476" fill="red" stroke="none" /><path d="M 105.69591212413111 79.78721728523813 l 8.578628485735447 -30.442526112407048 a52.62815617137453,52.62815617137453 0 0,0 0.8674623488351698,0.25250564721418783 l -9.09995084695222 30.290776770890343" fill="red" stroke="none" /><path d="M 106.72888874123014 80.10723608172694 l 10.171048949138632 -30.068898941168293 a52.742541175211,52.742541175211 0 0,0 0.8551681351351097,0.297471868909888 l -10.685722856318758 29.889868639689816" fill="red" stroke="none" /><path d="M 107.06938296918511 80.22567764915836 l 10.96009176404663 -30.657327305899923 a53.557569458075335,53.557569458075335 0 0,0 0.8630696436024008,0.3169311278910204 l -11.484750559303155 30.46466532900018" fill="red" stroke="none" /><path d="M 108.07796709384702 80.6158196554323 l 10.899115047470277 -26.153908430411867 a49.33403668742528,49.33403668742528 0 0,0 0.7789255317050197,0.33247699170970474 l -11.346475654345726 25.96295678904276" fill="red" stroke="none" /><path d="M 109.3889696526874 81.21577127319529 l 5.046606790040557 -10.096594167948346 a32.28757962920005,32.28757962920005 0 0,0 0.4936506140805389,0.2520615209494066 l -5.219184625834675 10.008474695326106" fill="red" stroke="none" /><path d="M 109.71004243097381 81.37971332152246 l 1.9635455443159597 -3.7653574844104614 a25.246578397958636,25.246578397958636 0 0,0 0.3825592194929468,0.20369123664626287 l -2.027893579595466 3.7310957800416253" fill="red" stroke="none" /><line stroke="#e1ed5e" stroke-width="0.3" x1="143.13028292997686" x2="145.6673583964461" y1="26.7553504044142" y2="22.446841604673864" /><path d="M 143.63769802327073 25.89364864446614 a86.0,86.0 0 0,1 29.32050498858742,28.57503671076993" fill="none" id="id38" stroke="none" /><text fill="#e1ed5e" style="font-size:6.75px; font-family:Arial;" text-anchor="middle"><textPath startOffset="20.669276256404974" xlink:href="#id38">February</textPath></text><path d="M 113.59037401385872 83.9905735841838 l 20.091096046102983 -23.667260623966886 a52.04498938277332,52.04498938277332 0 0,0 0.6761400513878397,0.5840336725648516 l -20.494415577253683 23.318882818937315" fill="red" stroke="none" /><path d="M 113.86319453409587 84.22622945171908 l 15.097105676582084 -17.177734922485968 a43.8691315287022,43.8691315287022 0 0,0 0.5613890421260759,0.5019975431657516 l -15.389759745531535 16.916041849436827" fill="red" stroke="none" /><path d="M 114.13192950727249 84.46653392183569 l 19.35710711541325 -21.276851585901905 a49.76459645616602,49.76459645616602 0 0,0 0.6269633649940998,0.5803079306189887 l -19.719500251721318 20.941425909150542" fill="red" stroke="none" /><path d="M 114.39649973595853 84.71141617570332 l 12.3287096269372 -13.09266238556932 a38.98373958351921,38.98373958351921 0 0,0 0.4832638103548376,0.46295579845028023 l -12.55164592315735 12.879094456813458" fill="red" stroke="none" /><path d="M 115.41159269507618 85.73525988315684 l 22.565865173483175 -20.88662791577027 a51.74848771435198,51.74848771435198 0 0,0 0.597823909402745,0.6571131997682446 l -22.921086783727798 20.496177140444352" fill="red" stroke="none" /><path d="M 115.6541949942343 86.00192230759917 l 21.024474116892765 -18.8002143986664 a49.204194250637926,49.204194250637926 0 0,0 0.5576216113563892,0.6344710325362228 l -21.344106792207747 18.43653108831888" fill="red" stroke="none" /><path d="M 115.8921839302757 86.27271002978787 l 24.160920606726197 -20.869627772427247 a52.926344105208685,52.926344105208685 0 0,0 0.5880001815923092,0.6926627354103185 l -24.51561535182562 20.451798254567375" fill="red" stroke="none" /><path d="M 116.35404254752997 86.82634096563983 l 23.172774514582404 -18.666346834307706 a50.75583947467033,50.75583947467033 0 0,0 0.5407516729262875,0.6832220737789237 l -23.48979261815025 18.265804816614107" fill="red" stroke="none" /><path d="M 116.7966241395341 87.39550010848427 l 18.034468890631977 -13.533401669713122 a43.54761692332399,43.54761692332399 0 0,0 0.4435593958017245,0.6017735084535518 l -18.264130306017528 13.221821851990695" fill="red" stroke="none" /><line stroke="#e1ed5e" stroke-width="0.3" x1="172.87174338648825" x2="177.1583165268699" y1="56.24261187166439" y2="53.66864786411523" /><path d="M 173.72905801456457 55.72781907015455 a86.0,86.0 0 0,1 12.242430191666344,42.057860355516425" fill="none" id="id39" stroke="none" /><text fill="#e1ed5e" style="font-size:6.75px; font-family:Arial;" text-anchor="middle"><textPath startOffset="22.145653131862474" xlink:href="#id39">March</textPath></text><path d="M 119.0197475246899 91.09779779509293 l 12.787192010987336 -5.9850515243176226 a35.118538213093984,35.118538213093984 0 0,0 0.25087268112122,0.548202083560326 l -12.888049156963607 5.764660458542612" fill="red" stroke="none" /><path d="M 119.31412917781788 91.75594674310238 l 7.805643273385703 -3.3317649611685285 a29.486973822736925,29.486973822736925 0 0,0 0.19471815200204146,0.46725268015061416 l -7.861687269924228 3.1972797715766363" fill="red" stroke="none" /><path d="M 119.94978838288452 93.4421083053983 l 14.627803830072768 -4.808449664047359 a36.39785157295552,36.39785157295552 0 0,0 0.19002327629991358,0.5952452065360754 l -14.708191822149939 4.5566354238198965" fill="red" stroke="none" /><path d="M 120.05942366710727 93.78553927170692 l 15.205641618573315 -4.710746642341074 a36.91862654128228,36.91862654128228 0 0,0 0.1823493240606454,0.6069815938943923 l -15.284267262637588 4.449027444855958" fill="red" stroke="none" /><path d="M 120.35273937422433 94.82641323984039 l 13.741394898693494 -3.4930088479411348 a35.17840063524919,35.17840063524919 0 0,0 0.1437497891291241,0.5865481943826379 l -13.799332214338909 3.256604828950402" fill="red" stroke="none" /><path d="M 120.77682067341334 96.94652285012252 l 8.466292123589286 -1.2442533893863823 a29.55723488160454,29.55723488160454 0 0,0 0.06946721985108226,0.5026301977855828 l -8.48640385999558 1.0987348834007138" fill="red" stroke="none" /><line stroke="#e1ed5e" stroke-width="0.3" x1="184.99686870605535" x2="189.99668451229388" y1="99.2704041080226" y2="99.22748670261217" /><path d="M 185.99683186730306 99.26182062694052 a86.0,86.0 0 0,1 -10.086455211305974,41.156179273409016" fill="none" id="id40" stroke="none" /><text fill="#e1ed5e" style="font-size:6.75px; font-family:Arial;" text-anchor="middle"><textPath startOffset="21.40746469413373" xlink:href="#id40">April</textPath></text><path d="M 120.99303781780057 100.54070618675476 l 30.357604905249797 0.7819042165210938 a51.36767277528951,51.36767277528951 0 0,0 -0.030271001373229058,0.8813071764217854 l -30.339709216879722 -1.3029176575069898" fill="red" stroke="none" /><path d="M 120.96210409425399 101.26102812881392 l 62.886312282761985 3.7830843864417396 a84.0,84.0 0 0,0 -0.09894415533973566,1.438626303382626 l -62.812104166257186 -4.86205411397871" fill="red" stroke="none" /><path d="M 120.592083275326 104.11899336999214 l 3.049624295490231 0.6100102688076532 a24.1100355097161,24.1100355097161 0 0,0 -0.08466329574249169,0.405144518585877 l -3.038703288923375 -0.6622712386789393" fill="red" stroke="none" /><path d="M 120.51834098615036 104.47187691870673 l 4.173068306684308 0.9095008145855635 a25.271029246444566,25.271029246444566 0 0,0 -0.09601684052975647,0.4230679156701365 l -4.156840604596887 -0.981003064194717" fill="red" stroke="none" /><path d="M 119.94978838288452 106.5578916946017 l 41.492256290135565 13.639328783497694 a64.6765225459931,64.6765225459931 0 0,0 -0.3557657731459916,1.0517582928709928 l -41.25200509541721 -14.349588750842846" fill="red" stroke="none" /><line stroke="#e1ed5e" stroke-width="0.3" x1="174.33088141563837" x2="178.70328620479359" y1="141.23008692659167" y2="143.65538615756765" /><path d="M 175.20536237346943 141.71514677278685 a86.0,86.0 0 0,1 -30.301960400862466,31.631185727798858" fill="none" id="id41" stroke="none" /><text fill="#e1ed5e" style="font-size:6.75px; font-family:Arial;" text-anchor="middle"><textPath startOffset="22.145653131862474" xlink:href="#id41">May</textPath></text><path d="M 117.62189284568427 111.42229804090321 l 20.809121943734908 13.488221435250122 a45.79821916097143,45.79821916097143 0 0,0 -0.43328508991607256,0.6560488504694176 l -20.57451241489811 -13.8434501640586" fill="red" stroke="none" /><path d="M 115.16444852881244 114.52719865689866 l 5.469413748659401 5.239574648071308 a28.574142145928874,28.574142145928874 0 0,0 -0.3423633957004145,0.3512950045576059 l -5.37866355180818 -5.332692344696651" fill="red" stroke="none" /><path d="M 114.65682725009322 115.03919595460226 l 9.895339540944828 10.153490100843399 a35.17783854677825,35.17783854677825 0 0,0 -0.43608377435781825,0.4177583912207273 l -9.719583280721698 -10.321860622369707" fill="red" stroke="none" /><path d="M 114.13192950727249 115.5334660781643 l 12.548104874364414 13.792565361359989 a39.64644189075855,39.64644189075855 0 0,0 -0.5073516903838813,0.45367701002703925 l -12.309488157157155 -14.005937901270414" fill="red" stroke="none" /><path d="M 113.86319453409587 115.77377054828091 l 6.039064908970492 6.871347290553482 a30.147989864563442,30.147989864563442 0 0,0 -0.3916662037597312,0.3383119383799332 l -5.920219225447906 -6.9740033613981325" fill="red" stroke="none" /><path d="M 113.59037401385872 116.0094264158162 l 12.707827866753297 14.96978927365672 a40.63627968808551,40.63627968808551 0 0,0 -0.5356745324684634,0.4468787469101379 l -12.44897900012294 -15.185730204478729" fill="red" stroke="none" /><path d="M 113.31354834802062 116.24036423190432 l 21.93168393887321 26.75308836349864 a55.59373494405881,55.59373494405881 0 0,0 -0.7432332504104185,0.5986960958093419 l -21.469199918107538 -27.125632753101385" fill="red" stroke="none" /><path d="M 113.03279911837588 116.46651593811092 l 11.821577405553457 14.936176871451403 a40.04833514748131,40.04833514748131 0 0,0 -0.5427313293756449,0.42203116440360194 l -11.563436131542582 -15.136909087475797" fill="red" stroke="none" /><path d="M 112.45986205192187 116.90419585922612 l 26.050852174169975 35.342984185285665 a64.90641673060794,64.90641673060794 0 0,0 -0.9025669635199199,0.6533888776089584 l -25.44030420027609 -35.7849738342677" fill="red" stroke="none" /><path d="M 111.8722381534696 117.32195027204791 l 12.764017145761496 18.623082472939863 a43.577407612283864,43.577407612283864 0 0,0 -0.6206744939020956,0.41761749931989606 l -12.442446363762397 -18.83944964631688" fill="red" stroke="none" /><line stroke="#e1ed5e" stroke-width="0.3" x1="143.1302829299769" x2="145.66735839644613" y1="173.24464959558577" y2="177.55315839532614" /><path d="M 143.63769802327073 174.10635135553383 a86.0,86.0 0 0,1 -40.68552437913181,11.842963189579606" fill="none" id="id42" stroke="none" /><text fill="#e1ed5e" style="font-size:6.75px; font-family:Arial;" text-anchor="middle"><textPath startOffset="21.407464694133747" xlink:href="#id42">June</textPath></text><path d="M 110.65571695917076 118.09573695890943 l 17.54439906054364 29.794225176795788 a55.57602915722418,55.57602915722418 0 0,0 -0.826250233775976,0.47703579488855274 l -17.030356358907266 -30.09100786896051" fill="red" stroke="none" /><path d="M 110.34350942703117 118.27599006163325 l 11.13167115024773 19.668596306359248 a43.60017219535697,43.60017219535697 0 0,0 -0.6545336991419686,0.3630588094483325 l -10.792393262949666 -19.856788031240722" fill="red" stroke="none" /><path d="M 110.02825361518725 118.45085714620011 l 16.902244699818205 31.098226508169578 a56.39471101514962,56.39471101514962 0 0,0 -0.8545441797859926,0.4549966433437007 l -16.365911704245658 -31.38379361923585" fill="red" stroke="none" /><path d="M 109.71004243097381 118.62028667847754 l 18.04226759581918 34.598427077137565 a60.02018165271854,60.02018165271854 0 0,0 -0.917659356023515,0.46856340576738714 l -17.44568101808208 -34.90304843457779" fill="red" stroke="none" /><path d="M 109.06512990194946 118.94263497670748 l 17.046313488291357 35.620239047847306 a60.488963437483264,60.488963437483264 0 0,0 -0.9404918689786713,0.4401976829004002 l -16.43233290544118 -35.90761296231824" fill="red" stroke="none" /><path d="M 108.4095320186766 119.2426549942271 l 22.06078457341406 50.479392373486554 a76.08944790421299,76.08944790421299 0 0,0 -1.201361527365894,0.512789798660299 l -21.190987970877735 -50.85065682180626" fill="red" stroke="none" /><path d="M 108.07796709384702 119.3841803445677 l 15.34732306539594 36.827988360163054 a60.89788280009279,60.89788280009279 0 0,0 -0.9684083944780176,0.3938432634092091 l -14.71286020972748 -37.086018880151556" fill="red" stroke="none" /><path d="M 107.74402155503746 119.51999308798841 l 4.687474584404136 11.81549803773078 a33.711349726093395,33.711349726093395 0 0,0 -0.5397471831758933,0.20878580554254011 l -4.4839551387347125 -11.89422373141136" fill="red" stroke="none" /><path d="M 107.407793817531 119.65005319985036 l 1.756940303094399 4.660492891022843 a25.980665941007477,25.980665941007477 0 0,0 -0.41867329531843184,0.15374263327033402 l -1.6766778561218403 -4.689966373301898" fill="red" stroke="none" /><path d="M 107.06938296918513 119.77432235084164 l 9.486825339516153 26.536338909271027 a49.18114862332934,49.18114862332934 0 0,0 -0.7974236776399792,0.27738534909639223 l -9.029895889831153 -26.69528269093601" fill="red" stroke="none" /><path d="M 106.72888874123015 119.89276391827305 l 14.238117732085644 42.092465127187886 a65.43534198176334,65.43534198176334 0 0,0 -1.0671484182380284,0.350792881335747 l -13.51344657619988 -42.330678929925654" fill="red" stroke="none" /><path d="M 106.0420521117495 120.11202640906438 l 8.149589881729542 27.12733420581656 a49.32504327189022,49.32504327189022 0 0,0 -0.813017612733752,0.23665757802114695 l -7.682712256614183 -27.263235478140224" fill="red" stroke="none" /><path d="M 105.69591212413111 120.21278271476187 l 11.447725314771954 40.623938593691385 a63.20609910601167,63.20609910601167 0 0,0 -1.0468693734969428,0.28532890296791863 l -10.748674540340318 -40.81446799080344" fill="red" stroke="none" /><path d="M 104.64783097203109 120.47920084513623 l 9.973873213914308 43.94672568361843 a66.06431898074624,66.06431898074624 0 0,0 -1.1081112412133622,0.2415076875019417 l -9.21799955608181 -44.111464829254096" fill="red" stroke="none" /><path d="M 103.58742460773223 120.69131181640829 l 5.298414450376351 30.55984655092257 a52.015760782284396,52.015760782284396 0 0,0 -0.8811036336222993,0.14498526761328895 l -4.773033313700979 -30.646297817031527" fill="red" stroke="none" /><path d="M 103.2317021107853 120.74984581791261 l 4.976438343416143 31.952304020725837 a53.33751182170197,53.33751182170197 0 0,0 -0.9059119712454465,0.13313786298103755 l -4.427201266563012 -32.033022957005755" fill="red" stroke="none" /><path d="M 102.875027216393 120.80226474461374 l 4.6567145338019635 33.69366662684062 a55.013940686283256,55.013940686283256 0 0,0 -0.9366049476443657,0.12126226195686737 l -4.0776317642668225 -33.768640484997874" fill="red" stroke="none" /><path d="M 102.51750503828377 120.84855314841334 l 1.4367244608527858 11.898139557303448 a32.98456933316679,32.98456933316679 0 0,0 -0.5627231901539488,0.06305430718500343 l -1.2322653690980379 -11.921049624995423" fill="red" stroke="none" /><path d="M 102.15924093988457 120.88869738790638 l 3.5597364575126256 34.43722109384157 a55.62071519066398,55.62071519066398 0 0,0 -0.9505856650841437,0.09002145080365859 l -2.9680512290434664 -34.49325430015042" fill="red" stroke="none" /><line stroke="#e1ed5e" stroke-width="0.3" x1="101.45913802915013" x2="101.54496967792366" y1="184.9874750549273" y2="189.98673829345242" /><path d="M 101.47630435890484 185.9873277026323 a86.0,86.0 0 0,1 -42.54439059252881,-10.42667462771756" fill="none" id="id43" stroke="none" /><text fill="#e1ed5e" style="font-size:6.75px; font-family:Arial;" text-anchor="middle"><textPath startOffset="22.145653131862474" xlink:href="#id43">July</textPath></text><path d="M 100.36049292484886 120.99690560180557 l 0.9381139913323742 54.640436918415375 a75.64848949875983,75.64848949875983 0 0,0 -1.2986069161812197,0.011146978538890035 l -6.692509774289397e-15 -54.64848949875983" fill="red" stroke="none" /><path d="M 100.0 121.0 l 6.1011054119322914e-15 49.81930640067094 a70.81930640067094,70.81930640067094 0 0,0 -1.2157075666735668,-0.010435387326541375 l 0.8552146418247086 -49.811965411538836" fill="red" stroke="none" /><path d="M 99.27912038922189 120.98762331915562 l -0.16587074393891937 4.829145728924928 a25.831993540443605,25.831993540443605 0 0,0 -0.4430485059806344,-0.019026409167202347 l 0.24874501052039252 -4.8255867513318975" fill="red" stroke="none" /><path d="M 98.91894614982273 120.97215588758144 l -0.9378756067576594 18.194536215616246 a39.21869256437251,39.21869256437251 0 0,0 -0.6720508581557466,-0.0404289107771492 l 1.2500708170458523 -18.175755327014404" fill="red" stroke="none" /><path d="M 98.55909050195518 120.95050786540614 l -2.609384228439021 37.939874000384954 a59.02950072268518,59.02950072268518 0 0,0 -1.0103348944128885,-0.07820631063200933 l 3.260288117627146 -37.88948992275789" fill="red" stroke="none" /><path d="M 98.19965949673042 120.92268563240118 l -1.6668272695373454 19.371059474976096 a40.44264020984636,40.44264020984636 0 0,0 -0.6911848204369808,-0.0654559211175308 l 1.9991116533593416 -19.339591798353382" fill="red" stroke="none" /><path d="M 97.84075906011543 120.88869738790638 l -4.456244695931542 43.110125053831666 a64.3398315518995,64.3398315518995 0 0,0 -1.0976500829570341,-0.12299398127431459 l 5.195630680489375 -43.027275312050385" fill="red" stroke="none" /><path d="M 97.48249496171623 120.84855314841334 l -3.3728305308503366 27.93187521521782 a49.13477632447672,49.13477632447672 0 0,0 -0.8365129644016934,-0.1083033508147881 l 3.8518213171428237 -27.869860268202633" fill="red" stroke="none" /><path d="M 96.76829788921471 120.74984581791261 l -5.4848860426148125 35.21690298535057 a56.64146785389268,56.64146785389268 0 0,0 -0.9594592559869685,-0.157878655455586 l 6.088622801654845 -35.11755833139932" fill="red" stroke="none" /><path d="M 96.41257539226777 120.69131181640829 l -3.0728297652881698 17.723265513448812 a38.987674202815796,38.987674202815796 0 0,0 -0.658455898065059,-0.11999259894747434 l 3.376620396904286 -17.66790474056997" fill="red" stroke="none" /><path d="M 96.05791012581884 120.62667999033965 l -1.6270326866010685 8.513322534868333 a29.66740422190896,29.66740422190896 0 0,0 -0.49940626941040517,-0.09989524057037873 l 1.7729354415424317 -8.484137897635092" fill="red" stroke="none" /><path d="M 95.35216902796893 120.47920084513623 l -12.359887224943812 54.45994366534496 a76.84489480915758,76.84489480915758 0 0,0 -1.2839239398939994,-0.30300255387134495 l 13.292943318577699 -54.239744967827384" fill="red" stroke="none" /><path d="M 95.00130118170881 120.39639698878247 l -7.407936782580718 30.226910037554994 a52.12143341482129,52.12143341482129 0 0,0 -0.8671882354592587,-0.22043585834052995 l 7.925730311265355 -30.0952889473792" fill="red" stroke="none" /><path d="M 94.6519064749342 120.30758222061772 l -8.521153171782956 32.356206532182995 a54.45944040970004,54.45944040970004 0 0,0 -0.9020002985324915,-0.2458441923821895 l 9.075334871250144 -32.20516184565666" fill="red" stroke="none" /><line stroke="#e1ed5e" stroke-width="0.3" x1="58.13341422392154" x2="55.67067388415222" y1="173.97424548756322" y2="178.32567169271397" /><path d="M 57.64086615596768 174.84453072859336 a86.0,86.0 0 0,1 -31.369924170532247,-30.572349798747897" fill="none" id="id44" stroke="none" /><text fill="#e1ed5e" style="font-size:6.75px; font-family:Arial;" text-anchor="middle"><textPath startOffset="22.145653131862474" xlink:href="#id44">August</textPath></text><line stroke="#e1ed5e" stroke-width="0.3" x1="26.387840678322732" x2="22.057713659400548" y1="142.50000000000003" y2="145.00000000000006" /><path d="M 25.521815274538298 143.00000000000003 a86.0,86.0 0 0,1 -11.493303480769221,-40.785679425670985" fill="none" id="id45" stroke="none" /><text fill="#e1ed5e" style="font-size:6.75px; font-family:Arial;" text-anchor="middle"><textPath startOffset="21.40746469413373" xlink:href="#id45">September</textPath></text><line stroke="#e1ed5e" stroke-width="0.3" x1="15.003131293944662" x2="10.003315487706104" y1="100.72959589197737" y2="100.7725132973878" /><path d="M 14.003168132696942 100.73817937305945 a86.0,86.0 0 0,1 10.791469493833604,-42.45332614584628" fill="none" id="id46" stroke="none" /><text fill="#e1ed5e" style="font-size:6.75px; font-family:Arial;" text-anchor="middle"><textPath startOffset="22.145653131862435" xlink:href="#id46">October</textPath></text><path d="M 80.9802524753101 91.09779779509293 l -47.24281491454811 -22.112022809575322 a73.16152905908174,73.16152905908174 0 0,0 0.542164354331537,-1.1329149799912004 l 46.85627130225667 22.91975029163161" fill="red" stroke="none" /><path d="M 81.1358732173502 90.77261029715801 l -46.72701192636157 -22.856523053611387 a73.01763441052087,73.01763441052087 0 0,0 0.5604280310171859,-1.1212314778891943 l 46.32776398213264 23.65528638766435" fill="red" stroke="none" /><path d="M 81.29705330413844 90.45014215332179 l -30.891350119775467 -15.773343480741401 a55.685355364822186,55.685355364822186 0 0,0 0.4420142578847095,-0.8476206212584355 l 30.61602779291582 16.301310345104323" fill="red" stroke="none" /><path d="M 81.46374523516351 90.13048839642627 l -37.36730150446216 -19.89598332949868 a63.33397423315073,63.33397423315073 0 0,0 0.5192018186465932,-0.9552728673901656 l 37.02025433620022 20.534511030363465" fill="red" stroke="none" /><line stroke="#e1ed5e" stroke-width="0.3" x1="26.387840678322718" x2="22.05771365940052" y1="57.49999999999999" y2="54.99999999999999" /><path d="M 25.521815274538284 56.99999999999999 a86.0,86.0 0 0,1 29.574782752854787,-30.34633250058573" fill="none" id="id47" stroke="none" /><text fill="#e1ed5e" style="font-size:6.75px; font-family:Arial;" text-anchor="middle"><textPath startOffset="21.40746469413373" xlink:href="#id47">November</textPath></text><path d="M 82.18462484594161 88.88188828441811 l -24.35336447013328 -15.198300596411743 a49.706701343659105,49.706701343659105 0 0,0 0.4579698722682687,-0.7200047059796373 l 24.08887690623912 15.614118977070051" fill="red" stroke="none" /><path d="M 82.37810715431573 88.57770195909679 l -35.622850872672814 -23.090301552592262 a63.45173176781285,63.45173176781285 0 0,0 0.6003004004962676,-0.9089313176186061 l 35.22122603325582 23.698412748549927" fill="red" stroke="none" /><path d="M 82.576782715395 88.27688183743585 l -35.02815635331185 -23.568506851457578 a63.21902714084331,63.21902714084331 0 0,0 0.613556502850244,-0.8951972740167399 l 34.61841011364629 24.166338860544354" fill="red" stroke="none" /><path d="M 82.78059297857968 87.97951657250589 l -26.1015004667228 -18.220874470455026 a52.83219428632607,52.83219428632607 0 0,0 0.5255165570449801,-0.7392048497252267 l 25.78486881114785 18.666256546889773" fill="red" stroke="none" /><path d="M 83.42222388311158 87.10902102172516 l -11.970307443799149 -9.308183470055512 a36.16346068057315,36.16346068057315 0 0,0 0.38528476849610344,-0.4867947187344561 l 11.808756244661483 9.512298132704652" fill="red" stroke="none" /><path d="M 83.64595745247003 86.82634096563983 l -26.499554640594464 -21.346165413414173 a55.02771185382131,55.02771185382131 0 0,0 0.5988932654386195,-0.7305524051522941 l 26.129214555917216 21.79792010026496" fill="red" stroke="none" /><path d="M 83.8745106332314 86.54754324733833 l -32.11509139474139 -26.791551454299196 a62.82303581306543,62.82303581306543 0 0,0 0.6979502758178765,-0.8221836699424525 l 31.650446555416398 27.338901906691206" fill="red" stroke="none" /><path d="M 86.13680546590413 84.22622945171909 l -2.674628563063552 -3.043236329972933 a25.051533698542137,25.051533698542137 0 0,0 0.3254558312559427,-0.2811209955628325 l 2.621993252044761 3.088701458000476" fill="red" stroke="none" /><path d="M 86.68645165197937 83.75963576809568 l -9.238960169651422 -11.270029173064382 a35.57298674184972,35.57298674184972 0 0,0 0.4755756487589225,-0.3830900784063863 l 9.044133750537254 11.426967545264166" fill="red" stroke="none" /><path d="M 86.96720088162412 83.53348406188908 l -17.70262771702271 -22.3666918212367 a49.52458467907425,49.52458467907425 0 0,0 0.6711525855111551,-0.5218923099235968 l 17.316065186876312 22.6672851827811" fill="red" stroke="none" /><path d="M 87.25179093698888 83.31218511350988 l -17.159445177599476 -22.462264563067883 a49.26658607091237,49.26658607091237 0 0,0 0.6764701352437497,-0.5076358008288496 l 16.771322053444973 22.753519391160733" fill="red" stroke="none" /><path d="M 87.54013794807813 83.09580414077388 l -16.729300784591576 -22.69650946954274 a49.19576292357381,49.19576292357381 0 0,0 0.6840998563249445,-0.495235539702684 l 16.33721991789266 22.980345780618503" fill="red" stroke="none" /><path d="M 88.12776184653039 82.6780497279521 l -19.091527525087894 -27.855109216315718 a54.769713245659425,54.769713245659425 0 0,0 0.7800868824590582,-0.524877268689886 l 18.610544354531847 28.178736159062716" fill="red" stroke="none" /><line stroke="#e1ed5e" stroke-width="0.3" x1="56.869717070023135" x2="54.33264160355391" y1="26.7553504044142" y2="22.446841604673864" /><path d="M 56.362301976729285 25.89364864446614 a86.0,86.0 0 0,1 42.16139366436587,-11.88097634709845" fill="none" id="id48" stroke="none" /><text fill="#e1ed5e" style="font-size:6.75px; font-family:Arial;" text-anchor="middle"><textPath startOffset="22.145653131862474" xlink:href="#id48">December</textPath></text><path d="M 96.76829788921471 79.25015418208739 l -1.7448371494362789 -11.203106161096997 a32.338167591584735,32.338167591584735 0 0,0 0.5492482147890224,-0.08072057317293624 l 1.5522638290395714 11.231407807568818" fill="red" stroke="none" /></svg>